<?xml version="1.0" standalone="yes"?>
<svg xmlns="http://www.w3.org/2000/svg" width="1389" height="1285">
<path style="fill:#070707; stroke:none;" d="M916 495L917.06 495.981L918.16 496.389L918.978 496.373L919.39 496.451L921 496L919.94 495.019L918.84 494.611L918.022 494.627L917.61 494.549L916 495M905 495L906.06 495.981L907.16 496.389L907.978 496.373L908.39 496.451L910 496L908.94 495.415L908.528 495.358L907.84 495.16L906.61 495.036L905 495M927 495L928.06 495.981L929.16 496.389L929.978 496.373L930.39 496.451L932 496L930.94 495.415L930.528 495.358L929.84 495.16L928.61 495.036L927 495M897 496L898 497L897 496M939 496L940 497L939 496M901 498L900.518 499.625L900.518 500L900.518 501.375L901 503L903 502L904 502L904 499L903 499L901 498M912 498L911.518 499.625L911.518 500L911.518 501.375L912 503L914 502L915 502L915 499L914 499L912 498M923 498L922.518 499.625L922.518 500L922.518 501.375L923 503L925 502L926 502L926 499L925 499L923 498M934 498L933.518 499.625L933.518 500L933.518 501.375L934 503L936 502L937 502L937 499L935 498L934 498M945 498L944.518 499.625L944.518 500L944.518 501.375L945 503L947 502L948 502L948 499L946 498L945 498M889 499L889.347 501L889.415 501.506L890 503L891.329 502.252L892.13 501.42L892.455 500.745L892.684 500.427L893 499L889 499M956 502L957 503L956 502M875 504L874 505L872 506L873.06 506.981L874.16 507.389L874.978 507.373L875.39 507.451L877 507L876.111 505.347L875.9 504.909L875 504M884 504L883 506L883 507L884.625 507.482L885 507.482L886.375 507.482L888 507L887 505L887 504L884 504M895 504L894 506L894 507L895.625 507.482L896 507.482L897.375 507.482L899 507L898 505L898 504L895 504M906 504L905 506L905 507L906.625 507.482L907 507.482L908.375 507.482L910 507L910 506L909 504L906 504M917 504L916 506L916 507L917.625 507.482L918 507.482L919.375 507.482L921 507L920 505L920 504L917 504M928 504L927 506L927 507L928.625 507.482L929 507.482L930.375 507.482L932 507L931 505L931 504L928 504M939 504L938 506L938 507L939.625 507.482L940 507.482L941.375 507.482L943 507L942 505L942 504L939 504M950 504L949 506L949 507L950.625 507.482L951 507.482L952.375 507.482L954 507L953 505L953 504L950 504M961 504L960 506L960 507L961.625 507.482L962 507.482L963.375 507.482L965 507L963.96 505.79L963.641 505.559L962.522 504.728L961 504M868 509L867.518 510.625L867.518 511L867.518 512.375L868 514L869 514L871 513L871 510L870 510L868 509M879 509L878.518 510.625L878.518 511L878.518 512.375L879 514L880 514L882 513L882 510L881 510L879 509M890 509L889.518 510.625L889.518 511L889.518 512.375L890 514L891 514L893 513L893 510L892 510L890 509M901 509L900.518 510.625L900.518 511L900.518 512.375L901 514L902 514L904 513L904 510L903 510L901 509M912 509L911.518 510.625L911.518 511L911.518 512.375L912 514L913 514L915 513L915 510L914 510L912 509M923 509L922.518 510.625L922.518 511L922.518 512.375L923 514L924 514L926 513L926 510L925 510L923 509M934 509L933.518 510.625L933.518 511L933.518 512.375L934 514L935 514L937 513L937 510L936 510L934 509M945 509L944.518 510.625L944.518 511L944.518 512.375L945 514L946 514L948 513L948 510L947 510L945 509M956 509L955.518 510.625L955.518 511L955.518 512.375L956 514L957 514L959 513L959 510L958 510L956 509M967 509L966.518 510.625L966.518 511L966.518 512.375L967 514L968 514L970 513L970 510L969 510L967 509M862 515L861 517L861 518L862.625 518.482L863 518.482L864.375 518.482L866 518L865 516L865 515L862 515M873 515L872 517L872 518L873.625 518.482L874 518.482L875.375 518.482L877 518L876 516L876 515L873 515M884 515L883 517L883 518L884.625 518.482L885 518.482L886.375 518.482L888 518L887 516L887 515L884 515M895 515L894 517L894 518L895.625 518.482L896 518.482L897.375 518.482L899 518L899 516L897.506 515.415L897 515.347L895 515M906 515L906 516L905 518L906.625 518.482L907 518.482L908.375 518.482L910 518L910 517L909 515L906 515M917 515L916 517L916 518L917.625 518.482L918 518.482L919.375 518.482L921 518L920 516L920 515L917 515M928 515L927 517L927 518L928.625 518.482L929 518.482L930.375 518.482L932 518L931 516L931 515L928 515M939 515L938 517L938 518L939.625 518.482L940 518.482L941.375 518.482L943 518L942 516L942 515L939 515M950 515L949 517L949 518L950.625 518.482L951 518.482L952.375 518.482L954 518L953 516L953 515L950 515M961 515L960 517L960 518L961.625 518.482L962 518.482L963.375 518.482L965 518L964 516L964 515L961 515M972 515L971 517L971 518L972.625 518.482L973 518.482L974.375 518.482L976 518L975 516L975 515L972 515M857 520L856.518 521.625L856.518 522L856.518 523.375L857 525L859 524L860 524L860 521L859 521L857 520M868 520L867.518 521.625L867.518 522L867.518 523.375L868 525L870 524L871 524L871 521L870 521L868 520M879 520L878.518 521.625L878.518 522L878.518 523.375L879 525L881 524L882 524L882 521L881 521L879 520M890 520L889.518 521.625L889.518 522L889.518 523.375L890 525L891 525L893 524L893 521L892 521L890 520M901 520L900.518 521.625L900.518 522L900.518 523.375L901 525L903 524L904 524L903.653 522L903.585 521.494L903 520L901 520M912 520L911.518 521.625L911.518 522L911.518 523.375L912 525L914 524L915 524L915 521L914 521L912 520M923 520L922.518 521.625L922.518 522L922.518 523.375L923 525L925 524L926 524L926 521L925 521L923 520M934 520L933.518 521.625L933.518 522L933.518 523.375L934 525L936 524L937 524L937 521L936 521L934 520M945 520L944.518 521.625L944.518 522L944.518 523.375L945 525L946 525L948 524L948 521L947 521L945 520M956 520L955.518 521.625L955.518 522L955.518 523.375L956 525L957 525L959 524L959 521L958 521L956 520M967 520L966.518 521.625L966.518 522L966.518 523.375L967 525L968 525L970 524L970 521L969 521L967 520M978 520L977.518 521.625L977.518 522L977.518 523.375L978 525L980 524L981 524L981 521L980 521L978 520M851 526L851 527L850 529L851.625 529.482L853 529.482L853.375 529.482L855 529L854 527L854 526L851 526M862 526L861 528L861 529L862.625 529.482L864 529.482L864.375 529.482L866 529L865 527L865 526L862 526M873 526L872 528L872 529L873.625 529.482L875 529.482L875.375 529.482L877 529L876 527L876 526L873 526M884 526L883 528L883 529L884.625 529.482L886 529.482L886.375 529.482L888 529L887 527L887 526L884 526M895 526L894 528L894 529L895.625 529.482L897 529.482L897.375 529.482L899 529L899 527L897.506 526.415L897 526.347L895 526M906 526L906 527L905 529L906.625 529.482L908 529.482L908.375 529.482L910 529L910 528L909 526L906 526M917 526L916 528L916 529L917.625 529.482L919 529.482L919.375 529.482L921 529L920 527L920 526L917 526M928 526L927 528L927 529L928.625 529.482L930 529.482L930.375 529.482L932 529L931 527L931 526L928 526M939 526L938 528L938 529L939.625 529.482L941 529.482L941.375 529.482L943 529L942 527L942 526L939 526M950 526L949 528L949 529L950.625 529.482L952 529.482L952.375 529.482L954 529L953 527L953 526L950 526M961 526L960 528L960 529L961.625 529.482L963 529.482L963.375 529.482L965 529L964 527L964 526L961 526M972 526L971 528L971 529L972.625 529.482L974 529.482L974.375 529.482L976 529L975 527L975 526L972 526M983 526L982 528L982 529L983.625 529.482L985 529.482L985.375 529.482L987 529L986 527L986 526L983 526M846 531L845.518 532.625L845.518 533L845.518 534.375L846 536L847 536L849 535L849 532L848 532L846 531M857 531L856.518 532.625L856.518 533L856.518 534.375L857 536L858 536L860 535L860 532L859 532L857 531M868 531L867.518 532.625L867.518 534L867.518 534.375L868 536L869 536L871 535L871 532L870 532L868 531M879 531L878.518 532.625L878.518 533L878.518 534.375L879 536L880 536L882 535L882 532L881 532L879 531M890 531L889.518 532.625L889.518 533L889.518 534.375L890 536L891 536L893 535L893 532L892 532L890 531M901 531L900.518 532.625L900.518 533L900.518 534.375L901 536L902 536L904 535L904 532L903 532L901 531M912 531L911.518 532.625L911.518 533L911.518 534.375L912 536L910.329 536.015C909.205 536.052 908.084 536.135 906.975 536.326C904.982 536.668 903.075 537.33 901.16 537.964L899.671 538.466L898 539L897.639 537.861L897.333 537.667L896.389 537.111L895 537L894.806 539L894.73 539.506L895 541L893.329 541.241L891.84 541.703L889.975 542.558C888.958 543.121 887.969 543.72 887 544.363C885.617 545.281 884.276 546.263 883 547.326C881.963 548.19 880.976 549.108 880.001 550.04C878.66 551.322 877.367 552.652 876.093 554L875.184 555L874.325 556C873.232 557.271 872.263 558.649 871.274 560C869.875 561.911 868.402 563.805 867.42 565.975L866.728 567.84L866.464 568.841L866.332 569.329L866 571L864.506 570.415L864 570.347L862 570L861 572L861 573L862.494 573.585L863 573.653L865 574L864.297 575.667L864.132 576.144L863.351 577.954L862.272 579.704C861.335 580.928 860.151 581.912 858.956 582.87L855 585.884C852.346 587.913 849.72 589.982 847.16 592.13L845.671 593.427L844 595L843.372 593.671L842.549 592.87L841.846 592.545L841.511 592.316L840 592L839 594L839 595L840 596L842 596L840.347 598L839.909 598.506L839 600L837.852 598.773L836.745 597.912L836.435 597.648L835 597L834.549 598.645L834.611 600L834.929 600.886L835.019 601.355L836 603L834.333 603.249L833.866 603.246L832.884 603.285C831.587 603.249 830.292 603.107 829 603L828.862 604.522L829.117 605.641L829.174 605.96L830 607L828 609L828 610L826 608.889L825.494 608.594L824 608L823.942 609.671L823.867 610.159L823.721 611.16L823.142 613.025C822.026 615.7 819.979 617.823 818.13 620L816.435 622C814.816 623.981 813.213 625.974 811.651 628L808.63 632C807.648 633.319 806.67 634.64 805.746 636C804.858 637.308 804.023 638.648 803.204 640L800.851 644C799.357 646.619 797.92 649.269 796.64 652C795.718 653.969 794.845 655.961 794.089 658C793.607 659.301 793.227 660.652 792.9 662C792.579 663.319 792.317 664.649 792.174 666C792.033 667.327 792.007 668.666 792.008 670C792.008 671.002 792.038 672 792.093 673L792.326 675C792.471 676.017 792.759 677.015 793.04 678L793.671 680L794.345 682C794.945 683.692 795.561 685.373 796.323 687C797.472 689.454 798.864 691.792 800.44 693.995C801.14 694.974 801.855 695.963 802.669 696.851L804.3 698.378L805.172 698.918L806.086 699.267L807.97 699.387L808.843 699.233L810.329 698.739L812 698C812.013 699.055 812 700.089 812.059 701.141L812.148 701.986L812.603 703.686L813.599 704.953L814.299 705.338L815.089 705.534L815.911 705.534L816.701 705.338L817.973 704.392L818.686 702.852L818.867 701.941L819.165 698.999L819.729 695L820.424 690L820.921 687C821.144 685.661 821.368 684.325 821.665 683C822.196 680.631 822.882 678.286 823.698 676C824.182 674.645 824.718 673.311 825.312 672L826.759 669C827.606 667.306 828.483 665.627 829.453 664C830.473 662.289 831.58 660.631 832.721 659L834.899 656.002L836.465 654.034L837.299 653.098L839.066 651.487L840.854 650.448L841.845 650.185L844 650L843.406 648.506L843.111 648L842 646L843 646L844 644L846 646L847 646L849 645L848.808 643.375L848.721 643L848.433 641.625L848 640L849 639L850.645 639.397L852 639.549L852.886 639.466L853.355 639.486L855 639L854.759 637.375L854.759 637L854.759 635.625L855 634L856.625 634.241L857 634.241L858.375 634.241L860 634L860.589 631.984L861.025 631.138L862.279 629.855L865.579 627.496C866.743 626.574 867.81 625.535 868.929 624.56L872 622L872.35 623.67L872.394 624.154L872.515 625.136L872.624 626.864L872.714 627.846L872.735 628.33L873 630L871.375 630.241L870 630.241L869.625 630.241L868 630L867.045 632.1L866.561 633.012L866.09 633.727L864.856 634.975L863.61 635.657L862 636L861.591 637.565L861.115 638.775L860.75 639.381L859.713 640.391L858.572 640.876L857 641L856.045 643.1L855.561 644.012L855.09 644.727L853.856 645.975L852.61 646.657L851 647L850.439 648.958L850.112 649.779L849.226 650.996L847.938 651.883L846.637 652.426L845 653L845 654L847 655L845.37 656.671C844.354 657.754 843.379 658.875 842.439 660.025C841.645 660.996 840.884 661.997 840.131 663C838.896 664.645 837.669 666.294 836.518 668C835.633 669.313 834.801 670.663 833.953 672L831.424 676L829.012 680C828.242 681.314 827.49 682.637 826.809 684C825.834 685.95 824.999 687.97 824.204 690C823.564 691.636 822.917 693.282 822.529 695C822.157 696.646 822.042 698.317 822.018 700C821.991 701.999 822.047 704.056 822.558 706L823.228 707.996L823.688 708.985L824.228 709.957L825.558 711.786L827.188 713.347L828.094 713.991L830.015 714.991C830.972 715.389 831.977 715.633 833 715.786C834.321 715.984 835.668 715.984 837 715.995C839.002 716.013 841.015 715.986 843 715.7C846.449 715.203 849.769 714.065 853 712.796C854.683 712.134 856.356 711.444 858 710.691C859.687 709.919 861.341 709.076 863 708.247C864.674 707.41 866.354 706.582 868 705.691L874 702.309C875.647 701.418 877.327 700.592 879 699.753L885 696.753L889 694.756C890.322 694.104 891.644 693.453 893 692.873C894.638 692.171 896.314 691.58 898 691.003L903 689.333C904.657 688.784 906.311 688.203 908 687.756C908.993 687.494 909.991 687.284 911 687.094L914 686.551L919 685.464C920.323 685.21 921.657 685.109 923 685.039L924 685.01L925.995 684.942L926.981 684.852L927.941 684.682L929.677 683.973L930.914 682.698L931.248 681.896L931.364 681.049L930.917 679.41L930.392 678.688L929.717 678.05L928.112 676.979L926.434 676.127L925.614 675.808L924 675.522L922.385 675.768L921.561 676.033L919.834 676.635C918.463 677.063 917.075 677.385 915.671 677.684L914 678L915 677L915 675L911 675L911.347 677L911.415 677.506L912 679L910.329 679.102L909.841 679.182L907.955 679.515L904 680.557L902.005 680.971L900.045 681.071L898.159 680.755L897.671 680.645L896 680L895.415 681.494L895.347 682L895 684L893.329 684.228L891.84 684.635C890.535 685.082 889.269 685.619 887.998 686.154L886 687.001L883 688.309C880.973 689.256 878.974 690.257 877 691.309L873 693.576C871.679 694.32 870.351 695.05 869 695.742C867.332 696.595 865.648 697.417 864 698.309C861.653 699.578 859.389 700.998 857 702.191C854.729 703.326 852.366 704.273 850 705.189C847.065 706.325 844.091 707.355 841 707.981L839 708.34L838.001 708.452L837.005 708.484L836.018 708.4L834.138 707.827L832.517 706.732L832.086 706.426L831 705L832.671 705.428L833.159 705.507L834.16 705.671L836.025 705.736C837.028 705.701 838.019 705.529 839 705.327C840.01 705.119 841.008 704.851 842 704.572C844.03 704 846.044 703.337 848 702.547C850.393 701.581 852.7 700.41 855 699.244C856.687 698.389 858.358 697.512 860 696.573C863.056 694.823 866.021 692.926 869 691.05L873 688.576C875.321 687.132 877.602 685.628 880 684.312C881.64 683.411 883.322 682.583 885 681.756C886.647 680.945 888.297 680.143 890 679.453C891.633 678.791 893.308 678.238 894.975 677.671L898.329 676.534L900 676L900.639 676.956L901.521 677.248L902.863 676.957L904.444 676.097L906.171 675.105L908.039 674.339L909.015 674.057L910.997 673.609C912.26 673.344 913.545 673.1 914.83 672.97L919.17 672.634C920.782 672.472 922.375 672.18 924.001 672.177C925.341 672.175 926.668 672.368 928 672.487L930 672.545L932 672.389C933 672.293 933.993 672.177 935 672.177C936.621 672.178 938.225 672.451 939.84 672.553L940.841 672.475L941.329 672.487L943 672L942.506 670.333L941.971 668.894L941.575 668.088L940.437 666.495L938.856 665.243L937.942 664.763L936.981 664.377L935.995 664.09L934 663.804L933 663.786L930 663.912C928.997 663.932 928.003 663.914 927 663.866C925.665 663.801 924.338 663.686 923 663.713C921.006 663.753 919.021 664.121 917.025 664.035L915.16 663.849L913.671 663.517L912 663L911 664L911 666L909.333 666.042L907.884 666.178C907.141 666.274 906.398 666.405 905.667 666.568L904 667L903.684 665.573L903.455 665.255L903.13 664.58L902.329 663.748L901 663L900.518 664.625L900.518 665L900.518 666.375L901 668L899.329 668.187L898.841 668.29L897.84 668.465L895.975 668.9L894.003 669.438L893.025 669.739L891.16 670.406L889.671 671.062L888 672L887 670L887 669L884 669L883.759 670.625L883.759 671L883.759 672.375L884 674L882.344 674.331L881.88 674.46L880.929 674.714L879.261 675.329C877.739 675.985 876.337 676.899 874.911 677.734L870.999 680.011C868.979 681.205 866.974 682.424 865 683.692L860 686.936C858.36 687.953 856.676 688.893 855 689.85C853.342 690.795 851.697 691.756 850 692.63C849.023 693.133 848.006 693.556 847 693.996L845 694.85L843 695.715L841 696.535L840 696.892L839 697.197L837.005 697.582C836.053 697.686 835.109 697.644 834.16 697.541C833.11 697.427 832.034 697.183 831 697L831.182 695.355L831.276 694.886L831.42 694L832 691C833.999 690.995 836.014 691.044 838.005 690.826C840.385 690.566 842.711 689.965 845 689.279C847.39 688.562 849.765 687.741 852 686.623C854.808 685.22 857.388 683.397 860 681.667L863 679.692L867 677.204C868.317 676.404 869.645 675.62 871 674.886L875 672.845L877 671.776L880 670.158C880.987 669.655 881.99 669.186 882.998 668.728L884.975 667.911L886.84 667.421L888.329 667.409L890 668L891.329 667.252L892.13 666.42L892.455 665.745L892.684 665.427L893 664L894.602 663.935L895.111 663.861L897.018 663.528L898.009 663.273L900 662.667C900.991 662.366 901.976 662.037 903 661.861L905 661.667C906.005 661.632 907.003 661.655 908 661.491C909.688 661.213 911.265 660.39 913 660.389L915 660.69L915.995 660.981L916.972 661.245L917.903 661.398L919.407 661.143L919.815 660.616L920.12 660.366L920 659L928 659L927 660L928 662L931 662L932 660L931 659L939 659L938 661L939 662L940.671 661.715L941.159 661.542L942.16 661.245L944.005 660.482L945.853 659.517L947.377 658.312L948.248 656.796L948.248 655.1L947.382 653.559L945.896 652.425L945.102 652.029L943.667 651.494L942 651L942.27 649.506L942.194 649L942 647L939 647L938.806 649L938.73 649.506L939 651L931 651L931.27 649.506L931.194 649L931 647L928 647L927.806 649L927.73 649.506L928 651L920 651L920.27 649.506L920.194 649L920 647L921.671 646.568L922.159 646.478L924.045 646.178L925.025 646.09L927.002 646.015L932 646L936.996 645.956L937.984 645.893L939.885 645.59L941.55 644.975L942.363 644.439L944 643L944 645L945 646L946 646L948 645L947.662 643.503L947.434 643.19L946.557 642.145L945.844 641.924L945.512 641.753L944 642L945.082 640.431L945.492 640.032L946.276 639.171C947.462 638.05 948.745 637.041 950 636L949 638L949 639L950.625 639.482L951 639.482L952.375 639.482L954 639L954 637L953 636L951 636L955 632L955 634L956 635L957 635L959 634C958.893 632.708 958.751 631.413 958.715 630.116L958.754 629.134L958.751 628.667L959 627L960.645 627.981L961.114 628.071L962 628.389L963.355 628.451L965 628L964.352 626.565L964.088 626.255L963.227 625.148L962 624L963.671 623.994L964.158 624.095L965.157 624.265L966.985 624.926C967.951 625.351 968.827 625.926 969.714 626.491L971.41 627.585L973.076 628.36C974.096 628.714 975.184 628.768 976.25 628.851L976.641 628.866L978 629L977.603 630.645L977.451 632L977.534 632.886L977.514 633.355L978 635L979.329 634.252L980.13 633.42L980.455 632.745L980.684 632.427L981 631L982.671 632.246L983.159 632.546L984.16 633.2C985.774 634.163 987.413 635.08 989 636.086L992 638.069L994 639.368L996 640.62L1000 643.154L1003 645.076C1004.7 646.201 1006.34 647.394 1008 648.579L1012 651.475L1017 655.349L1023 660.004C1025.7 662.155 1028.35 664.377 1031 666.586L1039 673.272L1043 676.729L1046 679.282L1051 683.718L1054 686.271L1058 689.729L1061 692.282L1066 696.718L1069 699.271L1073 702.729L1076 705.282L1081 709.718L1084 712.271L1088 715.729L1091 718.285L1096 722.834L1100 726.282L1104 729.845L1108 733.285L1114 738.715L1118 742.13L1122 745.565C1123.97 747.208 1125.99 748.797 1128 750.4C1129.99 751.986 1131.97 753.58 1134 755.105C1135.64 756.338 1137.33 757.517 1139 758.709C1140.66 759.895 1142.31 761.111 1144 762.255C1147.23 764.435 1150.62 766.361 1154 768.281L1157 769.996C1157.99 770.554 1158.98 771.133 1160 771.63C1161.64 772.427 1163.32 773.129 1165 773.85C1166.33 774.421 1167.65 775.026 1169 775.55C1170.65 776.191 1172.32 776.768 1174 777.333C1176.32 778.112 1178.63 778.915 1181 779.522C1182.98 780.029 1185 780.402 1187 780.8C1188.99 781.195 1190.98 781.627 1193 781.829C1194.99 782.029 1197 782.006 1199 781.999L1202 781.961L1204 781.829C1205.01 781.745 1206.01 781.563 1207 781.384C1208 781.204 1209.01 781.006 1210 780.764C1211.01 780.517 1212 780.253 1213 779.96L1215 779.289L1217 778.481L1219 777.468L1220.96 776.2L1221.9 775.468L1223.61 773.815C1224.88 772.391 1225.85 770.73 1226.65 768.999C1227.53 767.078 1228.1 765.04 1228.62 763L1229.33 760L1229.7 758L1229.87 756L1229.87 755L1229.8 754L1229.48 752C1229.25 750.991 1228.98 749.997 1228.7 749C1228.23 747.319 1227.72 745.646 1227.14 744C1226.29 741.623 1225.28 739.315 1224.28 737L1222.14 732L1220.31 728L1218.58 724L1217.72 722C1217.29 721.005 1216.85 720.015 1216.46 719C1216.09 718.012 1215.77 717.016 1215.49 716C1215.11 714.67 1214.83 713.315 1214.41 712C1213.85 710.298 1213.12 708.659 1212.46 707L1211.75 705L1210.86 702L1209.97 699L1208.67 695L1206 687L1205.04 684L1204.47 682C1204.11 680.668 1203.84 679.312 1203.4 678C1202.83 676.271 1202.07 674.6 1201.2 673C1200.44 671.605 1199.62 670.233 1198.61 669L1197.79 668C1196.59 666.637 1195.33 665.327 1194.09 664L1192.29 662L1188.83 658C1186.94 655.945 1184.97 653.973 1183 652C1181.03 650.029 1179.07 648.039 1177 646.17C1175.7 644.994 1174.35 643.877 1173 642.754C1171.67 641.646 1170.36 640.521 1169 639.449C1167.03 637.889 1165.01 636.383 1163 634.873C1160.68 633.135 1158.37 631.386 1156 629.721C1153.37 627.874 1150.68 626.114 1148 624.333C1146.34 623.229 1144.68 622.12 1143 621.053C1141.35 620.008 1139.67 619.007 1138 618L1134 615.618L1132 614.518L1131 614.035L1130 613.61C1128.7 613.136 1127.38 612.696 1126 612.488L1124.06 612.322L1123.15 612.408L1121.61 613.042L1120.66 614.304L1120.47 615.108L1120.47 615.965L1121.05 617.675L1121.61 618.468L1123.15 619.856C1124.03 620.505 1125.02 620.95 1126 621.405L1128 622.194L1129 622.591L1131 623.517C1132.37 624.209 1133.69 625.008 1135 625.812C1137.03 627.057 1139.02 628.352 1141 629.667L1148 634.333C1150.01 635.678 1152.03 637.016 1154 638.428C1156.74 640.394 1159.37 642.498 1162 644.6L1166 647.804C1167.01 648.621 1168.02 649.437 1169 650.289C1171.8 652.722 1174.38 655.38 1177 658C1179.59 660.591 1182.22 663.154 1184.53 666C1185.83 667.593 1187.03 669.265 1188.12 671C1189.52 673.211 1190.74 675.529 1191.61 678C1192.4 680.221 1192.99 682.602 1192.76 684.975L1192.42 686.84L1192.05 687.841L1191.9 688.329L1191 690L1190.34 688.329L1190.1 687.841L1189.65 686.84C1189.02 685.544 1188.38 684.248 1187.66 682.998L1186.45 681L1185.08 679C1184.08 677.645 1183.04 676.317 1182 675C1180.92 673.651 1179.84 672.303 1178.71 671C1177.52 669.631 1176.28 668.309 1174.99 667.039C1174.02 666.091 1173.02 665.178 1172 664.286L1169 661.754L1164 657.611L1160 654.424L1155 650.627C1152.68 648.881 1150.36 647.118 1148 645.427L1142 641.28L1138 638.424L1135 636.344L1131 633.667L1127 631.003C1125.36 629.921 1123.71 628.859 1122 627.877L1120 626.825L1119 626.364L1118 625.974L1117 625.657L1115.06 625.361L1113.32 625.647L1112.05 626.603L1111.66 627.303L1111.47 628.105L1111.66 629.809L1112.61 631.391L1113.32 632.096L1115.06 633.384L1117 634.6L1121 637.053C1122.68 638.12 1124.34 639.229 1126 640.333L1130 643.001L1134 645.72L1139 649.291L1143 652.151L1149 656.627C1151.35 658.394 1153.69 660.174 1156 662.003L1161 666.001C1162.69 667.362 1164.39 668.717 1166 670.171C1168.37 672.308 1170.62 674.593 1172.71 677C1174.12 678.621 1175.46 680.309 1176.79 682L1179.08 685L1179.78 686L1181.06 688L1182.11 689.995L1182.49 690.981L1182.76 692.852L1182.58 693.682L1182.18 694.397L1181.58 694.972L1180.81 695.397L1178.98 695.852L1177 695.981L1175 695.999L1172 695.995L1170 695.941L1168.06 695.682L1167.15 695.397L1165.59 694.397C1164.88 693.716 1164.48 692.841 1164.13 691.941L1163.53 689.995L1162.87 688C1162.47 686.967 1162.01 685.972 1161.48 685C1160.92 683.968 1160.28 682.985 1159.64 682C1158.97 680.97 1158.24 679.966 1157.48 679C1156.09 677.234 1154.56 675.605 1152.99 674.001C1151.37 672.348 1149.72 670.718 1148 669.171C1146.39 667.718 1144.69 666.362 1143 665.001L1140 662.601C1138.35 661.292 1136.71 659.979 1135 658.745C1133.69 657.798 1132.34 656.9 1131 656.001L1127 653.344C1125.35 652.268 1123.68 651.23 1122 650.204L1120 649.015L1118 647.905L1117 647.414L1116 646.998L1115 646.668L1113.06 646.362L1112.15 646.423L1111.32 646.647L1110.61 647.042L1109.66 648.304L1109.47 649.108L1109.47 649.965L1109.66 650.834L1110.05 651.676L1110.61 652.472L1112.15 653.907L1114.02 655.185L1116 656.399C1118.34 657.815 1120.7 659.21 1123 660.692C1124.34 661.558 1125.68 662.441 1127 663.344C1128.69 664.499 1130.37 665.665 1132 666.898C1134.4 668.712 1136.7 670.651 1139 672.59C1140.01 673.44 1141.03 674.278 1142 675.17C1143.71 676.737 1145.36 678.355 1147 680.001C1148.89 681.913 1150.78 683.832 1152.39 685.995C1153.41 687.369 1154.29 688.843 1155.14 690.329L1156 692L1154.33 691.339L1152.84 690.64L1150.98 689.677L1147 687.421C1145.33 686.467 1143.65 685.543 1142 684.55C1140.3 683.526 1138.65 682.428 1137 681.333C1134.65 679.773 1132.3 678.213 1130 676.573C1128.31 675.367 1126.66 674.116 1125 672.873C1122.66 671.12 1120.31 669.374 1118 667.576L1113 663.6L1108 659.576L1103 655.424L1096 649.75L1086 641.424L1080 636.6L1071 629.4L1065 624.6L1061 621.424L1056 617.627L1047 610.884L1041 606.579L1037 603.72C1034.36 601.888 1031.69 600.1 1029 598.344L1026 596.424L1021 593.319C1019.7 592.49 1018.4 591.658 1017.13 590.772L1016.28 590.123L1014.87 588.781L1014.23 587.951L1013 586L1011.35 586.13L1010 586.161L1008.65 586.13L1007 586L1008.19 584L1008.52 583.494L1009 582L1007.51 581.415L1007 581.347L1005 581L1004 583L1004 584L1002.33 582.989L1000.84 582.188C999.237 581.354 997.595 580.584 996.039 579.664L994.17 578.475C993.306 577.883 992.465 577.266 991.576 576.712L989.835 575.923C988.968 575.627 988.048 575.525 987.146 575.404L985.671 575.23L984 575L986 574L987 573L986 571L986 570L983 570L981.483 571.358L980.679 571.741L978.941 571.752L977.982 571.533L976.004 570.842L975.025 570.46L973.16 569.794L972.159 569.509L971.671 569.357L970 569L970 565L966 565L965.57 563.329L965.369 562.841L964.544 560.955L963.351 558.996L961.826 557.015C960.995 556.046 960.145 555.099 959.27 554.17C957.87 552.684 956.408 551.258 954.911 549.87C953.365 548.435 951.776 547.05 950.17 545.683C949.074 544.751 947.964 543.811 946.739 543.049L945.071 542.141L944.12 541.747L943.656 541.55L942 541L942.27 539.506L942.194 539L942 537L940.512 537.265L940.117 537.404L938.53 537.826L936.826 538.081L935.909 538.075L933.985 537.816L930.005 536.888C929.06 536.673 928.115 536.468 927.16 536.301L925.671 536.099L924 536L925.079 534.852L925.634 533.745L925.787 533.435L926 532L925 532L923 531L922.518 532.625L922.518 533L922.518 534.375L923 536L913 536L914.079 534.852L914.634 533.745L914.787 533.435L915 532L914 532L912 531M934 531L933.518 532.625L933.518 533L933.518 534.375L934 536L935 536L937 535L937 532L936 532L934 531M945 531L944.518 532.625L944.518 534L944.518 534.375L945 536L946 536L948 535L948 532L947 532L945 531M956 531L955.518 532.625L955.518 533L955.518 534.375L956 536L957 536L959 535L959 532L958 532L956 531M967 531L966.518 532.625L966.518 533L966.518 534.375L967 536L968 536L970 535L970 532L969 532L967 531M978 531L977.518 532.625L977.518 533L977.518 534.375L978 536L979 536L981 535L981 532L980 532L978 531M989 531L988.518 532.625L988.518 533L988.518 534.375L989 536L990 536L992 535L992 532L991 532L989 531M840 537L839 539L839 540L840.625 540.482L842 540.482L842.375 540.482L844 540L843 538L843 537L840 537M851 537L851 538L850 540L851.625 540.482L852 540.482L853.375 540.482L855 540L854 538L854 537L851 537M862 537L861 539L861 540L862.625 540.482L863 540.482L864.375 540.482L866 540L865 538L865 537L862 537M873 537L872 539L872 540L873.625 540.482L874 540.482L875.375 540.482L877 540L876 538L876 537L873 537M884 537L883 539L883 540L884.625 540.482L885 540.482L886.375 540.482L888 540L887 538L887 537L884 537M950 537L949 539L949 540L950.625 540.482L951 540.482L952.375 540.482L954 540L953 538L953 537L950 537M961 537L960 539L960 540L961.625 540.482L962 540.482L963.375 540.482L965 540L964 538L964 537L961 537M972 537L971 539L971 540L972.625 540.482L973 540.482L974.375 540.482L976 540L975 538L975 537L972 537M983 537L982 539L982 540L983.625 540.482L984 540.482L985.375 540.482L987 540L986 538L986 537L983 537M994 537L994 538L993 540L994.625 540.482L995 540.482L996.375 540.482L998 540L997 538L997 537L994 537M835 542L834.518 543.625L834.518 544L834.518 545.375L835 547L836 547L838 546L838 543L837 543L835 542M846 542L845.518 543.625L845.518 544L845.518 545.375L846 547L847 547L849 546L849 543L848 543L846 542M857 542L856.518 543.625L856.518 544L856.518 545.375L857 547L858 547L860 546L860 543L859 543L857 542M868 542L867.518 543.625L867.518 544L867.518 545.375L868 547L869 547L871 546L871 543L870 543L868 542M879 542L878.518 543.625L878.518 544L878.518 545.375L879 547L880 547L882 546L882 543L881 543L879 542M956 542L955.518 543.625L955.518 544L955.518 545.375L956 547L957 547L959 546L959 543L958 543L956 542M967 542L966.518 543.625L966.518 544L966.518 545.375L967 547L968 547L970 546L970 543L969 543L967 542M978 542L977.518 543.625L977.518 544L977.518 545.375L978 547L979 547L981 546L981 543L980 543L978 542M989 542L988.518 543.625L988.518 544L988.518 545.375L989 547L990 547L992 546L992 543L991 543L989 542M1000 542L999.518 543.625L999.518 544L999.518 545.375L1000 547L1001 547L1003 546L1003 543L1002 543L1000 542M840 548L839 550L839 551L840.625 551.482L842 551.482L842.375 551.482L844 551L843 549L843 548L840 548M851 548L850 550L850 551L851.625 551.482L853 551.482L853.375 551.482L855 551L854 549L854 548L851 548M862 548L861 550L861 551L862.625 551.482L864 551.482L864.375 551.482L866 551L865 549L865 548L862 548M873 548L872 550L872 551L873.625 551.482L875 551.482L875.375 551.482L877 551L876 549L876 548L873 548M961 548L960 550L960 551L961.625 551.482L963 551.482L963.375 551.482L965 551L964 549L964 548L961 548M972 548L971 550L971 551L972.625 551.482L974 551.482L974.375 551.482L976 551L975 549L975 548L972 548M983 548L982 550L982 551L983.625 551.482L985 551.482L985.375 551.482L987 551L986 549L986 548L983 548M994 548L993 550L993 551L994.625 551.482L996 551.482L996.375 551.482L998 551L997 549L997 548L994 548M831 549L830 551L830 552L831.361 551.639L831.611 551.306L832.056 550.778L832.028 549.75L831 549M1005 549L1004.64 550.389L1004.92 550.722L1005.64 551.639L1007 552L1006.11 550.347L1005.9 549.909L1005 549M835 553L834.518 554.625L834.518 555L834.518 556.375L835 558L837 557L838 557L838 554L837 554L835 553M846 553L845.518 554.625L845.518 555L845.518 556.375L846 558L848 557L849 557L849 554L848 554L846 553M857 553L856.518 554.625L856.518 555L856.518 556.375L857 558L859 557L860 557L860 554L859 554L857 553M868 553L867.518 554.625L867.518 555L867.518 556.375L868 558L870 557L871 557L871 554L870 554L868 553M967 553L966.518 554.625L966.518 555L966.518 556.375L967 558L968 558L970 557L970 554L969 554L967 553M978 553L977.518 554.625L977.518 555L977.518 556.375L978 558L980 557L981 557L981 554L980 554L978 553M989 553L988.518 554.625L988.518 555L988.518 556.375L989 558L991 557L992 557L992 554L991 554L989 553M1000 553L999.518 554.625L999.518 555L999.518 556.375L1000 558L1002 557L1003 557L1003 554L1002 554L1000 553M829 559L828 561L828 562L829.625 562.482L830 562.482L831.375 562.482L833 562L832 560L832 559L829 559M840 559L839 561L839 562L840.625 562.482L841 562.482L842.375 562.482L844 562L843 560L843 559L840 559M851 559L851 560L850 562L851.625 562.482L852 562.482L853.375 562.482L855 562L854 560L854 559L851 559M862 559L861 561L861 562L862.625 562.482L863 562.482L864.375 562.482L866 562L865 560L865 559L862 559M972 559L971 561L971 562L972.625 562.482L973 562.482L974.375 562.482L976 562L975 560L975 559L972 559M983 559L982 561L982 562L983.625 562.482L984 562.482L985.375 562.482L987 562L986 560L986 559L983 559M994 559L994 560L993 562L994.625 562.482L995 562.482L996.375 562.482L998 562L997 560L997 559L994 559M1005 559L1004 561L1004 562L1005.62 562.482L1006 562.482L1007.38 562.482L1009 562L1008 560L1008 559L1005 559M835 564L834.518 565.625L834.518 566L834.518 567.375L835 569L836 569L838 568L838 565L837 565L835 564M846 564L845.518 565.625L845.518 566L845.518 567.375L846 569L847 569L849 568L849 565L847 564L846 564M857 564L856.518 565.625L856.518 566L856.518 567.375L857 569L858 569L860 568L860 565L859 565L857 564M978 564L977.518 565.625L977.518 566L977.518 567.375L978 569L979 569L981 568L981 565L980 565L978 564M989 564L988.518 565.625L988.518 566L988.518 567.375L989 569L990 569L992 568L992 565L990 564L989 564M1000 564L999.518 565.625L999.518 566L999.518 567.375L1000 569L1001 569L1003 568L1003 565L1002 565L1000 564M825 565L825 568L827 568L827 565L825 565M1010 565L1010.35 567L1010.42 567.506L1011 569L1011.58 567.96L1011.64 567.641L1011.9 566.522L1012 565L1010 565M829 570L828 572L828 573L829.625 573.482L830 573.482L831.375 573.482L833 573L832 571L832 570L829 570M840 570L839 572L839 573L840.625 573.482L841 573.482L842.375 573.482L844 573L843 571L843 570L840 570M851 570L850 572L850 573L851.625 573.482L852 573.482L853.375 573.482L855 573L854 571L854 570L851 570M994 570L993 572L993 573L994.625 573.482L995 573.482L996.375 573.482L998 573L997 571L997 570L994 570M1005 570L1004 572L1004 573L1005.62 573.482L1006 573.482L1007.38 573.482L1009 573L1008 571L1008 570L1005 570M983 573L982 574L983 573M824 575L823.518 576.625L823.518 577L823.518 578.375L824 580L826 579L827 579L827 576L826 576L824 575M835 575L834.518 576.625L834.518 577L834.518 578.375L835 580L837 579L838 579L838 576L837 576L835 575M846 575L845.518 576.625L845.518 577L845.518 578.375L846 580L848 579L849 579L849 576L848 576L846 575M857 575L856.518 576.625L856.518 577L856.518 578.375L857 580L859 579L860 579L860 576L859 576L857 575M1000 575L999.518 576.625L999.518 577L999.518 578.375L1000 580L1002 579L1003 579L1003 576L1002 576L1000 575M1011 575L1010.52 576.625L1010.52 577L1010.52 578.375L1011 580L1013 579L1014 579L1014 576L1012 575L1011 575M973 578L974.671 578.657L975.159 578.89L978.005 580.157L979.853 581.039L980.682 581.505L981.971 582.539L982.41 583.248L983 585L984.671 584.79L985.159 584.778L986.16 584.748L988.025 584.958C989.05 585.156 990.033 585.504 991 585.891C992.366 586.438 993.682 587.107 995 587.756L996.999 588.757C997.994 589.27 999.006 589.763 999.961 590.351L1001.83 591.614L1002.71 592.318L1004.42 593.712L1006.15 594.792C1007.15 595.283 1008.24 595.482 1009.33 595.689L1011 596L1010.79 597.645L1010.71 599L1010.75 599.886L1010.75 600.355L1011 602L1012.65 600.542L1013.09 600.179L1014 599L1015.67 599.541L1016.16 599.788L1017.16 600.231L1019.02 601.248L1022 603.054C1024.03 604.329 1026.01 605.669 1028 607.001L1032 609.72L1036 612.579L1041 616.151C1043.69 618.113 1046.34 620.13 1049 622.127C1051.34 623.882 1053.69 625.626 1056 627.424L1061 631.4L1068 637L1075 642.6L1081 647.424L1086 651.576L1092 656.424L1097 660.576L1103 665.424L1108 669.551L1113 673.424L1118 677.349C1120.31 679.125 1122.63 680.88 1125 682.573C1127.3 684.213 1129.65 685.772 1132 687.333L1136 689.947L1140 692.396C1141.32 693.186 1142.65 693.959 1144 694.691C1145.97 695.757 1147.97 696.745 1150 697.691C1151.32 698.306 1152.66 698.853 1154 699.421C1155.66 700.123 1157.3 700.863 1159 701.456C1160.64 702.027 1162.32 702.449 1164 702.869C1165.32 703.198 1166.65 703.507 1168 703.7C1169 703.843 1169.99 703.908 1171 703.961L1173 703.996L1176 703.996C1177.34 703.981 1178.67 703.963 1180 703.829C1181.01 703.729 1182 703.557 1183 703.38L1185 702.945L1186 702.671C1187.03 702.345 1188.06 701.971 1189 701.431L1191 700.196L1192 699.468L1193.96 697.834L1197.42 694.607L1198.25 693.995L1198.64 693.654L1200 693L1200.35 694.671L1200.77 696.16L1202.97 703C1203.59 704.987 1204.15 706.994 1204.71 709L1205.25 711L1205.48 712L1205.8 714L1205.86 715L1205.85 716L1205.76 716.999L1205.26 718.985L1204.26 720.892L1203.57 721.775L1201.89 723.297L1200.96 723.911L1199 724.852C1198.02 725.196 1197.03 725.516 1196 725.671L1194 725.907L1193 725.96L1189 725.999C1187.33 725.994 1185.66 725.996 1184 725.829C1181.98 725.628 1179.98 725.211 1178 724.789C1176.32 724.432 1174.66 724.026 1173 723.572C1171.65 723.202 1170.32 722.766 1169 722.329C1167.32 721.776 1165.64 721.211 1164 720.547C1162.3 719.857 1160.65 719.051 1159 718.244L1155 716.247L1151 714.247C1149.33 713.408 1147.65 712.584 1146 711.691C1143.62 710.403 1141.32 708.991 1139 707.6L1134 704.575C1132.31 703.517 1130.64 702.423 1129 701.279C1126.97 699.857 1124.98 698.367 1123 696.87C1117.87 692.99 1112.91 688.891 1108 684.728L1105 682.13L1101 678.729L1097 675.271L1094 672.718L1090 669.155L1085 664.845L1082 662.155L1077 657.87C1075.67 656.728 1074.36 655.565 1073 654.46L1067 649.789C1063.95 647.387 1060.97 644.91 1058 642.41L1055 639.845L1052 637.155L1047 632.845C1045.34 631.38 1043.72 629.868 1042 628.463C1040.7 627.397 1039.35 626.383 1038 625.375C1036.02 623.896 1034.03 622.43 1032 621.026L1026 616.974L1021 613.421L1015 609.14L1009 604.86L1006.13 602.707L1004.51 601.275L1003.31 599.835L1002.84 598.977L1002 597L1000.38 597.241L1000 597.241L998.625 597.241L997 597L997.13 595.537L997.161 594.42L997.13 593.333L997 592L995.347 592.806L994.909 592.989L994 594L992.329 593.574L990.84 593.029L986.998 591.308C985.685 590.723 984.356 590.177 983 589.699C981.691 589.238 980.359 588.811 979.005 588.504L977.045 588.091L976.16 587.933L975.159 587.682L974.671 587.6L973 587L973.434 585.644L973.708 584.46L973.669 582.981L973.469 582.21L972.919 580.699L972.688 580.031L972.649 579.349L972.569 578.988L973 578M829 581L828 583L828 584L829.625 584.482L830 584.482L831.375 584.482L833 584L832 582L832 581L829 581M840 581L839 583L839 584L840.625 584.482L842 584.482L842.375 584.482L844 584L843 582L843 581L840 581M851 581L850 583L850 584L851.625 584.482L852 584.482L853.375 584.482L855 584L854 582L854 581L851 581M824 586L823.518 587.625L823.518 588L823.518 589.375L824 591L825 591L827 590L827 587L826 587L824 586M835 586L834.518 587.625L834.518 588L834.518 589.375L835 591L836 591L838 590L838 587L837 587L835 586M846 586L845.518 587.625L845.518 588L845.518 589.375L846 591L848 590L849 590L849 587L848 587L846 586M988 587L988 589L989 590L991 590L992 589L992 587L988 587M862 591L861.876 593.874L861.946 595.449L862.226 598.089L862.233 599.036L861.799 600.964C861.353 602.025 860.628 602.892 859.837 603.711L857.98 605.385L855.999 607L853 609.424L849.045 612.708L845 616L843 615.079L842 614.679L841.625 614.505L840 614L840 616L839 617L841 618L842 618L840.96 619.522L839.841 620.641L839.522 620.96L838 622L837 620L837 619L835 619L834.75 620.645L834.755 621.114L834.71 622L834.787 623.355L835 625L834 626L832.375 625.688L830.625 625.312L829 625L829.254 626.671L829.272 627.159L829.302 628.16L828.973 630.025C828.629 631.105 828.058 632.075 827.414 633C826.416 634.431 825.198 635.693 824.049 637L822.286 639C820.632 640.973 819.003 642.966 817.425 645C816.157 646.635 814.911 648.289 813.746 650C812.638 651.628 811.617 653.311 810.605 655C809.82 656.309 809.053 657.634 808.37 659C807.718 660.305 807.154 661.649 806.605 663C806.067 664.325 805.545 665.657 805.053 667C804.568 668.323 804.103 669.657 803.671 670.998C803.262 672.272 802.852 673.543 802.519 674.84L802.198 676.329L802 678L801.103 676.914L800.953 676.483L800.579 675.679L800.203 673.941L800.042 671.995C800.012 670.997 799.995 669.998 800.015 669C800.037 667.995 800.09 667.001 800.184 666L800.326 665L800.761 663L801.043 662L801.699 660L802.453 658C802.874 656.989 803.316 655.991 803.782 655L804.759 653C805.44 651.653 806.125 650.311 806.873 649C807.843 647.299 808.905 645.654 809.953 644C810.8 642.663 811.625 641.306 812.518 640L813.91 638L816.873 634C818.642 631.638 820.39 629.254 822.296 627C823.445 625.642 824.655 624.336 825.845 623.015L828.41 620.17C829.774 618.725 831.184 617.327 832.586 615.92L835.08 613.424C837.366 611.194 839.684 609.001 842.039 606.844C843.349 605.645 844.652 604.438 846 603.282L851 599.081C853.561 596.952 856.128 594.818 858.84 592.881L860.329 591.903L862 591M829 592L828 594L828 595L829.625 595.482L830 595.482L831.375 595.482L833 595L832 593L832 592L829 592M844 595L843 596L844 595M994 603L994 605L993 606L994.667 606.292L995.134 606.336L996.884 606.537L997.866 606.664L998.333 606.708L1000 607L999.787 608.645L999.71 610L999.755 610.886L999.75 611.355L1000 613L1001.75 611.657L1002.55 611.056L1002.85 610.792L1004 610L1005.67 611.318L1006.16 611.664L1007.16 612.406L1010 614.425L1015 618C1017.33 619.66 1019.64 621.35 1022 622.974C1026 625.731 1030.14 628.283 1034 631.236C1035.7 632.539 1037.37 633.89 1039 635.286L1044 639.718L1048 643.13L1051 645.729L1054 648.271L1057 650.866L1059 652.54L1065 657.211C1067.36 659.076 1069.69 660.99 1072 662.92L1075 665.428L1077 667.166C1078.67 668.684 1080.31 670.229 1082 671.715L1085 674.282L1090 678.718L1093 681.271L1097 684.729L1100 687.271L1105 691.565L1109 694.8L1113 698C1116.31 700.646 1119.58 703.339 1123 705.845C1124.64 707.047 1126.31 708.198 1128 709.329C1130.3 710.872 1132.63 712.364 1135 713.796C1137.31 715.191 1139.66 716.513 1142 717.85C1143.67 718.8 1145.31 719.779 1147 720.691L1150 722.244C1151.66 723.079 1153.32 723.906 1155 724.691C1156.32 725.306 1157.66 725.85 1159 726.421C1160.99 727.274 1162.97 728.167 1165 728.936L1168 729.996L1171 730.964L1173 731.522C1174.32 731.873 1175.66 732.126 1177 732.399L1181 733.196C1182 733.386 1182.99 733.58 1184 733.711C1185.99 733.969 1187.99 734.01 1190 733.995C1191.67 733.983 1193.34 733.939 1195 733.7C1196.35 733.505 1197.69 733.2 1199 732.84C1200.36 732.468 1201.72 732.04 1203 731.436L1205 730.356L1206.96 729.092L1207.84 728.502L1208.84 727.951L1209.33 727.638L1211 727L1212.01 728.671L1212.25 729.159L1212.79 730.16C1213.38 731.394 1213.94 732.651 1214.19 734.002L1214.36 736L1214.2 738L1213.9 740C1213.65 741.358 1213.35 742.702 1212.87 743.999L1212 745.985L1211.47 746.96L1210.2 748.815L1209.47 749.671L1207.81 751.196L1206.91 751.852L1204.99 752.911L1204 753.297L1203 753.581L1202 753.775L1200 753.956L1198 753.996L1195 754C1193.33 753.998 1191.67 754.002 1190 753.911C1188.99 753.856 1187.99 753.718 1187 753.561C1184.98 753.243 1182.98 752.782 1181 752.255C1179.65 751.895 1178.32 751.443 1177 750.996C1175.31 750.427 1173.64 749.829 1172 749.127C1170.64 748.547 1169.32 747.896 1168 747.244L1164 745.247C1161.66 744.076 1159.31 742.928 1157 741.688C1155.98 741.14 1154.99 740.543 1154 739.935C1152.31 738.89 1150.66 737.771 1149 736.667C1146.3 734.865 1143.6 733.053 1141 731.105C1139.31 729.837 1137.65 728.516 1136 727.199L1132 723.999C1128.63 721.29 1125.3 718.527 1122 715.728L1119 713.13L1114 708.845L1111 706.155L1106 701.834L1102 698.166L1097 693.831L1092 689.169L1087 684.83C1084.95 682.973 1083.03 680.975 1081 679.089C1080.02 678.178 1079.01 677.298 1078 676.424L1075 673.83C1072.95 671.973 1071.03 669.975 1069 668.089L1067 666.286L1063 662.831L1058 658.169L1053 653.834L1048 649.286L1044 645.92C1041.36 643.719 1038.71 641.537 1036 639.424C1034.35 638.138 1032.68 636.882 1031 635.63L1028 633.427C1026.03 632.021 1024.02 630.668 1022 629.344L1019 627.424L1016 625.576L1010 621.811L1003 617.576L999.001 615.05L995.089 612.576L993.286 611.323C992.443 610.715 991.616 610.082 990.739 609.523C989.226 608.557 987.603 607.8 986 607L986.144 605.708L986.144 604.602L986.144 604.292L986 603L984.347 603.806L983.909 603.989L983 605L981.329 604.339L980.841 604.099L979.84 603.65L977.995 602.723L976.147 601.649L974.603 600.387L973.604 598.948L973.315 598.055L973 596C974.343 596.029 975.71 595.986 977.045 596.184L979.005 596.518L980.002 596.761C981.356 597.144 982.7 597.56 984 598.104L986 599.031L986.998 599.569C988.277 600.294 989.535 601.05 990.84 601.729L992.329 602.412L994 603M824 597L823.518 598.625L823.518 599L823.518 600.375L824 602L826 601L827 601L827 598L826 598L824 597M857 597L856.518 598.625L856.518 600L856.518 600.375L857 602L859 601L860 601L860 598L859 598L857 597M978 598L977 599L977 601L978.389 600.889L979.333 600.333L979.667 599.722L979.889 599.389L980 598L978 598M851 603L850 605L850 606L851.625 606.482L853 606.482L853.375 606.482L855 606L854 604L854 603L851 603M846 608L845.518 609.625L845.518 610L845.518 611.375L846 613L848 612L849 612L848.653 610L848.585 609.494L848 608L846 608M983 614L983 616L982 617L983.67 617.252L984.154 617.26L985.136 617.319L986.864 617.356L987.846 617.485L988.33 617.498L990 618L989.355 619.645L989 621L988.931 621.886L988.849 622.355L989 624L990 623L992 623L991.685 621.506L991.542 621L991 619L992.671 619.732L993.159 620.019L994.16 620.555L997.005 622.323C998.682 623.381 1000.35 624.449 1002 625.554C1003.33 626.449 1004.63 627.4 1006 628.24C1007.3 629.039 1008.67 629.724 1010 630.474C1011.69 631.424 1013.36 632.403 1015 633.425C1017.72 635.113 1020.37 636.897 1023 638.72L1026 640.86C1028.01 642.301 1030.04 643.727 1032 645.235C1033.7 646.541 1035.36 647.898 1037 649.275L1041 652.729L1045 656.155L1049 659.718L1053 663.17L1059 668.83L1062 671.424C1063.01 672.298 1064.02 673.178 1065 674.089C1067.03 675.975 1068.95 677.973 1071 679.83L1076 684.17C1078.39 686.331 1080.61 688.669 1083 690.83L1088 695.169L1093 699.831L1098 704.166L1102 707.834L1107 712.155L1111 715.718L1115 719.13L1119 722.565L1123 725.803L1126 728.25L1130 731.576C1132.3 733.46 1134.62 735.323 1137 737.105C1139.28 738.813 1141.63 740.414 1144 741.999C1145.99 743.33 1147.97 744.675 1150 745.936C1151.64 746.954 1153.32 747.892 1155 748.85C1157.32 750.174 1159.61 751.536 1162 752.73C1164.29 753.874 1166.65 754.844 1169 755.85C1170.66 756.559 1172.3 757.306 1174 757.911C1176.29 758.723 1178.65 759.283 1181 759.873L1185 760.87C1186.32 761.189 1187.65 761.507 1189 761.7C1190 761.843 1190.99 761.908 1192 761.961L1194 761.996L1197 761.999L1200 761.957L1202 761.787L1204 761.362C1205.76 760.857 1207.42 760.025 1209 759.12C1210.72 758.134 1212.36 757.024 1213.82 755.672C1214.98 754.59 1215.96 753.347 1216.98 752.134L1218.35 750.61L1219.16 749.995L1219.53 749.654L1221 749L1221.18 750.671L1221.28 751.159L1221.43 752.16C1221.57 753.107 1221.75 754.049 1221.83 755.005C1221.97 756.673 1221.95 758.346 1221.67 760C1221.38 761.716 1220.84 763.419 1220.08 764.985L1219.01 766.906L1218.35 767.812L1216.79 769.442L1214.96 770.772L1213.98 771.312L1213 771.775L1212 772.161L1211 772.481C1210.01 772.752 1209.01 772.986 1208 773.191C1206.67 773.461 1205.34 773.672 1204 773.829L1202 773.961C1200.67 774.019 1199.33 774.007 1198 773.999L1195 773.961L1193 773.83C1191.66 773.72 1190.33 773.466 1189 773.27C1187.67 773.073 1186.32 772.924 1185 772.639C1183.64 772.345 1182.33 771.917 1181 771.501L1179 770.88L1176 769.922C1174.66 769.442 1173.32 768.93 1172 768.396C1170.66 767.854 1169.32 767.295 1168 766.691C1166.31 765.919 1164.66 765.076 1163 764.247C1161.33 763.41 1159.64 762.589 1158 761.688C1155.95 760.561 1153.98 759.3 1152 758.047L1148 755.485C1146.65 754.584 1145.33 753.642 1144 752.706C1142.32 751.522 1140.64 750.338 1139 749.105C1136.63 747.324 1134.32 745.454 1132 743.6L1127 739.565L1123 736.13L1118 731.845L1115 729.155L1110 724.834L1105 720.285L1101 716.845L1097 713.282L1093 709.845L1090 707.155L1085 702.845L1081 699.282L1077 695.87L1074 693.271L1071 690.729L1067 687.271L1063 683.845L1059 680.282L1056 677.729L1052 674.271L1048 670.87L1045 668.271L1042 665.729L1037 661.435L1031 656.576C1029 654.937 1027.04 653.257 1025 651.662L1021 648.627L1017 645.627C1014.35 643.638 1011.72 641.624 1009 639.722C1007.25 638.493 1005.45 637.325 1003.67 636.137L1002 635L1002.24 633.375L1002.24 632L1002.24 631.625L1002 630L1000.33 630.698L999.841 630.819L997.955 631.117L995.995 630.796L994 629.927C992.643 629.191 991.329 628.387 990 627.603L986.018 625.305C985.09 624.778 984.142 624.273 983.26 623.667L981.725 622.486C980.865 621.745 980.059 620.914 979.028 620.407C978.069 619.935 977.023 619.829 975.986 619.65L974.63 619.407L973 619L973.909 618.1L974.347 617.889L976 617L975 616L975 614L972 614L971.856 615.435L971.856 615.745L971.856 616.852L972 618L970.375 617.585L969 617.041L968.625 616.897L967 616L967.713 614.33L967.964 613.846C968.388 612.95 968.821 612.052 969.198 611.136L969.704 609.67L970 608L972.144 608.383L973.121 608.653L974.855 609.438L976.576 610.508L977.42 611.09L979.125 612.171C979.833 612.594 980.595 612.92 981.344 613.259L983 614M866 610L866.58 613L866.724 613.886L866.818 614.355L867 616L865 615.079L864 614.679L863.625 614.505L862 614L861.969 615.463L862.13 616.58L862.349 617.292L862.438 617.667L863 619L861.355 619.486L860.886 619.466L860 619.549L858.645 619.397L857 619L856.506 620.651L855.973 622.012L855.087 623.421L853.857 624.397L853.015 624.685L851 625L850.529 626.614L849.819 627.901L848.605 629.315L846.242 631.441C845.092 632.494 844.014 633.622 842.92 634.733C841.805 635.865 840.662 636.977 839.611 638.17C838.222 639.745 836.907 641.378 835.576 643.001L832.261 647C830.667 648.961 829.137 650.971 827.63 653C826.412 654.64 825.196 656.282 824.089 658C822.841 659.939 821.722 661.965 820.64 664L819.109 667L817.732 670C817.287 670.99 816.85 671.987 816.461 673C815.707 674.962 815.15 676.98 814.579 679C814.205 680.327 813.793 681.652 813.5 683C813.143 684.643 812.872 686.299 812.589 687.955L812.276 689.841L812.183 690.329L812 692L810.671 690.914L809.869 689.679L809.293 687.941L809.143 686.982L809.058 685.995C809.005 684.664 808.995 683.33 809.09 682C809.162 680.996 809.268 679.988 809.465 679C809.936 676.624 810.606 674.305 811.344 672C812.101 669.638 812.896 667.281 813.873 665C814.453 663.645 815.094 662.315 815.759 661C816.615 659.308 817.477 657.62 818.464 656C819.732 653.918 821.177 651.955 822.63 650C823.881 648.315 825.133 646.625 826.463 645C827.865 643.287 829.364 641.659 830.845 640.015L833.41 637.17L836.754 633.729C837.887 632.571 838.994 631.387 840.17 630.271L843.015 627.714L846 624.975L849 622.169C850.313 621.005 851.654 619.879 853 618.754L856 616.25L858.998 613.823L860.975 612.345L862.84 611.171L864.329 610.471L866 610M1005 614L1004 616L1004 617L1005.62 617.482L1006 617.482L1007.38 617.482L1009 617L1009 615L1007.51 614.415L1007 614.347L1005 614M993 626L993 628L994.625 628.482L996 628.482L996.375 628.482L998 628L998 626L996.375 625.518L995 625.518L994.625 625.518L993 626M967 630L966.518 631.625L966.518 632L966.518 633.375L967 635L969 634L970 634L969.653 632L969.585 631.494L969 630L967 630M883 634L883.482 635.625L883.482 637L883.482 637.375L883 639L884.625 639.138L886 638.883L886.375 638.826L888 638L889.667 638.718L890.14 638.982L891.896 639.945L893.394 640.954L894.006 641.566L894.346 641.839L895 643L893.375 642.585L892 642.041L891.625 641.897L890 641L889.225 642.554L888.26 643.742L886.772 644.95L885.892 645.472L884.956 645.947L882.998 646.792C881.738 647.312 880.455 647.783 879.16 648.209L878.159 648.492L877.671 648.643L876 649L875.091 647.989L874.653 647.806L873 647L872.809 648.484L872.528 649.674L871.88 650.958L870.792 651.901L869.598 652.258L868 652L867.225 653.558L866.26 654.781L864.772 656.12L862.956 657.386L859.999 659.2L856.005 661.557L855.025 662.094L853.16 663L851.671 663.571L850 664L851.039 662.727L851.403 662.508L852.098 661.978C852.637 661.69 853.205 661.477 853.78 661.276L855 661L854.754 659.402L855.149 658.208L856.158 657.12L857.482 656.472L858.645 656.191L860 656L860.315 653.985L860.603 653.143L861.579 651.913L862.988 651.027L864.349 650.494L866 650L865.754 648.402L866.149 647.208L867.158 646.12L868.482 645.472L869.645 645.191L871 645L871.315 642.985L871.603 642.143L872.579 640.913L873.988 640.027L875.349 639.494L877 639L877.069 637.473L877.352 637.117L877.766 636.354L879.138 635.292L880.863 634.551L881.334 634.373L883 634M961 636L960 638L960 639L961.625 639.482L962 639.482L963.375 639.482L965 639L965 637L963.506 636.415L963 636.347L961 636M972 636L971 638L971 639L972.625 639.482L973 639.482L974.375 639.482L976 639L976 637L974.506 636.415L974 636.347L972 636M983 636L982 638L982 639L983.625 639.482L984 639.482L985.375 639.482L987 639L987 637L985.506 636.415L985 636.347L983 636M879 641L878.518 642.625L878.518 643L878.518 644.375L879 646L880 646L882 645L882 642L881 642L879 641M956 641L955.518 642.625L955.518 643L955.518 644.375L956 646L958 645L959 645L958.653 643L958.585 642.494L958 641L956 641M967 641L966.518 642.625L966.518 643L966.518 644.375L967 646L968 646L970 645L969.653 643L969.585 642.494L969 641L967 641M978 641L977.518 642.625L977.518 643L977.518 644.375L978 646L979 646L981 645L980.653 643L980.585 642.494L980 641L978 641M989 641L988.518 642.625L988.518 643L988.518 644.375L989 646L990 646L992 645L991.653 643L991.585 642.494L991 641L989 641M917 647L916.969 648.463L917.13 649.58L917.349 650.292L917.438 650.667L918 652C915.667 652.002 913.324 651.948 910.998 652.17C909.994 652.266 909 652.432 908.002 652.573L906.025 652.796L904.16 652.8L902.671 652.581L901 652L900 654L900 655L898.329 655.198L897.843 655.315L896.844 655.515L894.156 656.249L893.157 656.506L892.671 656.647L891 657L891.603 655.808L891.826 654.773L891.826 654.227L891.603 653.192L891 652L892.671 651.396L893.159 651.304L894.16 651.032L895.045 650.834L897.005 650.3C898.333 649.914 899.634 649.435 900.975 649.09C902.087 648.805 903.204 648.545 904.329 648.316L906 648L905.917 649.542L905.889 649.932L906 651L909 651L910 650L909 649L909 647L917 647M950 647L949 649L949 650L950.625 650.482L951 650.482L952.375 650.482L954 650L953 648L953 647L950 647M961 647L960 649L960 650L961.625 650.482L962 650.482L963.375 650.482L965 650L964 648L964 647L961 647M972 647L971 649L971 650L972.625 650.482L973 650.482L974.375 650.482L976 650L976 648L974.506 647.415L974 647.347L972 647M983 647L982 649L982 650L983.625 650.482L984 650.482L985.375 650.482L987 650L987 648L985.506 647.415L985 647.347L983 647M993 650L994.222 649.639L995.139 648.722L995.472 648.389L996 647L994.778 647.361L993.861 648.278L993.528 648.611L993 650M890 652L889.75 653.645L889.755 654.114L889.71 655L889.787 656.355L890 658L888.344 658.058L887.88 658.132L886.125 658.495L885.261 658.803L884.42 659.185L881.83 660.529C880.568 661.154 879.281 661.728 877.996 662.303L875.005 663.611L874.025 663.944L872.16 664.319L871.159 664.311L869 664L869 662L870.67 661.65L871.154 661.606L872.136 661.485L873.864 661.376L874.846 661.286L875.33 661.265L877 661L876 660L876 658L877.671 657.339L878.159 657.099L879.16 656.651C881.093 655.716 883.005 654.732 884.975 653.876C886.078 653.397 887.195 652.947 888.329 652.546L890 652M956 652L955.518 653.625L955.518 654L955.518 655.375L956 657L957 657L959 656L959 653L958 653L956 652M967 652L966.518 653.625L966.518 654L966.518 655.375L967 657L968 657L970 656L969.653 654L969.585 653.494L969 652L967 652M978 652L977.518 653.625L977.518 654L977.518 655.375L978 657L980 656L981 656L980.653 654L980.585 653.494L980 652L978 652M989 652L988.415 653.494L988.347 654L988 656L989.272 655.365L989.445 655.063L989.992 654.005L989.873 653.369L989.862 653.025L989 652M950 658L949 660L949 661L950.625 661.482L952 661.482L952.375 661.482L954 661L953 659L953 658L950 658M961 658L960 660L960 661L961.625 661.482L963 661.482L963.375 661.482L965 661L965 659L963.506 658.415L963 658.347L961 658M972 658L971 660L971 661L972.625 661.482L974 661.482L974.375 661.482L976 661L975 659L975 658L972 658M983 658L982.806 660L982.73 660.506L983 662L984.33 660.96L984.562 660.641L985.393 659.522L986 658L983 658M868 663L867.759 664.625L867.759 665L867.759 666.375L868 668L866.37 668.576L865.009 669.211L863.4 670.134L860.83 671.823L855.999 675C854.678 675.867 853.359 676.739 852 677.547C851.018 678.131 850.02 678.697 849 679.214C848.009 679.717 847.02 680.221 846 680.662C844.707 681.221 843.381 681.693 842.025 682.073L840.16 682.532L839.159 682.709L838.671 682.813L837 683L837.552 681.33L837.809 680.846L838.265 679.864L839.817 677.154L840.117 676.67L841 675L842.671 674.898L844.16 674.671L846.025 674.214L848.002 673.56L851 672.395C852.702 671.702 854.383 670.977 856 670.1C858.06 668.982 860.003 667.658 861.995 666.427L864.84 664.711L865.841 664.149L866.329 663.861L868 663M945 663L944.518 664.625L944.518 665L944.518 666.375L945 668L946 668L948 667L948 664L946 663L945 663M956 663L955.518 664.625L955.518 665L955.518 666.375L956 668L958 667L959 667L959 664L958 664L956 663M967 663L966.518 664.625L966.518 665L966.518 666.375L967 668L968 668L970 667L970 664L969 664L967 663M978 663L977.415 664.494L977.347 665L977 667L978.653 665.653L979.091 665.326L980 664L978 663M950 669L949 671L949 672L950.625 672.482L952 672.482L952.375 672.482L954 672L953 670L953 669L950 669M961 669L960 671L960 672L961.625 672.482L963 672.482L963.375 672.482L965 672L964 670L964 669L961 669M972 669L972 671L973 671L974 669L972 669M934 674L933.518 675.625L933.518 676L933.518 677.375L934 679L936 678L937 678L937 675L936 675L934 674M945 674L944.518 675.625L944.518 676L944.518 677.375L945 679L947 678L948 678L948 675L946 674L945 674M956 674L955.518 675.625L955.518 676L955.518 677.375L956 679L958 678L959 678L959 675L958 675L956 674M939 680L938 682L938 683L939.625 683.482L940 683.482L941.375 683.482L943 683L942 681L942 680L939 680M950 682L951 682L953 681L952.25 680.306L951.222 680.333L950.694 680.694L950.361 680.861L950 682M922 686L922.909 686.585L923.347 686.653L925 687L924.091 686.415L923.653 686.347L922 686z"/>
</svg>
