<?xml version="1.0" encoding="UTF-8" standalone="no"?>
<svg
   width="1389"
   height="1285"
   version="1.1"
   id="svg1"
   sodipodi:docname="Alexa - copia.svg"
   xml:space="preserve"
   inkscape:version="1.3 (0e150ed6c4, 2023-07-21)"
   xmlns:inkscape="http://www.inkscape.org/namespaces/inkscape"
   xmlns:sodipodi="http://sodipodi.sourceforge.net/DTD/sodipodi-0.dtd"
   xmlns="http://www.w3.org/2000/svg"
   xmlns:svg="http://www.w3.org/2000/svg"><defs
     id="defs1"><inkscape:path-effect
       effect="powerclip"
       id="path-effect419"
       is_visible="true"
       lpeversion="1"
       inverse="true"
       flatten="false"
       hide_clip="false"
       message="Utilice la regla de relleno parimpar en el diálogo &lt;b&gt;Relleno y borde&lt;/b&gt; si el resultado no está aplanada después de convertir el recorte en trayectos." /><clipPath
       clipPathUnits="userSpaceOnUse"
       id="clipPath419"><path
         id="lpe_path-effect419"
         style="fill:#010101;stroke:none"
         class="powerclip"
         d="M 787.24032,530.34484 H 1234.5968 V 787.78788 H 787.24032 Z M 972,578 c 0.20799,2.61 0.198,6.284 1.98801,8.4 2.861,3.382 11.897,3.91 16.01199,6.089 12.81,6.785 24.06,16.041 36,24.167 43.35,29.498 77.59,71.934 124,97.035 12.15,6.571 25.98,12.455 40,12.305 5.59,-0.059 12.81,-1.044 15.1,-7.014 2.88,-7.473 -3.42,-17.702 -5.1,-24.982 -5.69,2.98 -9.36,7.737 -16,9.181 -29.05,6.317 -57.14,-18.29 -78,-34.981 -42.35,-33.88 -82.72,-70.304 -133.99999,-90.2 m -171,99 c 4.05399,-6.635 5.467,-15.039 9.312,-22 6.879,-12.45 17.493,-23.212 27.688,-32.961 5.068,-4.846 10.562,-9.352 16,-13.778 2.61199,-2.127 6.408,-4.187 7.883,-7.351 1.213,-2.605 0.234,-6.138 0.117,-8.91 -7.804,3.023 -14.997,10.299 -21,16.039 -12.906,12.341 -24.958,25.374 -33.85001,40.961 -5.124,8.982 -8.625,17.604 -6.14999,28 m 172,-81 c 1.042,6.307 8.932,8.482 14,11.424 12.488,7.252 25.12999,14.782 36.99999,23.011 33.68,23.349 62.01,54.014 93,80.695 13.57,11.68 27.3,23.251 43,32.008 10.6,5.914 22.74,10.863 35,10.862 7.09,0 14.22,-1.566 17.11,-9.001 0.94,-2.425 1.22,-5.416 1.42,-7.999 0.29,-3.698 -1.17,-6.659 -2.53,-10 -25.83,15.537 -53.82,0.384 -77,-13.601 -16.69,-10.067 -31.42,-23.408 -46,-36.244 -22.07,-19.429 -44.56,-39.779 -69,-56.156 -13.53,-9.064 -28.84299,-24.634 -45.99999,-24.999 m -2,12 c -1.38801,2.638 -2.313,5.099 -3,8 12.98,7.575 26.52599,13.412 38.99999,22.026 25.53,17.63 48.61,38.944 72,59.256 24.19,21.009 47.42,45.128 75,61.718 14.74,8.866 32.36,16.722 50,14.826 12.92,-1.388 21.31,-12.213 16,-24.826 -4.13,4.259 -7.34,9.012 -13,11.467 -4.67,2.026 -10.02,1.589 -15,1.529 -19,-0.227 -39.28,-12.871 -54,-23.891 -48.29,-36.161 -87.15,-82.83 -138.99999,-114.308 -9.164,-5.564 -18.06501,-11.66 -28,-15.797 m -107,2 c -18.588,14.984 -40.56101,32.332 -49.98801,55 -3.499,8.411 -7.205,18.286 -3.01199,27 3.533,-7.867 3.974,-17.013 7.78499,-25 9.952,-20.86 28.784,-38.899 48.21501,-51 -0.531,-2.69 -1.116,-4.02 -3,-6 m -14,54 c 6.552,-2.074 12.106,-6.54 18,-9.988 8.14099,-4.764 16.78099,-8.879 26,-11.012 -2.289,-3.505 -9.54,-9.115 -14,-8.002 -4.106,1.026 -8.048,5.223 -11,8.041 -6.79201,6.484 -13.68601,13.189 -19,20.961 z" /></clipPath></defs><sodipodi:namedview
     id="namedview1"
     pagecolor="#505050"
     bordercolor="#eeeeee"
     borderopacity="1"
     inkscape:showpageshadow="0"
     inkscape:pageopacity="0"
     inkscape:pagecheckerboard="0"
     inkscape:deskcolor="#505050"
     inkscape:zoom="0.63891051"
     inkscape:cx="692.58526"
     inkscape:cy="656.58648"
     inkscape:window-width="1920"
     inkscape:window-height="1017"
     inkscape:window-x="-8"
     inkscape:window-y="32"
     inkscape:window-maximized="1"
     inkscape:current-layer="svg1" /><path
     id="path2"
     clip-path="url(#clipPath419)"
     style="display:inline;fill:#000000;fill-opacity:1;stroke:none"
     d="m 917.71643,535.34666 c -8.10103,-0.0613 -16.22543,1.56359 -23.71679,4.96484 -10.84799,4.926 -19.63481,13.17946 -25.2168,23.68945 -2.639,4.967 -3.61793,12.33338 -7.29492,16.48438 -7.247,8.18099 -18.22429,14.51479 -26.48828,21.80078 -14.94199,13.17299 -28.96725,29.71486 -37.74024,47.71484 -6.52099,13.38099 -6.85999,25.65902 0,39 2.991,5.816 6.45324,11.918 13.74024,10 0.37899,3.391 3.17648,10.42111 7.39648,5.66211 2.217,-2.49999 1.54214,-6.60311 1.61914,-9.66211 0.126,-5.07799 1.10325,-10.172 2.65625,-15 4.861,-15.12198 14.20014,-26.88901 25.32813,-38 5.31099,-5.30299 10.893,-10.23519 17,-14.61718 1.67299,-1.199 6.45597,-4.75658 7.79296,-1.14258 0.784,2.12 -1.50703,3.93769 -2.83203,5.17969 -4.57499,4.28699 -9.56388,8.04508 -13.92187,12.58007 -12.40399,12.90999 -24.9269,28.19702 -31.58789,45 -2.71,6.837 -4.54564,16.77217 0.94336,22.78516 6.70099,7.34199 17.42347,5.02837 25.60547,1.98437 19.35998,-7.20299 35.96502,-19.72152 56,-25.47851 6.88399,-1.978 14.24241,-1.76238 20.9414,-3.60938 2.353,-0.648 4.39166,-2.85714 2.97266,-5.36914 -1.342,-2.37299 -4.57107,-2.26859 -6.91406,-2.30859 -6.909,-0.119 -13.39701,1.39211 -20,3.28711 -15.78999,4.53199 -29.42302,12.64808 -44,19.95508 -8.866,4.44399 -17.90201,9.1569 -28,6.7539 4.30299,-1.284 8.736,-1.4544 13,-3.0664 9.94199,-3.757 18.984,-9.61006 28,-15.12305 9.26599,-5.66499 18.54001,-9.98717 29,-12.95117 9.67899,-2.744 19.92601,-4.70555 30,-3.43555 3.05999,0.385 7.98089,1.15033 9.33789,-2.63867 1.11099,-3.103 -1.70443,-5.05259 -4.35743,-5.55859 -5.76099,-1.097 -13.15547,-0.61364 -18.98046,-0.0566 -12.43999,1.18799 -25.74702,4.61789 -37,10.08789 -10.43299,5.07199 -19.70602,12.17142 -30,17.48242 -5.86,3.02299 -18.67501,10.75775 -19,-0.74024 18.31598,-0.051 30.48001,-11.78519 46,-19.74218 16.01298,-8.209 34.08001,-12.26482 52,-12.25782 4.58699,0.002 10.54341,1.75802 14.9414,0.66602 2.815,-0.698 4.60955,-3.63252 2.43555,-6.10352 -4.431,-5.03499 -18.36396,-2.5725 -24.37695,-2.5625 -18.79799,0.03 -37.63302,6.43561 -54,15.3086 -9.874,5.35199 -19.50002,14.6814 -31,15.6914 4.68599,-8.01199 14.342,-8.92313 22,-13.45312 15.80298,-9.34999 30.61401,-17.83499 49,-21.08399 9.02199,-1.59399 18.851,-1.08442 28,-1.48242 5.69799,-0.249 6.33558,-3.88242 10.14257,-7.23242 3.153,-2.774 6.78037,-4.90285 9.81836,-7.83984 2.621,-2.534 5.0039,-7.19558 9.21289,-6.14258 5.105,1.278 10.16018,4.61824 14.82618,6.99023 14.67698,7.462 28.16996,17.59776 40.99996,27.84375 35.06,28.00997 67.5201,59.12553 102,87.8125 21.9,18.22098 55.4701,41.64717 86,33.82617 3.09,-0.79099 6.24,-1.99256 9,-3.60156 17.78,-10.37999 9.2014,-32.28473 2.8614,-46.63672 -5.75,-13.01498 -10.0313,-26.50601 -14.5313,-40 -2.06,-6.19299 -3.1406,-13.308 -6.3906,-19 -2.22,-3.88599 -5.5895,-6.76984 -8.5195,-10.08984 -8.78,-9.98299 -17.94,-18.46323 -28.42,-26.69922 -10.14,-7.96899 -28.6711,-17.88603 -40.1411,-23.82202 -2.9,-1.501 -4.7789,-1.8163 -3.9389,4.58569 0.39,2.929 -2.4128,2.13419 -0.083,3.23819 5.9,2.788 17.6528,8.33294 23.1628,11.83994 12.46,7.93199 24.61,17.45327 35,27.94726 8.89,8.99199 15.63,18.04602 14,31 -13.73,-23.27797 -34.17,-38.02626 -56,-53.28125 -5.42,-3.78499 -12.9895,-7.6731 -19.663,-10.42868 -2.5929,-1.07067 -5.1985,-0.0383 -4.7685,3.79966 0.58,5.23499 11.4815,8.60731 15.4315,11.2423 14.8,9.867 30.2201,20.20291 42.8301,32.8379 4.01,4.01699 8.2313,8.87508 11.0313,13.83007 1.09,1.923 2.2282,4.46949 0.4882,6.39649 -2.72,3.01499 -12.129,2.21232 -15.039,-0.13867 -2.19,-1.781 -2.5899,-4.80182 -3.6699,-7.25782 -1.58,-3.60199 -3.8706,-6.92809 -6.3106,-9.99609 -6.88,-8.64699 -17.1601,-15.92801 -26.3301,-22 -4.53,-3.001 -13.5073,-8.66944 -18.7173,-10.33843 -2.18,-0.7 -1.103,1.09201 -2.103,3.48101 -2.12,5.02499 -1.2894,2.77142 1.8206,4.74342 12.72,8.05899 37.1097,24.28111 43.9997,38.11009 -15.4899,-6.45099 -29,-17.39879 -42,-27.80078 -18.3799,-14.70798 -36.28,-30.03142 -55,-44.3164 -18.1499,-13.84699 -36.79,-26.35216 -57,-36.99414 -9.58896,-5.051 -20.56746,-8.00088 -29.89645,-13.42188 -6.78999,-3.947 -10.07719,-13.86897 -16.11719,-19.16797 -10.32999,-9.06311 -23.76781,-13.85089 -37.26953,-13.95312 z"
     transform="translate(0.952807,-0.796486)"
     inkscape:label="Cables"
     sodipodi:nodetypes="sccsccccsccscccccccscccccccccccccccccscccccccccsccccccccccssccccccsccccccccccccccccccss" /><g
     inkscape:groupmode="layer"
     id="layer1"
     inkscape:label="Core"
     style="opacity:0.5"><circle
       style="fill:#000000;fill-opacity:1;stroke:none;stroke-width:3.55007;stroke-linecap:round;stroke-linejoin:round;stroke-dasharray:none"
       id="path429"
       cx="918.34058"
       cy="590.24872"
       r="95.02475"
       inkscape:label="path" /></g></svg>
