<?xml version="1.0" standalone="yes"?>
<svg xmlns="http://www.w3.org/2000/svg" width="1389" height="1285">
<path style="fill:#020202; stroke:none;" d="M878 153C856.937 145.874 834.671 138.345 812 141.289C807.42 141.884 795.989 142.341 792.758 145.742C790.815 147.788 791.755 150.704 792.634 153C794.755 158.537 798.589 163.315 802.13 168C812.613 181.869 824.089 195.153 837 206.83C842.258 211.586 847.856 217.578 855 219C854.988 237.789 853.601 259.547 846.127 277C843.383 283.408 839.649 289.065 836.069 295C834.57 297.485 832.534 300.831 833.647 303.852C836.599 311.868 850.234 302.681 854 300C850.593 310.471 846.835 320.842 842.576 331C840.979 334.809 837.414 340.502 838.987 344.772C840.669 349.339 847.499 348.02 851 346.907C862.006 343.407 872.021 337.121 881 330C880.953 335.68 880.685 344.94 878.092 350C875.121 355.796 869.247 361.006 865.08 366C861.72 370.028 851.959 378.126 853.662 383.985C854.841 388.04 859.468 389.945 863 391.395C871.897 395.046 880.481 397.922 890 399.41C913.595 403.096 942.912 403.805 965 393.691C978.154 387.668 988.872 378.031 1000 369C998.705 373.56 996.256 378.342 995.586 383C994.671 389.37 1000.49 393.211 1006 390.431C1014.79 385.994 1022.81 377.623 1030 371C1027.23 385.702 1023.14 403.971 1011.67 414.698C1006.78 419.27 997.946 421.997 992 425.231C976.394 433.717 961.057 441.564 945 449.12C911.26 464.996 880.02 485.368 845 498.575C830.785 503.936 816.248 508.409 802 513.681C796.596 515.681 787.702 517.618 783.603 521.815C781.666 523.798 781.598 527.397 781.286 530C780.331 537.949 781.532 546.036 780.66 554.004C780.005 559.982 775.582 564.787 773 570C786.609 567.99 800.096 561.301 813 556.692C832.99 549.553 852.385 541.08 872 533.011C880.577 529.482 889.531 526.754 898 523C889.379 555.583 907.283 586.052 940 595C936.351 601.838 938.122 610.562 938.83 618C939.807 628.263 939.762 638.693 940.015 649C940.126 653.534 942.032 658.685 939.987 663C936.659 670.022 929.376 676.064 924.435 682C917.167 690.733 910.424 700.998 901.83 708.482C894.165 715.158 883.779 719.388 875 724.421C869.752 727.43 850.451 734.841 860.469 742.381C864.072 745.093 869.34 741.899 873 740.667C883.445 737.152 894.019 732.48 905 731C905.997 726.166 906.587 720.393 908.899 716C911.224 711.582 915.08 707.862 918.197 704C923.257 697.73 927.916 691.188 933.08 685C938.383 678.647 945.87 671.945 948.454 663.83C950.043 658.842 948.065 653.101 948.004 648C947.805 631.318 943.773 613.378 947 597C972.442 600.215 1000.71 594.083 1026 590.421C1032.06 589.543 1039.15 589.941 1044.95 588.057C1047.48 587.233 1050.02 585.183 1048.63 582.217C1047.41 579.591 1044.48 579.55 1042 579.798C1035.3 580.469 1028.71 582.196 1022 582.95C995.72 585.904 965.977 594.559 940 586.254C933.493 584.174 927.435 580.884 922 576.761C917.894 573.645 914.409 570.224 911.44 566C890.002 535.51 918.359 502.56 936.789 479C942.126 472.176 945.52 462.207 952.21 456.638C957.131 452.542 964.329 451.027 970 448.191C982.207 442.088 994.215 434.885 1006 428C1010.52 437.666 1017.37 447.438 1025.09 454.826C1027.72 457.349 1032.01 461.358 1035.96 461.172C1038.97 461.03 1041.04 458.122 1043.09 456.274C1047.89 451.955 1053.1 448.079 1058 443.87C1069.99 433.566 1082.29 423.545 1094 412.925C1100.5 407.032 1107.26 398.8 1115 394.603C1119.16 392.349 1124.68 394.729 1129 395.6C1141.05 398.029 1153.39 400.619 1165 404.691C1169.3 406.201 1176.82 406.862 1178.29 412.019C1179.6 416.599 1175.34 423.611 1174.04 428C1171.48 436.625 1171 445.078 1171 454C1178.26 453.805 1178.97 458.335 1181.81 464C1183.81 467.99 1186.91 471.158 1189.09 475C1191.27 478.855 1191.21 482.074 1195.02 484.96C1208.3 495.008 1222.94 504.025 1237 512.947C1243.5 517.071 1250.57 523.121 1258 525.351C1264.09 527.179 1270.84 525.511 1277 525.089C1286.09 524.467 1296.15 525.497 1305 524L1305 522C1274.63 501.237 1248.28 472.764 1224.42 445C1216.85 436.186 1209.66 427.075 1202.4 418C1198.83 413.534 1195.55 407.988 1190.96 404.499C1184.52 399.604 1174.72 397.653 1167 395.768C1154.64 392.752 1142.41 389.459 1130 386.651C1124.08 385.311 1116.19 384.497 1111 381.258C1097.68 372.947 1089.77 352.885 1084 339C1093.14 338.975 1121.03 340.218 1110 325C1117.58 325 1125.45 325.6 1133 324.829C1135.61 324.563 1139.45 324.189 1140.95 321.686C1143.63 317.236 1137.88 314.107 1135 312.026C1129.75 308.236 1124.5 303.743 1120.09 298.996C1118.43 297.207 1115.78 294.71 1115.97 292.015C1116.28 287.561 1123.94 283.49 1127 280.869C1138.59 270.942 1149.57 260.371 1161 250.286C1164.76 246.967 1176.48 238.589 1172.78 232.319C1170.25 228.036 1161.73 231.635 1158 232.246C1142.12 234.846 1127.79 232.678 1112 232C1116.39 229.567 1121.26 229.042 1126 227.481C1132.53 225.329 1138.53 222.141 1144 217.999C1146.91 215.797 1153.8 211.927 1150.95 207.318C1148.47 203.301 1141.57 206.247 1138 206.711C1125.49 208.336 1113.96 206.198 1102 203C1106.83 200.457 1112.18 199.243 1117 196.677C1128.66 190.474 1137.95 179.988 1141.1 167C1142.47 161.357 1141.61 155.708 1142 150C1132.63 150.481 1124.76 154.806 1115 153.829C1090.17 151.346 1067.75 133.905 1047 121.603C1041.14 118.13 1035.23 114.635 1029 111.861C1025.32 110.224 1020.56 109.037 1017.99 105.725C1014.44 101.133 1013.06 94.2688 1010.69 89C1005.01 76.3507 998.971 63.8889 991.796 52C988.891 47.1869 984.773 37.4271 978.976 35.662C975.145 34.4952 973.19 38.2673 971.579 41.0046C967.036 48.7286 963.16 56.9357 959.258 65C954.545 74.7416 950.275 84.8864 946.424 95C944.794 99.2833 943.62 106.191 940.298 109.477C938.345 111.407 935.491 111.04 933 111.542C928.545 112.438 924.114 114.424 920 116.309C904.119 123.586 885.929 137.082 878 153M979 48C993.612 70.0825 1005.88 95.5002 1013.14 121C1014.89 127.132 1021.69 141.852 1016.68 147.112C1008 156.231 999.734 153.115 989 150.651C972.961 146.971 956.847 143.464 941 139C942.059 131.83 945.038 124.859 947.333 118C952.448 102.711 958.541 87.6639 965.231 73C969.004 64.7297 972.211 54.2719 979 48M872 160C870.874 166.318 867.332 172.02 865.064 178C861.1 188.452 857.883 199.829 857 211C840.912 202.787 827.493 185.866 816.4 172C811.34 165.676 805.621 159.271 802 152C826.479 147.388 848.784 152.145 872 160M990 230C996.985 240.689 1002.33 257.424 997.437 269.995C995.767 274.285 987.307 277.339 987.921 281.897C988.416 285.564 994.136 286.767 997 287.652C1007.76 290.976 1017.42 288.022 1027 283C1026.51 293.648 1020.67 304.022 1012 310.211C1007.9 313.136 999.57 314.457 997.238 319.212C995.437 322.883 999.09 325.66 1002 327.081C1008.82 330.403 1017.54 330.979 1025 331C1020.03 338.062 1013.1 343.901 1007 350C991.856 365.144 974.805 381.861 954 388.642C936.695 394.282 914.857 394.007 897 391.575C893.923 391.156 889.055 391.263 887.024 388.486C883.136 383.17 887.92 369.242 877.025 370.573C875.328 370.781 873.618 371.488 872 372C881.565 357.54 894.36 344.752 904.989 331C906.804 328.652 916.929 317.021 908.977 315.921C904.138 315.253 898.591 326.245 895 329C883.688 310.654 874.061 291.127 874 269C882.58 270.659 889.158 277.856 894.911 283.999C897.893 287.184 901.143 292.145 905.999 292.377C911.031 292.618 914.562 286.659 916.91 283C923.648 272.498 927.259 260.037 930.116 248C930.939 244.532 930.87 236.408 934.434 234.603C941.432 231.059 954.493 234.96 959.468 240.329C961.866 242.917 963.163 248.392 967.055 249.122C969.863 249.648 972.86 247.287 975 245.79C981.268 241.406 984.656 235.138 990 230M958 259.642C945.974 262.969 939.765 276.675 938.289 288C937.802 291.744 936.267 305.912 943.791 303.338C948.633 301.681 947.097 295.746 947.262 292C947.427 288.272 948.732 284.346 950.328 281C952.549 276.345 956.204 272.195 961 270.089C963.211 269.117 966.531 269.32 968.214 267.397C973.287 261.601 961.852 258.576 958 259.642M165 629C168.246 642.634 163.182 656.687 165.83 670.424C166.545 674.134 164.958 678.341 168 681C167.336 683.89 166.69 685.953 169 688C168.424 690.655 167.948 692.152 170 694C169.385 696.461 169.105 697.318 171 699C170.385 701.461 170.105 702.318 172 704C171.547 706.208 171.354 706.551 173 708C172.547 710.208 172.354 710.551 174 712C173.547 714.208 173.354 714.551 175 716C174.547 718.208 174.354 718.551 176 720C175.547 722.208 175.354 722.551 177 724C176.458 726.17 176.16 725.901 178 727C177.547 729.208 177.354 729.551 179 731C178.458 733.17 178.16 732.901 180 734C179.458 736.17 179.16 735.901 181 737C180.458 739.17 180.16 738.901 182 740C181.458 742.17 181.16 741.901 183 743C182.458 745.17 182.16 744.901 184 746C183.458 748.17 183.16 747.901 185 749C184.697 751.682 184.793 752.428 187 754C186.697 756.682 186.794 757.428 189 759C188.697 761.682 188.793 762.428 191 764C190.609 767.347 191.151 769.107 194 771C192.123 774.754 194.634 776.634 197 779L196 780L198 780C196 784 199.477 787.477 202 790L201 791L203 791L202 793L204 793C203.662 794.672 203.463 794.31 205 795C204.673 798.22 205.192 799.36 208 801C207.662 802.672 207.463 802.31 209 803L208 805L210 805L209 807L211 807L210 809L212 809C211.972 813.124 213.384 815.948 217 818C217.135 821.247 217.784 822.393 221 823C222.449 824.646 222.792 824.453 225 824C226.099 825.84 225.83 825.542 228 825C229.449 826.646 229.792 826.453 232 826C233.449 827.646 233.792 827.453 236 827C237.449 828.646 237.792 828.453 240 828C241.449 829.646 241.792 829.453 244 829C245.449 830.646 245.792 830.453 248 830C249.682 831.895 250.538 831.615 253 831C254.682 832.895 255.538 832.615 258 832C259.449 833.646 259.792 833.453 262 833C265.111 836.843 273.081 837.097 276 833C278.17 833.542 277.901 833.84 279 832C281.682 832.303 282.428 832.207 284 830C286.682 830.303 287.428 830.207 289 828C292.422 829.711 292.796 828.204 295 826L296 827L296 825C299.754 826.877 301.634 824.366 304 822L305 823L305 821C309 823 312.477 819.523 315 817L316 818L316 816C320.203 818.102 325.324 813.676 328 811L329 812L329 810C333.384 812.192 340.173 806.827 343 804L344 805L344 803L346 804L346 802L348 803L348 801L350 802L350 800L352 801L352 799L354 800L354 798L356 799L356 797L358 798L358 796L360 797L360 795L362 796L362 794L364 795L364 793C368.133 794.378 374.142 789.858 377 787L378 788L378 786C380.682 786.303 381.428 786.207 383 784C386.422 785.711 386.796 784.204 389 782L390 783L390 781L392 782L392 780C397.17 779.098 400.574 774.102 401 769C404.442 767.11 405.907 764.928 406 761C408.477 759.549 408.896 758.861 409 756C417.177 751.338 411.411 741.508 405 738C405.045 732 400.093 721.336 395 718C396.711 714.578 395.204 714.204 393 712L394 711L392 711C392.542 708.831 392.84 709.099 391 708C391.303 705.318 391.207 704.572 389 703C389.542 700.83 389.84 701.098 388 700C388.542 697.83 388.84 698.099 387 697C387.542 694.83 387.84 695.099 386 694C386.542 691.83 386.84 692.098 385 691C385.542 688.83 385.84 689.099 384 688C384.453 685.792 384.646 685.449 383 684C383.542 681.83 383.84 682.099 382 681C382.453 678.792 382.646 678.449 381 677C381.87 672.932 381.396 667.743 378 665C378.453 662.792 378.646 662.449 377 661C377.453 658.792 377.646 658.449 376 657C376.615 654.538 376.895 653.682 375 652C376.717 646.136 374.992 639.969 374.285 634C373.344 626.044 373.226 617.975 372.285 610C371.85 606.306 373.135 600.512 370.397 597.563C367.366 594.3 360.194 593.565 356 593C353.654 563.276 349.345 533.808 348.039 504C345.701 450.596 352.699 395.408 367.29 344C372.771 324.689 378.278 305.053 387.248 287C389.126 283.219 398.248 272.141 391.848 269.137C389.412 267.993 387.027 269.627 385 270.839C380.317 273.641 375.572 276.36 371 279.344C350.658 292.623 332.202 307.689 314 323.714C257.861 373.139 217.125 441.886 195.025 513C189.586 530.502 183.921 548.676 182.17 567C181.114 578.054 182.946 589.009 182.999 600C183.019 604.04 183.833 609.278 181.972 613C178.757 619.431 170.809 625.028 165 629M377 286C374.56 299.729 367.193 313.588 363.025 327C355.231 352.082 349.449 378.051 345.424 404C340.816 433.717 337.722 464.924 339.039 495C339.955 515.916 342.942 537.082 343 558C335.818 554.427 329.531 549.504 322 546.453C312.615 542.651 302.743 541.4 293 539L293 537C298.517 535.641 309.778 535.182 311.168 527.985C313.002 518.495 296.028 520.659 296.649 511.982C297.581 498.951 300.543 481.958 306.109 470.089C308.238 465.55 313.021 462.984 314.427 458C315.327 454.807 315.291 439.812 309.129 442.256C304.174 444.221 306.724 452.009 305.682 455.911C304.874 458.937 302.17 460.934 300 463C293.033 458.644 296.912 451.911 292.44 446.272C290.1 443.322 286.664 444.628 285.759 448.048C285.01 450.879 286.294 454.27 287 457C282.189 456.794 269.453 458.681 271.158 450.995C271.973 447.324 276.154 443.926 275.748 440.059C275.44 437.13 272.461 436.226 270.181 437.662C265.137 440.838 261.405 449.209 262.333 455C262.937 458.777 264.876 462.1 264.917 466C265.012 474.894 261.092 484.29 259.46 493C258.447 498.405 258.713 504.688 256.772 509.853C254.347 516.302 242.833 514.119 241.377 523C240.277 529.707 248.884 533.523 254 535C252.145 540.589 243.139 539.723 238 540.586C227.552 542.343 216.683 544.915 207 549.312C202.117 551.53 197.914 554.934 193 557C193.702 548.177 196.455 539.483 198.86 531C203.574 514.367 209.18 498.051 215.6 482C237.881 426.3 271.688 376.373 315 334.961C333.725 317.057 354.231 298.676 377 286M887.214 295.029C884.333 296.72 881.086 303.384 885.319 305.383C887.67 306.493 890.375 305.332 892.7 306.772C895.858 308.729 898.958 315.724 903.682 312.928C906.993 310.969 905.388 306.532 903.852 304C900.881 299.104 893.671 291.236 887.214 295.029M1107 297C1112.11 303.703 1118.3 309.893 1125 315C1118.46 318.919 1110.2 316.007 1103 317.148C1099.34 317.729 1097.05 320.171 1097.89 323.976C1098.28 325.719 1099.25 327.398 1100 329C1093.81 329.266 1087.02 329.567 1081 331C1078.93 326.191 1077.99 321.123 1077 316C1087.09 310.026 1096.54 302.203 1107 297M347.995 313.902C343.64 315.202 339.55 319.177 336 321.884C326.812 328.892 318.005 336.624 310.04 345C308.278 346.853 298.265 359.487 306.965 359.248C311.048 359.136 315.397 351.639 318.004 349C324.888 342.033 332.26 335.433 340 329.425C343.853 326.434 349.567 323.758 352.377 319.701C354.802 316.199 351.93 312.727 347.995 313.902M1069 320C1070.54 327.442 1076.15 336.766 1073 344C1070.43 341.044 1070.59 336.056 1067.57 333.623C1063.65 330.461 1056.15 335.948 1055.22 340.043C1054.01 345.349 1058.46 351.656 1059 357C1052.98 355.24 1054.49 346.177 1049.8 342.407C1046.7 339.911 1043.33 342.266 1043.71 346.005C1044.25 351.417 1047.81 356.659 1049 362C1046.33 362.851 1043.77 363.59 1041 364C1037.92 356.732 1038.9 348.676 1037.68 341C1037.14 337.629 1035.53 334.272 1038.33 331.433C1040.99 328.745 1045.54 328.547 1049 327.572C1055.9 325.624 1062.39 322.713 1069 320M1029 341L1030 361C1020.91 365.213 1014.94 374.389 1006 379C1007.84 373.219 1007.56 366.509 1009.6 361C1012.31 353.692 1022.77 345.392 1029 341M1079 350C1082.35 355.74 1085.25 360.387 1083 367C1081.6 365.373 1080.18 363.243 1077.94 362.743C1074.17 361.897 1068.57 366.324 1067.99 370.015C1067.15 375.397 1072.77 378.167 1068 383C1066.49 379.77 1064.73 375.631 1061.79 373.427C1059.67 371.831 1056.49 372.091 1055.88 375.113C1054.97 379.63 1060.46 383.41 1060.29 387.96C1060.2 390.606 1058.01 392.212 1055.98 393.532C1051.68 396.326 1043.47 401.286 1038.13 399.218C1031.05 396.475 1035.97 386.002 1037 381C1037.43 378.89 1037.51 376.232 1038.56 374.318C1040.44 370.914 1049.43 370.892 1053 369.218C1063.14 364.468 1070.87 357.505 1079 350M294.282 365.047C290.418 367.103 285.181 373.788 283.963 377.985C283.058 381.101 285.478 384.379 288.842 382.863C292.6 381.17 297.937 373.831 299.239 370.005C300.432 366.499 298.043 363.046 294.282 365.047M1091 371C1094.91 378.011 1100.37 383.366 1106 389C1104.16 391.447 1102.76 392.701 1100 394C1098.01 390.977 1095.33 385.748 1091.82 384.323C1087.59 382.61 1077.98 389.732 1077.53 394.04C1076.92 399.942 1083.05 404.954 1083 411C1079.69 408.831 1076.1 396.911 1071.18 399.832C1068.39 401.482 1069.29 404.583 1070.25 407C1072.04 411.469 1075.71 416.173 1071.81 420.421C1064.31 428.577 1054.51 435.483 1046 442.565C1043.25 444.855 1038.87 449.712 1035 449.669C1029.91 449.612 1025.06 441.6 1022.38 438C1020.07 434.897 1015.67 430.161 1015.98 426C1016.21 423.044 1018.79 420.319 1020.41 418C1023.31 413.852 1026 409.651 1028 405C1032.42 406.261 1036.28 408.122 1041 407.956C1054.8 407.472 1069.02 395.705 1077.83 385.999C1082.28 381.098 1085.87 375.177 1091 371M810 401C807.365 399.768 804.664 398.726 802 397.562C800.127 396.743 798.077 395.328 796.004 395.132C791.863 394.741 788.019 400.134 789.393 403.981C791.886 410.96 801.178 410.405 805.941 406.586C807.939 404.984 808.942 403.248 810 401M780 400C774.858 405.087 773.058 408.055 776 415L785 412L780 400M796 417C798.828 420.931 804.578 423.75 806.397 428.174C809.088 434.722 803.888 442.277 797.996 444.772C788.781 448.674 773.538 445.771 764 444C768.976 454.123 781.634 452.683 791 451.802C793.804 451.539 796.321 452.648 799 451.333C802.007 449.856 807.174 446.504 808.972 443.621C810.337 441.433 809.996 438.46 810 436C810.015 426.758 806.625 417.345 796 417M768 418L768 420L770 420L770 418L768 418M295.21 419.89C290.623 421.241 293.349 428.024 297.686 426.338C301.444 424.877 299.021 418.768 295.21 419.89M1110 421C1111.64 430.05 1119.81 431.4 1126 425C1120.71 423.499 1115.49 421.48 1110 421M788.004 423.252C780.904 424.64 779.691 433.358 784.88 437.486C787.105 439.256 790.326 439.207 792.996 438.656C805.027 436.175 796.179 421.655 788.004 423.252M808 425L807 426L808 425M773 426C769.022 429.278 768.06 431.917 768 437L775 438C774.271 434.071 774.528 429.641 773 426M818 429C817.401 432.225 816.144 436.569 817.603 439.721C819.781 444.426 830.255 443.93 833.771 441.258C838.036 438.016 836.376 433.367 831.956 431.563C830.063 430.791 828.002 430.44 826 430.084C823.337 429.611 820.694 429.213 818 429M1129 439C1133.91 439.037 1138.19 439.172 1143 438C1138.44 431.607 1129.35 428.482 1129 439M832 432L831 433L832 432M1094 434C1096.14 438.093 1098.6 440.501 1103 442C1103.89 439.958 1104.54 438.172 1105 436L1094 434M760 437L759 439L761 439C761 437.147 761.3 437.65 760 437M1153.67 438.333C1153.22 438.777 1154.28 438.723 1154.33 438.667C1154.78 438.222 1153.72 438.278 1153.67 438.333M1110 443C1110.78 445.489 1111.82 447.672 1113 450C1116.97 448.979 1120.25 446.635 1124 445C1119.63 441.411 1115.25 441.354 1110 443M1135 451C1135.74 456.502 1137.75 461.616 1139 467L1148 469C1147.38 461.174 1147.81 452.619 1146 445C1141.29 445.754 1138.73 448.265 1135 451M1153 472L1159 474C1159.32 466.472 1161.42 458.532 1160.93 451.019C1160.73 448.074 1157.82 444.35 1155.03 447.747C1153.4 449.73 1153.94 453.629 1154.04 456C1154.3 462 1154.83 466.145 1153 472M755 463C757.546 462.253 765.282 457.284 761.343 453.89C756.628 449.829 754.55 460.367 755 463M1130 473L1134 471C1131.88 466.857 1130.39 456.489 1126.49 454.072C1123.07 451.948 1119.86 455.692 1120.79 459.015C1122.17 464.002 1127.02 468.841 1130 473M780 471C780 468.417 780.288 465.612 779.852 463.059C779.364 460.202 777.689 459.332 774.981 458.904C770.488 458.196 766.691 459.558 764.859 464.015C763.168 468.13 764.866 473.663 770.005 473.476C773.275 473.357 776.776 471.674 780 471M786 460C786.052 462.528 786.278 464.582 787 467C791.228 465.859 792.658 464.397 793 460L786 460M1091 467C1094.31 467.431 1096.96 468.652 1100 470L1103 462C1098.15 462.209 1093.5 462.456 1091 467M1172 463C1170.83 466.689 1168.56 471.852 1169.41 475.776C1170.73 481.866 1178.48 480.493 1182 478C1179.23 473 1175.99 468.396 1174 463L1172 463M283 467L278 466C280.3 465.084 281.377 465.121 283 467M1083 465C1080.99 466.584 1079.54 467.967 1078 470C1080.11 470.644 1081.8 470.906 1084 471C1083.95 468.747 1083.87 467.052 1083 465M1124 478C1122.47 475.822 1120.87 473.897 1118.98 472C1117.74 470.748 1116.47 469.327 1115 468.323C1105.79 461.991 1107.62 479.471 1116 481.172C1118.94 481.768 1121.71 479.485 1124 478M280 475L279 485L270 485C270.832 480.965 271.678 476.898 273 473L280 475M782 477C783.054 481.279 783.811 485.595 784 490C788.775 488.659 791.659 485.775 793 481C790.098 479.386 788.933 478.192 788 475C785.854 475.504 784.022 476.119 782 477M1153 530C1153.83 526.495 1154.95 523.071 1156.97 520.039C1159.3 516.542 1162.82 514.643 1161.71 509.996C1159.73 501.685 1158.93 489.499 1154.7 482.108C1147.77 469.999 1134.7 478.737 1127 484.025C1124.54 485.716 1120.55 487.626 1119.12 490.376C1117.08 494.306 1121.31 501.284 1122.68 505C1125.34 512.193 1128.91 524.022 1136.04 527.987C1140.88 530.673 1147.68 530 1153 530M1044 476.444C1031.91 478.103 1020.25 480 1008 480C1002.5 480 993.213 478.869 988.394 482.027C986.089 483.538 985.362 486.428 985.105 489C984.462 495.423 984.112 503.606 985.148 509.981C985.596 512.734 987.11 514.572 990.019 514.747C995.178 515.058 1001.52 510.974 1006 508.752C1016.42 503.577 1026.87 498.149 1037 492.424C1041.39 489.942 1046.54 487.73 1049.77 483.674C1053.83 478.579 1048.92 475.768 1044 476.444M294 477C293.807 481.436 292.59 485.62 292 490L287 488C287.69 482.878 288.263 477.949 294 477M776 491C776.308 489.179 776.397 487.831 776.251 485.976C776.107 484.159 776.301 481.275 774.972 479.833C771.252 475.796 759.821 483.328 764.619 488.258C767.069 490.776 772.734 490.222 776 491M1163 484C1163.1 488.706 1163.63 493.501 1165 498L1167 498C1171.86 491.127 1172.7 485.765 1163 484M276 494L276 498C272.798 497.416 270.816 496.742 269 494L276 494M732 575C739.579 559.504 756.402 547.146 774 547C771.878 530.213 776.85 514.827 782 499C775.903 497.197 769.242 497.592 763 496.101C760.427 495.486 756.966 493.743 754.39 495.121C752.006 496.397 750.846 499.784 749.573 502C746.863 506.713 743.997 511.339 741.2 516C736.74 523.432 732.176 530.812 727.33 538C724.786 541.775 720.961 545.615 719.565 550C716.603 559.301 723.62 571.377 732 575M286 496L289 499L285 500C285.174 498.315 285.317 497.506 286 496M266 512L266 505C274.444 506.276 275.086 511.892 266 512M288 508L288 514L282 513C282.827 509.205 284.171 508.304 288 508M272 520L271 528L264 528C264.075 521.699 265.699 520.075 272 520M1161 527L1162 528C1166.45 526.99 1169.65 528.108 1174 529L1176 523C1169.32 521.622 1164.71 520.078 1161 527M255 522L255 526L250 525L250 523L255 522M280 529C280.028 528.155 279.931 526.791 280.148 525.898C281.824 518.995 289.03 525.831 283.012 528.566C282.181 528.943 280.811 528.907 280 529M1303 523.333C1303.77 523.333 1303.16 523.831 1302.67 523.667L1303 523.333M300 526C298.352 526.924 296.825 527.449 295 528C295.683 524.877 297.087 525.5 300 526M1339 561C1325.51 567.895 1311.37 564.653 1300 554.79C1292.58 548.354 1288.42 541.133 1293 532C1276.73 532 1260.3 534.382 1244 532.83C1233.97 531.875 1223.99 530.71 1214 529.271C1205.58 528.058 1193.25 523.932 1185.1 527.264C1180.27 529.241 1176.15 539.817 1180.6 543.914C1183.15 546.254 1187.83 546.894 1191 548.053C1198.73 550.876 1206.4 553.873 1214 557.011C1242.49 568.766 1270.37 582.998 1301 588.385C1305.5 589.177 1311.49 590.46 1316 589.595C1328.55 587.19 1342.1 574.017 1339 561M1161 536C1161.4 537.305 1161.64 538.689 1162.46 539.831C1163.01 540.609 1163.56 541.454 1164.39 541.977C1171.59 546.504 1172.88 534.963 1165.04 534.747C1163.62 534.708 1162.26 535.499 1161 536M1128 535C1124.92 539.307 1122.64 544.091 1118.91 547.911C1116.77 550.095 1112.66 552.468 1112.75 555.956C1112.89 561.281 1119.37 559.474 1122 557.566C1128.16 553.096 1132.9 546.262 1135 539L1128 535M269 537C266.948 537.874 265.253 537.953 263 538C265.052 537.126 266.747 537.047 269 537M284 537C282.231 537.779 280.964 537.912 279 538C280.769 537.221 282.036 537.088 284 537M1092 733C1077.28 734.87 1061.95 737.938 1048 743.053C1041.11 745.581 1034.76 749.187 1028 752C1037.87 760.175 1051.84 765.032 1063 771.427C1084.19 783.577 1104.68 797.131 1126 809C1121.52 789.48 1114.27 770.531 1106.8 752C1104.56 746.448 1103.59 735.696 1099 732C1100.21 726.175 1097.35 719.844 1096.44 714C1095.54 708.255 1096.21 701.733 1097.07 696C1099.09 682.454 1109.02 668.905 1108 655C1110.7 652.823 1111.25 649.253 1112.33 646L1119.33 625C1125.65 606.036 1133.18 587.56 1140.6 569C1144.16 560.089 1150.15 550.623 1151 541C1148.29 540.505 1145 539.495 1142.7 541.607C1139.89 544.189 1138.75 549.571 1137.28 553C1133.03 562.898 1129.2 572.997 1125.2 583C1114.04 610.905 1105.02 640.179 1096.58 669C1093.56 679.313 1088.42 690.266 1087.34 701C1086.36 710.716 1088.59 723.901 1092 733M1301 541C1302.84 547.331 1307.88 546.436 1313 549C1316.14 550.572 1318.39 553.353 1321.42 554.986C1323.3 555.992 1326.73 556.425 1328.17 554.397C1330.18 551.569 1325.9 548.082 1323.98 546.61C1317.26 541.442 1309.28 539.031 1301 541M254 547C254 553.986 256.194 565.347 253.397 571.787C251.966 575.081 247.736 576.277 245.185 578.529C237.95 584.919 240.771 590.968 245 598C231.171 596.214 215.582 592.136 204 584.096C199.284 580.822 193.394 575.379 195.746 569C197.955 563.009 204.588 559.789 210 557.309C223.799 550.985 239.081 548.885 254 547M269 547C268.021 552.273 267.705 557.665 267.169 563C266.761 567.056 267.306 570.486 263 572L262 547L269 547M283 547C282.627 555.693 281.006 564.276 281 573C279.278 572.866 277.19 572.99 276.038 571.397C274.56 569.353 275.609 566.266 275.831 564C276.386 558.335 276.996 552.697 277 547L283 547M300 596C301.038 590.129 299.878 585.747 295.675 581.3C293.714 579.224 290.836 577.612 289.782 574.826C288.849 572.361 289.73 569.526 289.911 567C290.368 560.623 291.198 554.343 292 548C305.479 549.065 320.801 553.139 332 560.904C335.842 563.568 341.658 568.056 342.458 573C343.224 577.736 338.361 581.881 334.999 584.39C325.627 591.387 311.603 595.501 300 596M739 579C752.665 577.884 768.657 568.6 773 555C769.826 555.002 766.054 554.549 763.184 556.179C759.059 558.523 756.953 563.595 752.996 566.347C746.522 570.849 740.682 569.715 739 579M249 588C254.959 586.847 258.955 581.575 265 581.059C272.607 580.409 280.863 581.003 286.981 585.964C288.899 587.519 292.045 589.937 290.824 592.79C289.394 596.133 284.101 596.83 281 597.384C271.414 599.098 254.449 596.929 249 588M192 585C216.814 606.47 251.711 609.382 283 607.089C296.37 606.109 310.373 604.325 323 599.575C331.443 596.398 338.393 591.695 346 587C348.496 597.453 348.299 608.423 350.081 619C350.942 624.109 353.564 630.848 352.397 636C351.3 640.842 346.676 644.95 344 649C341.007 648.364 339.474 648.188 337 650C334.921 649.964 334.724 649.945 333 651C330.921 650.964 330.724 650.944 329 652C326.921 651.964 326.724 651.945 325 653C322.921 652.964 322.724 652.944 321 654C318.921 653.964 318.724 653.944 317 655C314.921 654.964 314.724 654.944 313 656C310.921 655.964 310.724 655.945 309 657C305.912 656.739 304.368 656.999 302 659C299.921 658.964 299.724 658.945 298 660C295.921 659.964 295.724 659.945 294 661C291.05 660.017 290.378 659.513 291 662C288.921 661.964 288.724 661.945 287 663C284.921 662.964 284.724 662.944 283 664C280.921 663.964 280.724 663.945 279 665C276.921 664.964 276.724 664.945 275 666C272.921 665.964 272.724 665.945 271 667C268.921 666.964 268.724 666.945 267 668C264.608 667.701 263.956 667.68 262 669C259.921 668.964 259.724 668.945 258 670C255.722 669.844 254.902 669.844 253 671L249 670L249 672L239 672C239.54 674.24 239.81 676.069 241 678C240.964 680.079 240.945 680.276 242 682C241.964 684.079 241.944 684.276 243 686C243.177 687.645 243.141 687.647 244 689C243.569 693.766 244.819 698.392 248 702C248.177 703.645 248.141 703.647 249 705C241.924 713.395 240.05 702.594 236 698C235.823 696.355 235.859 696.353 235 695C234.823 693.355 234.859 693.353 234 692C234.261 688.912 234.002 687.368 232 685C232.036 682.921 232.056 682.724 231 681C231.802 678.594 232.385 678.309 231 676L230 677C230.231 674.874 230.246 673.121 230 671L227 672C224.736 669.794 223.157 669.175 220 669C217.736 666.794 216.157 666.175 213 666C210.736 663.794 209.157 663.175 206 663C205.274 660.821 205.561 661.22 204 662C201.736 659.794 200.157 659.175 197 659C196.274 656.821 196.561 657.22 195 658C193.606 640.339 192.207 622.734 191.996 605C191.919 598.548 189.419 591.15 192 585M359 627L357 602C369.329 604.974 367.601 620.397 359 627M315 642C320.905 641.73 326.239 639.384 332 638.26C335.624 637.553 339.626 636.921 341.052 632.945C342.409 629.158 340.19 623.84 339.59 620C339.047 616.519 340.03 610.24 336.682 608.029C332.942 605.559 327.586 608.406 324 609.796C320.267 611.244 314.266 611.838 311.782 615.279C309.914 617.866 310.87 621.14 311.39 624C312.485 630.026 313.834 635.988 315 642M298 646L307 645C305.427 637.378 304.007 629.57 302.177 622.015C301.552 619.434 300.324 616.302 297.065 616.662C293.305 617.078 293.248 621.141 293.606 624.001C294.539 631.458 296.486 638.663 298 646M184 625C184.025 634.005 185.292 643.034 186 652C183.033 650.764 178.847 649.462 177.028 646.61C172.191 639.026 177.928 629.293 184 625M594 652C594.504 654.146 595.119 655.978 596 658C586.039 662.147 576.361 667.608 568 674.465C563.495 678.158 559.769 682.641 555 686C552.973 681.465 547.982 674.177 542.039 677.046C535.04 680.426 529.426 690.505 523.996 696C507.075 713.125 491.834 732.383 473.907 748.464C468.063 753.706 462.817 759.564 457 764.83C454.188 767.376 449.708 770.034 448.813 774.001C447.557 779.569 453.832 789.135 456.248 794C465.006 811.642 474.739 828.608 485.667 845C488.978 849.968 494.496 862.632 501.039 863.497C503.73 863.853 506.558 862.333 509 861.424C513.948 859.583 518.997 858.016 524 856.333C531.36 853.855 538.632 851.132 546 848.667C550.138 847.282 555.234 846.11 558.671 843.301C562.588 840.099 564.548 834.41 566.753 830C571.839 819.827 576.475 809.832 580 799C585.829 801.02 591.001 804.474 597 806.076C614.53 810.758 630.177 805.402 646 798C652.312 814.268 662.18 829.411 671.657 844C676.313 851.168 680.694 859.771 687.174 865.482C699.194 876.077 716.353 881.448 731 887.203C741.588 891.363 752.026 896.999 763 900C775.339 879.839 785.318 858.583 794.86 837C798.063 829.757 800.329 816.793 809 815C810.218 807.951 814.942 803.39 817.453 797C819.455 791.906 815.422 786.545 817.924 781C820.187 775.986 824.892 772.058 829 768.59C836.94 761.888 845.55 755.417 855 751C851.693 742.465 843.495 736.963 837 730.911C830.966 725.288 825.823 718.832 820 713C812.096 705.083 804.47 696.037 795 689.94C775.221 677.205 749.263 672.96 727 666.28C706.183 660.034 685.263 654.311 664 649.789C654.383 647.744 643.889 644.34 634 644.34C620.675 644.34 606.936 649.33 594 652M599 666L601 672C587.022 677.82 576.156 686.982 566 698C560.198 692.857 564.282 688.508 569.001 684.089C577.233 676.38 587.884 668.64 599 666M604 680C604.775 683.745 605.836 687.359 607 691C600.276 695.443 594.138 700.998 588 706.205C585.503 708.324 582.605 712.164 579.015 712.248C572.454 712.402 570.812 704.131 574.113 700.015C581.141 691.251 592.622 681.774 604 680M618 698.301C632.903 696.105 653.454 703.731 662.211 716C668.085 724.231 669.819 735.109 668.829 745C666.357 769.712 642.92 795.464 618 798.711C612.432 799.436 606.476 799.189 601 797.985C579.864 793.334 570.67 775.253 572.089 755C573.77 731.026 592.779 702.016 618 698.301M611 718.637C599.809 721.818 589.008 733.443 587.301 745C584.943 760.963 598.26 772.679 614 768.211C626.907 764.548 637.016 752.285 638.522 739C640.347 722.886 625.152 714.615 611 718.637M618 726.29C627.444 725.246 631.611 733.638 629.211 742C626.516 751.387 617.96 759.789 608 760.657C598.483 761.486 593.22 752.385 596.109 744C599.376 734.515 608.11 727.383 618 726.29M830 778C840.091 778.44 849.299 783.988 858 788.691C865.378 792.679 872.86 796.387 880 800.814C885.664 804.326 892.508 808.39 896.298 814.004C901.625 821.897 903.384 833.9 905.849 843C907.459 848.947 907.914 854.453 915 855C905.919 868.728 892.116 880.023 885 895C882.734 887.335 884.949 878.558 881.347 871.089C878.618 865.43 871.966 859.828 867 856.156C857.11 848.844 846.538 842.322 836 836C829.852 832.312 823.693 828.821 817 826.204C814.806 825.347 811.793 823.81 809.394 824.697C806.953 825.599 806.081 828.857 805.15 831.001C802.687 836.675 800.267 842.376 797.691 848C787.628 869.977 776.223 890.996 764.281 912C731.859 969.027 698.836 1025.84 663.308 1081C649.409 1102.58 635.209 1123.99 622 1146C616.329 1155.45 608.12 1165.39 605 1176C615.661 1176.87 627.669 1182.2 634 1191L636 1191C666.743 1141.14 710.241 1104.25 760 1074.2C787.65 1057.51 816.91 1043.32 843 1024.12C850.148 1018.85 856.594 1013.16 863 1007.04C866.028 1004.14 869.755 1001.65 871.911 997.985C874.607 993.398 875.415 987.165 876.389 982C878.202 972.384 879.772 962.707 881 953C888.628 952.979 894.95 950.72 902 948C904.767 964.08 915.717 982.432 931 989.586C936.174 992.008 942.431 992.42 948 993.424C958.302 995.282 968.604 996.911 979 998.155C997.977 1000.43 1016.96 1000.48 1036 999.089C1045.33 998.405 1056.05 997.957 1065 995.008C1073.32 992.264 1080.49 983.214 1087 977.576C1101.4 965.11 1115.31 951.758 1127.39 937C1132.99 930.154 1139.45 922.436 1142.45 914C1145.35 905.846 1143.6 896.325 1142.25 888C1139.55 871.392 1135.65 854.958 1130.33 839C1127.91 831.742 1125.63 822.302 1120.36 816.518C1115.47 811.138 1107.25 807.834 1101 804.281C1089 797.458 1077.13 790.364 1065 783.769C1047.83 774.43 1031.05 763.472 1013 755.876C998.659 749.842 981.272 748.978 966 746.728C948.258 744.115 928.914 738.603 911 739.015C903.068 739.197 895.449 741.85 888 744.333C873.794 749.069 860.553 754.727 848 763.003C841.496 767.291 834.597 771.608 830 778M427 741C426.26 743.221 425.93 744.685 426 747C422.384 749.053 420.972 751.876 421 756C418.523 757.451 418.104 758.139 418 761C414.157 763.165 412.092 766.605 412 771C408.313 773.018 406.35 775.814 406 780C401.685 780.719 401.664 784.558 398 787C395.502 788.666 394.055 788.945 392 791L391 790L391 792C388.318 791.697 387.572 791.793 386 794C382.246 792.123 380.366 794.634 378 797L377 796L377 798L375 797L375 799L373 798L373 800L371 799L371 801L369 800L369 802L367 801L367 803C360.336 800.779 349.336 813.084 345 812L345 814C343.328 813.662 343.69 813.463 343 815C338.797 812.898 333.676 817.324 331 820L330 819L330 821C328.328 820.662 328.69 820.463 328 822C323.797 819.898 318.676 824.324 316 827L315 826L315 828C311 826 307.523 829.477 305 832L304 831L304 833C300.578 831.289 300.204 832.796 298 835L297 834L297 836C294.318 835.697 293.572 835.794 292 838C289.318 837.697 288.572 837.794 287 840C284.318 839.697 283.572 839.794 282 842C279.83 841.458 280.098 841.16 279 843C277.521 842.014 277.797 842 276 842L275 843C275.995 846.322 276.966 848.276 280 850C280.104 852.861 280.523 853.549 283 855C282.952 857.33 282.797 857.006 285 858C284.952 860.33 284.797 860.006 287 861C286.952 863.33 286.797 863.006 289 864C289.345 868.163 291.452 871.724 295 874C293.45 875.714 292.756 876.823 292 879L284 875C283.488 868.868 277.41 859.96 272 857C271.998 853.453 271.094 851.764 268 850C268.338 848.328 268.537 848.69 267 848L268 846L266 846L267 844L266 843C263.387 843.093 262.688 841.91 260 843C258.318 841.105 257.462 841.385 255 842C253.318 840.105 252.462 840.385 250 841C248.349 839.227 247.411 839.548 245 840C243.551 838.354 243.208 838.547 241 839C239.551 837.354 239.208 837.547 237 838C235.551 836.354 235.208 836.547 233 837C231.551 835.354 231.208 835.547 229 836C227.901 834.16 228.17 834.458 226 835C224.551 833.354 224.208 833.547 222 834C220.902 832.16 221.17 832.458 219 833C217.551 831.354 217.208 831.547 215 832C213.902 830.16 214.17 830.458 212 831C210.902 829.16 211.17 829.458 209 830C207.551 828.354 207.208 828.547 205 829C203.902 827.16 204.17 827.458 202 828C200.573 826.51 200.133 826.707 198 827L199 825L197 825C198.918 831.656 202.662 837.819 205.753 844C207.707 847.907 209.115 851.796 213 854C212.662 855.672 212.463 855.31 214 856C213.972 860.124 215.384 862.948 219 865C218.662 866.672 218.463 866.31 220 867C220.002 870.547 220.906 872.236 224 874C223.662 875.672 223.463 875.31 225 876C225.002 879.547 225.906 881.236 229 883C229.002 886.547 229.906 888.236 233 890C233.002 893.547 233.906 895.236 237 897C237.104 899.861 237.523 900.549 240 902C240.104 904.861 240.523 905.549 243 907C243.104 909.861 243.523 910.549 246 912C246.11 916.767 248.832 920.72 253 923C252.952 925.33 252.797 925.006 255 926C254.952 928.33 254.796 928.006 257 929C256.952 931.33 256.797 931.006 259 932C259.367 936.39 262.047 939.456 264.579 943C270.299 951.006 276.951 963.691 286 968C286.681 972.539 289.912 975.563 292.87 979C298.429 985.461 304.05 991.884 309.986 998C323.948 1012.38 337.135 1027.72 352 1041.17C357.27 1045.94 362.261 1053.41 369 1056.14C376.568 1059.21 385.525 1055.99 393.09 1055.43C397.622 1055.1 402.559 1054.84 407.09 1054.68C410.514 1054.56 413.559 1055.79 416 1053C419.69 1053.88 424.276 1055.12 427 1052C428.478 1052.99 428.203 1053 430 1053C430.726 1050.82 430.439 1051.22 432 1052L432 1050C436.472 1049.89 439.474 1047.26 443 1044.63C448.941 1040.19 456.744 1035.84 460 1029C463.402 1028.42 464.504 1027.11 466 1024C471.052 1023.24 474.833 1019.55 477 1015C481.426 1014.43 484.063 1011.97 486 1008C490.919 1007.56 494.784 1004.36 497 1000C501.613 999.615 504.903 997.104 507 993C512.333 992.555 517.572 988.752 520 984C524.613 983.615 527.903 981.104 530 977C532.33 977.048 532.006 977.203 533 975C535.33 975.048 535.006 975.203 536 973C540.727 972.135 541.91 968.443 541 964C542.84 962.901 542.542 963.17 542 961C543.646 959.551 543.453 959.208 543 957C544.84 955.901 544.542 956.17 544 954C545.84 952.901 545.542 953.17 545 951C546.84 949.901 546.542 950.17 546 948C547.646 946.551 547.453 946.208 547 944C548.84 942.901 548.542 943.17 548 941C553.52 936.775 547.26 931.502 543.911 927.985C537.659 921.422 531.364 914.85 525.424 908C521.114 903.029 517.038 896.839 511 894C510.122 888.149 500.955 875.175 495 874C494.101 871.876 494.124 871.899 492 871C492.986 869.521 493 869.797 493 868C490.538 865.352 489.371 862.722 486 861C485.488 854.868 479.41 845.96 474 843C474.048 840.67 474.203 840.994 472 840C471.907 836.072 470.442 833.89 467 832C466.896 829.139 466.477 828.451 464 827C463.998 823.453 463.094 821.764 460 820C460.338 818.328 460.537 818.69 459 818C459.038 812.975 456.431 807.515 452 805C452.338 803.328 452.537 803.69 451 803L452 801L450 801L451 799L449 799C451.102 794.797 446.676 789.676 444 787L445 786L443 786C444.711 782.578 443.204 782.204 441 780L442 779L440 779C439.915 775.947 439.442 773.911 437 772C437.542 769.83 437.84 770.098 436 769C436.303 766.318 436.207 765.572 434 764C434.303 761.318 434.207 760.572 432 759C432.542 756.83 432.84 757.098 431 756C431.542 753.83 431.84 754.098 430 753C430.453 750.792 430.646 750.449 429 749C429.542 746.83 429.84 747.098 428 746C428.465 743.522 428.474 743.01 427 741M823 818L831 822C835.97 812.701 842.751 803.346 852 798L852 796C849.719 794.626 846.847 792.375 844 792.878C841.182 793.376 838.923 796.085 837.015 798.005C831.303 803.75 826.217 810.543 823 818M207 799L206 800L207 799M857 838C859.624 839.714 862.013 841.056 865 842C869.031 832.778 876.998 822.67 886 818C884.091 811.552 878.859 810.861 874 815.113C867.155 821.102 859.802 829.206 857 838M891 902C896.941 912.857 906.761 906.925 913.999 900.7C926.137 890.262 940.288 869.058 927 855C933.635 845.775 944.93 835.678 955 830.323C959.149 828.117 965.763 825.107 968.258 831.059C972.839 841.987 965.533 857.441 960.753 867C950.616 887.275 936.001 906.999 920 923C912.044 930.956 903.529 938.731 893 943.123C890.469 944.18 885.328 946.292 883.218 943.396C881.449 940.967 882.909 935.816 883.011 933C883.355 923.522 881.301 906.959 891 902M891 831C887.969 832.576 885.696 834.412 883.439 837.015C881.783 838.925 880.217 840.945 878.746 843C876.824 845.687 872.609 857.052 880.792 854.654C883.131 853.969 884.58 850.796 885.924 848.999C891.03 842.172 894.265 839.546 891 831M267 834L266 835L267 834M924 862L925 863C922.114 874.982 919.213 884.025 909.985 892.957C907.9 894.975 901.916 901.078 898.643 898.264C895.444 895.514 898.96 888.572 900.684 886C906.681 877.057 914.105 866.708 924 862M54 932C57.2911 938.999 65.1147 943.594 72 946.687C74.7169 947.907 77.9895 949.318 81 948.356C90.0385 945.47 95.351 933.17 106 932.933C109.083 932.864 112.181 934.522 115 935.576C124.146 938.994 133.666 940.681 142.999 943.394C145.386 944.087 150.523 946.059 148.338 949.481C146.81 951.875 143.182 950.829 140.985 950.345C134.27 948.864 127.53 947.154 121 944.999C116.48 943.507 110.828 940.471 106 940.716C96.8194 941.182 83.607 954.265 80 962C95.6142 972.297 112.077 971.425 130 970.985C134.025 970.887 137.965 969.838 142 970.174C164.651 972.06 186.315 979.544 208 985.86C217.061 988.498 225.595 994.72 235 995.815C239.458 996.334 244.36 995.854 247 992C244.456 991.738 242.24 991.35 240.002 989.991C230.127 983.992 232.327 972.889 238.529 965.015C240.448 962.579 244.556 960.122 245.118 956.911C245.881 952.55 239.017 944.853 235.907 942.318C230.747 938.113 221.284 939.502 215 938.826C205.324 937.786 195.335 934.535 186 931.859C154.653 922.873 125.175 908.672 94 898.975C87.9925 897.106 82.054 893.346 76 891.998C67.9242 890.2 56.151 898.513 50 902.91C47.7662 904.506 44.2282 906.479 43.1759 909.17C41.3042 913.957 51.8319 921.549 56 921.497C59.2472 921.456 62.3038 918.965 65 917.427C70.7784 914.132 78.5305 908.817 85 907.352C91.0552 905.98 101.254 912.302 107 914.305C112.89 916.357 119.2 917.371 124.981 919.714C126.892 920.488 130.165 922.088 128.824 924.722C127.728 926.875 124.976 926.636 122.999 926.315C118.239 925.541 113.559 923.852 109 922.333C102.661 920.222 94.7096 915.651 88 915.651C76.0924 915.651 63.8735 926.524 54 932M563 921C562.598 922.943 562.598 923.057 563 925C561.354 926.449 561.547 926.792 562 929C560.354 930.449 560.547 930.792 561 933C558.386 934.994 558.348 936.87 559 940C557.354 941.449 557.547 941.792 558 944C556.16 945.098 556.458 944.83 557 947C554.386 948.994 554.348 950.87 555 954C553.161 955.098 553.458 954.83 554 957C552.16 958.098 552.458 957.83 553 960C551.16 961.098 551.458 960.83 552 963C550.354 964.449 550.547 964.792 551 967C549.16 968.098 549.458 967.83 550 970C547.48 972.076 546.463 975.383 543.941 977.674C539.568 981.648 533.774 983.572 531 989C528.67 988.952 528.994 988.797 528 991C523.387 991.385 520.097 993.896 518 998C513.387 998.385 510.097 1000.9 508 1005C505.67 1004.95 505.994 1004.8 505 1007C501.304 1007.34 499.69 1008.71 498 1012C495.491 1012.41 495.225 1012.73 494 1015C491.491 1015.41 491.225 1015.73 490 1018C483.941 1018.77 477.587 1024.57 475 1030C470.497 1030.68 467.472 1033.88 464 1036.75C457.177 1042.38 446.034 1048.06 442 1056C439.024 1055.01 439.977 1055.53 438 1058L437 1057C438.553 1059.96 439.655 1060.86 443 1061C444.875 1064.3 447.639 1065.56 451 1067.25C457.336 1070.43 465.793 1076.85 473 1076C473.899 1078.12 473.876 1078.1 476 1079C475.598 1080.94 475.598 1081.06 476 1083C473.868 1083.78 473.229 1084.13 472 1086L470 1086C467.534 1082.24 463.406 1080.48 459 1081C458.31 1079.46 458.672 1079.66 457 1080L457 1078L455 1079L455 1077L453 1078L453 1076L451 1077L451 1075L449 1076L449 1074L447 1075L447 1073L445 1074C442.947 1070.38 440.124 1068.97 436 1069C435.006 1066.8 435.33 1066.95 433 1067C429.626 1060 425.25 1061.58 418.83 1062.26C412.625 1062.91 406.302 1062.56 400.09 1063.14C397.25 1063.41 394.909 1064.56 391.985 1064.37C387.09 1064.05 377.483 1062.01 374 1066C367.616 1064.53 360.567 1066 354 1066C355.69 1069.29 357.304 1070.66 361 1071C361.994 1073.2 361.67 1073.05 364 1073C364.994 1075.2 364.67 1075.05 367 1075C369.28 1079.17 373.233 1081.89 378 1082C379.451 1084.48 380.139 1084.9 383 1085C384.451 1087.48 385.139 1087.9 388 1088C389.451 1090.48 390.139 1090.9 393 1091C395.053 1094.62 397.876 1096.03 402 1096C404.515 1100.43 409.975 1103.04 415 1103L415 1105L417 1104L417 1106L419 1105L419 1107L421 1106L421 1108L423 1107L423 1109L425 1108L425 1110L427 1109L427 1111L429 1110C431.466 1113.76 435.594 1115.52 440 1115C440.69 1116.54 440.328 1116.34 442 1116C444.2 1119.35 447.079 1120.46 451 1120C452.572 1122.21 453.318 1122.3 456 1122C456.69 1123.54 456.328 1123.34 458 1123C459.572 1125.21 460.318 1125.3 463 1125C464.572 1127.21 465.318 1127.3 468 1127C469.098 1128.84 468.83 1128.54 471 1128C472.572 1130.21 473.318 1130.3 476 1130C477.098 1131.84 476.83 1131.54 479 1131C481.077 1134.03 483.454 1134.52 487 1134C488.098 1135.84 487.83 1135.54 490 1135C491.098 1136.84 490.83 1136.54 493 1136C495.466 1139.28 499.131 1139.81 503 1139C504.098 1140.84 503.83 1140.54 506 1140C507.449 1141.65 507.792 1141.45 510 1141C511.098 1142.84 510.83 1142.54 513 1142C514.449 1143.65 514.792 1143.45 517 1143C518.449 1144.65 518.792 1144.45 521 1144C522.682 1145.89 523.538 1145.61 526 1145C527.651 1146.77 528.589 1146.45 531 1146C532.651 1147.77 533.589 1147.45 536 1147C537.848 1149.05 539.345 1148.58 542 1148C544.047 1150.31 546.11 1149.66 549 1149C551.49 1151.83 555.871 1150.5 559.424 1151.33C562.991 1152.17 566.296 1151.16 569.83 1151.62C576.698 1152.52 583.014 1152.21 589.911 1152.54C592.672 1152.68 595.203 1153.88 598.015 1153.98C602.878 1154.16 609.702 1155.22 610 1149C612.477 1147.55 612.896 1146.86 613 1144C616.442 1142.11 617.907 1139.93 618 1136C620.477 1134.55 620.896 1133.86 621 1131C623.203 1130.01 623.047 1130.33 623 1128C626.442 1126.11 627.907 1123.93 628 1120C631.442 1118.11 632.907 1115.93 633 1112C635.203 1111.01 635.047 1111.33 635 1109C639.168 1106.72 641.89 1102.77 642 1098C646.749 1095.4 650.875 1089.44 651 1084C653.203 1083.01 653.047 1083.33 653 1081C657.749 1078.4 661.875 1072.44 662 1067C666.168 1064.72 668.89 1060.77 669 1056C672.442 1054.11 673.907 1051.93 674 1048C677.442 1046.11 678.907 1043.93 679 1040C681.477 1038.55 681.896 1037.86 682 1035C685.442 1033.11 686.907 1030.93 687 1027C689.477 1025.55 689.896 1024.86 690 1022C695.124 1019.11 700.008 1010.87 700 1005C702.286 1003.68 704.097 1002.25 702 1000C702.542 997.83 702.84 998.099 701 997C701.542 994.83 701.84 995.099 700 994C700.986 992.521 701 992.797 701 991C697.692 991.118 695.696 989.93 692 991C690.349 989.227 689.411 989.548 687 990C685.551 988.354 685.208 988.547 683 989C681.318 987.105 680.462 987.385 678 988C676.551 986.354 676.208 986.547 674 987C672.006 984.386 670.13 984.348 667 985C665.901 983.16 666.17 983.458 664 984C661.923 980.97 659.546 980.483 656 981C654.428 978.794 653.682 978.697 651 979C649.428 976.793 648.682 976.697 646 977C645.31 975.463 645.672 975.662 644 976C640.495 970.65 628.31 964.953 622 965C620.236 961.906 618.547 961.002 615 961C613.549 958.523 612.861 958.104 610 958C608.549 955.523 607.861 955.104 605 955C604.006 952.797 604.33 952.952 602 953C601.006 950.797 601.33 950.952 599 951C598.006 948.797 598.33 948.952 596 949C594.31 945.708 592.696 944.34 589 944C587.174 940.408 585.016 938.514 581 938C577.706 931.082 569.216 925.327 563 921M244 940C247.821 946.857 251.574 954.623 260 950C258.571 946.23 255.284 938.781 250.828 937.877C248.565 937.419 245.98 939.129 244 940M264 957C264.372 959.943 265.199 963.039 264.591 966C262.09 978.177 250.16 978.732 241 975C239.006 982.326 244.166 985.198 251 984.956C257.896 984.712 263.842 980.842 268.995 976.536C271 974.86 273.666 972.754 274.118 969.999C274.599 967.069 272.033 964.12 270.332 962.019C268.441 959.685 266.666 958.27 264 957M247 970C252.822 971.209 256.49 968.644 258 963C251.783 961.312 248.996 964.339 247 970M884 982C884.093 984.613 882.91 985.312 884 988C882.105 989.682 882.385 990.538 883 993C881.16 994.098 881.458 993.83 882 996C880.354 997.449 880.547 997.792 881 1000C879.463 1000.69 879.662 1000.33 880 1002C873.371 1005.09 866.091 1012.37 863 1019C859.186 1019.66 857.64 1021.53 856 1025C851.593 1025.56 848.542 1028.51 845 1031.12C839.734 1034.99 832.192 1038.17 829 1044C825.072 1044.09 822.89 1045.56 821 1049C818.139 1049.1 817.451 1049.52 816 1052C813.139 1052.1 812.451 1052.52 811 1055C807.453 1055 805.764 1055.91 804 1059C800.453 1059 798.764 1059.91 797 1063C793.453 1063 791.764 1063.91 790 1067C786.453 1067 784.764 1067.91 783 1071C779.453 1071 777.764 1071.91 776 1075C772.453 1075 770.764 1075.91 769 1079C766.139 1079.1 765.451 1079.52 764 1082C761.139 1082.1 760.451 1082.52 759 1085C756.139 1085.1 755.451 1085.52 754 1088C751.67 1087.95 751.994 1087.8 751 1090C746.233 1090.11 742.28 1092.83 740 1097C735.387 1097.39 732.097 1099.9 730 1104C719.872 1104.94 724.802 1120.82 724 1128C728.603 1127.95 742.103 1123.01 739.579 1132.67C739.303 1133.73 738.456 1135.02 738 1136C732.966 1134.8 724.817 1133.57 720.015 1136.03C716.665 1137.74 714.403 1141.29 711.914 1144C706.798 1149.56 701.966 1155.35 696.95 1161C691.696 1166.92 684.343 1172.83 681 1180C689.249 1180 697.056 1179.59 705.17 1178.74C708.7 1178.37 712.026 1179.12 715.576 1178.38C718.905 1177.69 722.68 1178.64 725 1176C728.11 1176.73 730.765 1177.55 733 1175C736.11 1175.73 738.765 1176.55 741 1174C743.684 1174.74 745.122 1175.14 747 1173C749.413 1173.6 752.519 1174.87 753 1172C755.655 1172.58 757.152 1173.05 759 1171C761.655 1171.58 763.152 1172.05 765 1170C767.461 1170.61 768.318 1170.89 770 1169C772.461 1169.61 773.318 1169.89 775 1168C777.461 1168.61 778.318 1168.89 780 1167C782.461 1167.61 783.318 1167.89 785 1166C787.208 1166.45 787.551 1166.65 789 1165C791.461 1165.61 792.318 1165.89 794 1164C796.208 1164.45 796.551 1164.65 798 1163C800.208 1163.45 800.551 1163.65 802 1162C804.208 1162.45 804.551 1162.65 806 1161C808.208 1161.45 808.551 1161.65 810 1160C812.208 1160.45 812.551 1160.65 814 1159C817.13 1159.65 819.006 1159.61 821 1157C824.13 1157.65 826.006 1157.61 828 1155C831.13 1155.65 833.006 1155.61 835 1153C837.17 1153.54 836.901 1153.84 838 1152C840.17 1152.54 839.901 1152.84 841 1151C844.13 1151.65 846.006 1151.61 848 1149C850.169 1149.54 849.901 1149.84 851 1148C853.169 1148.54 852.901 1148.84 854 1147C858.219 1147.62 862.507 1146.64 865 1143C867.17 1143.54 866.901 1143.84 868 1142C870.169 1142.54 869.901 1142.84 871 1141C873.682 1141.3 874.428 1141.21 876 1139C878.682 1139.3 879.428 1139.21 881 1137C884.422 1138.71 884.796 1137.2 887 1135L888 1136L888 1134C894.166 1134.72 901.922 1130.33 905 1125C909.829 1124.14 912.826 1119.81 913 1115C915.271 1113.78 915.591 1113.51 916 1111C919.292 1109.31 920.66 1107.7 921 1104C927.123 1100.89 936.129 1089.82 937 1083C941.484 1080.81 944.58 1077.02 945 1072C947.42 1070.62 948.061 1069.64 949 1067L947 1067C947.664 1064.11 948.31 1062.05 946 1060C946.834 1057.1 947.365 1055.07 945 1053C946.06 1048.54 946.583 1038.15 943 1035C943.788 1031.68 944.758 1028.41 942 1026C943.982 1017.67 941.994 1008.55 942 1000C939.272 1000.1 938.002 999.131 935 1000C933.318 998.105 932.462 998.385 930 999C926.894 994.158 919.825 989.391 914 990C912.152 987.948 910.655 988.424 908 989C906.152 986.948 904.655 987.424 902 988C900.349 986.227 899.411 986.548 897 987C895.551 985.354 895.208 985.547 893 986C891.725 982.755 887.038 982.977 884 982M1092 982C1086.75 987.026 1076.27 992.623 1075 1000C1072.88 1000.9 1072.9 1000.88 1072 1003C1069.32 1002.26 1067.88 1001.86 1066 1004C1063.32 1003.26 1061.88 1002.86 1060 1005C1056.87 1003.43 1052.45 1003.09 1053 1008C1053.22 1009.98 1055.14 1009.57 1056 1011C1056.09 1011.15 1053.97 1011.39 1057 1012C1056.7 1014.68 1056.79 1015.43 1059 1017C1058.46 1019.17 1058.16 1018.9 1060 1020C1058.66 1021.83 1058.31 1022.75 1058 1025C1063.56 1021.05 1072.84 1012.79 1074 1006C1078.32 1003.94 1081.38 1000.81 1082 996C1084.27 994.775 1084.59 994.509 1085 992C1088.74 990.1 1092.61 986.471 1092 982M1091 985C1089.9 986.457 1089.46 986.897 1088 988C1089.1 986.543 1089.54 986.103 1091 985M949 1001C949.032 1003.88 948.792 1006.07 951 1008C949.67 1013.59 951.116 1017.64 951.316 1023.09C951.434 1026.28 950.432 1028.75 953 1031C952.212 1034.32 951.242 1037.59 954 1040C953.212 1043.32 952.242 1046.59 955 1049C954.267 1052.11 953.454 1054.76 956 1057C955.304 1060 955.181 1062.03 956 1065C959.907 1063.87 962.955 1062.6 965 1059C967.861 1058.9 968.549 1058.48 970 1056L978 1059C976.006 1061.75 973.556 1063.97 972 1067C968.453 1067 966.764 1067.91 965 1071C963.328 1070.66 963.69 1070.46 963 1072L961 1071L961 1073C954.828 1072.15 950.496 1077.06 950 1083C947.729 1084.22 947.409 1084.49 947 1087C939.603 1090.6 932.167 1101.51 929 1109C933.005 1107.33 936.81 1105.86 939 1102C941.861 1101.9 942.549 1101.48 944 1099C946.861 1098.9 947.549 1098.48 949 1096C951.861 1095.9 952.549 1095.48 954 1093C956.33 1093.05 956.006 1093.2 957 1091C961.38 1090.9 964.021 1088.87 966 1085C968.33 1085.05 968.006 1085.2 969 1083C972.696 1082.66 974.31 1081.29 976 1078C982.901 1077.39 992.995 1069.16 996 1063C998.969 1062.49 999.634 1061.71 1001 1059C1006.4 1058.19 1010.71 1053.86 1013 1049C1020.39 1047.8 1032.79 1036.74 1036 1030C1040.89 1029.18 1045.76 1025.13 1046 1020L1050 1019C1049.45 1015.68 1048.37 1016.28 1047 1014C1046.91 1013.85 1049.03 1013.61 1046 1013C1047.71 1009.58 1046.2 1009.2 1044 1007L1045 1006L1037 1006L1038 1008C1032.38 1007.56 1026.76 1006.44 1021.09 1007.13C1017.59 1007.55 1014.65 1009.13 1011.01 1008.94C999.999 1008.36 988.063 1004.37 977 1007C974.953 1004.69 972.89 1005.34 970 1006C967.953 1003.69 965.89 1004.34 963 1005C961.152 1002.95 959.655 1003.42 957 1004C955.028 1001.77 951.857 1001.82 949 1001M1049 1018L1048 1019L1049 1018M351 1065C351.545 1066.64 351.365 1066.45 353 1067C352.455 1065.36 352.635 1065.55 351 1065M932 1106L931 1107L932 1106M715 1113C714.014 1114.48 714 1114.2 714 1116C708.2 1116.87 703.33 1122.35 699 1126.16C690.085 1133.99 681.517 1142.04 673.718 1151C669.93 1155.35 665.548 1159.32 664 1165C672.832 1165 687.984 1167.8 690 1156C693.472 1154.36 695.344 1152.81 696 1149C705.147 1144.73 709.156 1134.63 716 1128C715.413 1123.17 716.999 1118 717 1113L715 1113M402 1202C407.563 1205.25 417.253 1210.74 424 1209.23C433.542 1207.09 440.476 1195.42 450 1192.69C454.317 1191.45 460.591 1193.63 465 1194.16C471.688 1194.96 479.536 1193.67 485.984 1195.32C488.091 1195.85 491.937 1198.22 490.029 1200.85C488.217 1203.35 483.683 1203.06 481 1202.96C472.646 1202.64 464.321 1201.23 456 1200.44C451.408 1200.01 447.828 1202.15 444 1204.45C436.323 1209.07 426.892 1214.65 423 1223C430.508 1227.27 439.379 1229.59 448 1230C450.83 1230.13 454.183 1230.93 456.714 1229.31C464.361 1224.4 467.791 1213.84 477 1210.6C483.027 1208.48 491.828 1211.95 498 1212.72C502.622 1213.29 507.344 1213.91 512 1214C514.311 1214.04 517.616 1213.66 519.338 1215.6C520.934 1217.4 519.776 1219.54 517.847 1220.4C514.613 1221.83 509.461 1221.11 506 1220.96C497.966 1220.61 486.72 1215.8 479 1218.18C472.175 1220.28 466.467 1228.55 462.375 1234C460.007 1237.15 454.777 1242.52 455.817 1246.89C456.623 1250.28 461.104 1251.46 464 1252.24C472.557 1254.55 482.202 1254.51 491 1253.91C515.665 1252.22 540.3 1249.12 565 1248.04C580.693 1247.35 595.117 1251.1 610 1245C606.052 1243.54 601.822 1244.83 598.043 1242.27C583.727 1232.58 594.597 1215.38 601 1205C597.038 1203.35 593.213 1200.92 589 1199.97C578.644 1197.62 566.552 1199.15 556 1198.62C536.017 1197.63 515.823 1195.59 496 1192.73C481.64 1190.66 467.192 1188.37 453 1185.34C445.341 1183.71 435.848 1180.06 428 1180.56C418.772 1181.16 405.64 1194.19 402 1202M596 1195C599.648 1196.52 603.2 1199.05 607 1200.09C610.392 1201.03 613.618 1199.42 617 1199.26C619.29 1199.16 621.768 1199.93 623.937 1198.88C625.758 1198 627.217 1196.14 626.654 1194.04C625.079 1188.15 609.804 1181.73 604.3 1184.03C600.156 1185.76 597.487 1191.08 596 1195M612 1206C612.873 1209.52 615.159 1212.87 615.089 1216.58C614.924 1225.26 606.823 1230.4 599 1230C600.122 1237.19 606.352 1238.27 611.996 1234.35C618.04 1230.15 630.213 1212.05 618.893 1206.86C616.755 1205.88 614.289 1206.03 612 1206M602 1223C606.589 1221.35 607.74 1218.73 608 1214C603.18 1215.4 602.156 1218.21 602 1223z"/>
</svg>
