<?xml version="1.0" encoding="UTF-8" standalone="no"?>
<svg
   width="1389"
   height="1285"
   version="1.1"
   id="svg1"
   sodipodi:docname="Alexa - copia.svg"
   xml:space="preserve"
   inkscape:version="1.3 (0e150ed6c4, 2023-07-21)"
   xmlns:inkscape="http://www.inkscape.org/namespaces/inkscape"
   xmlns:sodipodi="http://sodipodi.sourceforge.net/DTD/sodipodi-0.dtd"
   xmlns="http://www.w3.org/2000/svg"
   xmlns:svg="http://www.w3.org/2000/svg"><defs
     id="defs1"><inkscape:path-effect
       effect="powerclip"
       id="path-effect419"
       is_visible="true"
       lpeversion="1"
       inverse="true"
       flatten="false"
       hide_clip="false"
       message="Utilice la regla de relleno parimpar en el diálogo &lt;b&gt;Relleno y borde&lt;/b&gt; si el resultado no está aplanada después de convertir el recorte en trayectos." /><clipPath
       clipPathUnits="userSpaceOnUse"
       id="clipPath419"><path
         id="lpe_path-effect419"
         style="fill:#010101;stroke:none"
         class="powerclip"
         d="M 787.24032,530.34484 H 1234.5968 V 787.78788 H 787.24032 Z M 972,578 c 0.20799,2.61 0.198,6.284 1.98801,8.4 2.861,3.382 11.897,3.91 16.01199,6.089 12.81,6.785 24.06,16.041 36,24.167 43.35,29.498 77.59,71.934 124,97.035 12.15,6.571 25.98,12.455 40,12.305 5.59,-0.059 12.81,-1.044 15.1,-7.014 2.88,-7.473 -3.42,-17.702 -5.1,-24.982 -5.69,2.98 -9.36,7.737 -16,9.181 -29.05,6.317 -57.14,-18.29 -78,-34.981 -42.35,-33.88 -82.72,-70.304 -133.99999,-90.2 m -171,99 c 4.05399,-6.635 5.467,-15.039 9.312,-22 6.879,-12.45 17.493,-23.212 27.688,-32.961 5.068,-4.846 10.562,-9.352 16,-13.778 2.61199,-2.127 6.408,-4.187 7.883,-7.351 1.213,-2.605 0.234,-6.138 0.117,-8.91 -7.804,3.023 -14.997,10.299 -21,16.039 -12.906,12.341 -24.958,25.374 -33.85001,40.961 -5.124,8.982 -8.625,17.604 -6.14999,28 m 172,-81 c 1.042,6.307 8.932,8.482 14,11.424 12.488,7.252 25.12999,14.782 36.99999,23.011 33.68,23.349 62.01,54.014 93,80.695 13.57,11.68 27.3,23.251 43,32.008 10.6,5.914 22.74,10.863 35,10.862 7.09,0 14.22,-1.566 17.11,-9.001 0.94,-2.425 1.22,-5.416 1.42,-7.999 0.29,-3.698 -1.17,-6.659 -2.53,-10 -25.83,15.537 -53.82,0.384 -77,-13.601 -16.69,-10.067 -31.42,-23.408 -46,-36.244 -22.07,-19.429 -44.56,-39.779 -69,-56.156 -13.53,-9.064 -28.84299,-24.634 -45.99999,-24.999 m -2,12 c -1.38801,2.638 -2.313,5.099 -3,8 12.98,7.575 26.52599,13.412 38.99999,22.026 25.53,17.63 48.61,38.944 72,59.256 24.19,21.009 47.42,45.128 75,61.718 14.74,8.866 32.36,16.722 50,14.826 12.92,-1.388 21.31,-12.213 16,-24.826 -4.13,4.259 -7.34,9.012 -13,11.467 -4.67,2.026 -10.02,1.589 -15,1.529 -19,-0.227 -39.28,-12.871 -54,-23.891 -48.29,-36.161 -87.15,-82.83 -138.99999,-114.308 -9.164,-5.564 -18.06501,-11.66 -28,-15.797 m -107,2 c -18.588,14.984 -40.56101,32.332 -49.98801,55 -3.499,8.411 -7.205,18.286 -3.01199,27 3.533,-7.867 3.974,-17.013 7.78499,-25 9.952,-20.86 28.784,-38.899 48.21501,-51 -0.531,-2.69 -1.116,-4.02 -3,-6 m -14,54 c 6.552,-2.074 12.106,-6.54 18,-9.988 8.14099,-4.764 16.78099,-8.879 26,-11.012 -2.289,-3.505 -9.54,-9.115 -14,-8.002 -4.106,1.026 -8.048,5.223 -11,8.041 -6.79201,6.484 -13.68601,13.189 -19,20.961 z" /></clipPath></defs><sodipodi:namedview
     id="namedview1"
     pagecolor="#505050"
     bordercolor="#eeeeee"
     borderopacity="1"
     inkscape:showpageshadow="0"
     inkscape:pageopacity="0"
     inkscape:pagecheckerboard="0"
     inkscape:deskcolor="#505050"
     inkscape:zoom="0.63891051"
     inkscape:cx="692.58526"
     inkscape:cy="656.58648"
     inkscape:window-width="1920"
     inkscape:window-height="1017"
     inkscape:window-x="-8"
     inkscape:window-y="32"
     inkscape:window-maximized="1"
     inkscape:current-layer="svg1" /><path
     style="display:inline;fill:#000000;fill-opacity:1;stroke:none"
     d="m 940,115 c -5.022,-4.737 -11.254,-1.875 -17,0.453 -13.018,5.274 -25.417,14.141 -34.829,24.548 -3.052,3.373 -6.214,9.922 -10.471,11.786 -2.758,1.208 -6.141,-0.801 -8.7,-1.734 -5.902,-2.151 -11.955,-3.541 -18,-5.192 -13.483,-3.683 -30.192,-4.444 -44,-2.271 -3.857,0.608 -9.242,1.041 -12.681,2.973 -2.88,1.618 -1.829,4.928 -0.895,7.437 2.049,5.497 5.698,10.373 9.23,15 10.433,13.667 21.791,26.327 34.346,38.025 5.524,5.146 11.103,11.445 19,11.975 -1.572,19.919 -1.401,42.646 -10.258,61 -2.87,5.946 -6.282,11.36 -9.673,17 -1.348,2.241 -3.214,5.172 -1.936,7.851 3.611,7.571 16.755,-2.376 20.867,-4.851 -5.032,11.353 -8.283,23.53 -13.15,35 -1.406,3.316 -4.483,9.087 -1.246,12.257 3.226,3.159 8.916,0.626 12.396,-0.682 10.787,-4.054 19.479,-10.304 29,-16.575 -0.377,4.767 -1.767,9.292 -2.377,14 -0.309,2.392 0.151,4.739 -0.914,7 -2.737,5.813 -8.852,11.076 -12.956,16 -3.263,3.916 -13.4,12.221 -12.005,17.907 0.938,3.824 6.084,5.555 9.252,6.939 9.251,4.044 17.989,6.998 28,8.425 22.68,3.233 49.415,4.02 71,-4.724 14.121,-5.72 27.082,-16.098 38,-26.547 -0.48,5.493 -5.003,11.727 -4.353,16.999 0.656,5.331 5.963,7.581 10.353,5.142 8.87,-4.926 15.71,-13.367 24,-19.141 -0.52,11.812 -5.09,23.879 -11.01,34 -2.24,3.816 -4.58,8.485 -8.29,11.077 -5.81,4.06 -13.43,6.785 -19.7,10.229 -8.927,4.902 -17.695,11.248 -27,15.319 -20.502,8.97 -42.303,14.854 -63,23.712 -15.78,6.754 -30.532,15.821 -46,23.304 -13.776,6.665 -28.501,11.859 -43,16.692 -8.842,2.948 -17.722,6.418 -27,7.667 2.299,-5.186 3.5,-11.222 6.815,-15.907 2.351,-3.322 6.773,-4.981 7.867,-9.133 1.606,-6.096 -2.214,-9.519 -2.906,-14.956 -0.48,-3.777 4.939,-12.212 7.371,-14.989 2.814,-3.212 6.666,-6.361 10.853,-7.516 10.143,-2.796 26.416,4.037 28.786,-11.499 0.293,-1.923 0.296,-4.113 -0.22,-5.999 -4.002,-14.644 -24.393,-5.736 -31.1,-16.06 -3.356,-5.166 6.189,-11.145 6.173,-16.901 -0.007,-2.541 -1.613,-4.164 -3.698,-5.366 -3.079,-1.776 -6.723,-2.496 -9.941,-3.997 -4.182,-1.952 -8.173,-5.445 -13,-5.398 -10.211,0.098 -24.157,13.27 -28.656,21.721 -2.39,4.49 -4.213,11.843 0.656,15 v 2 c -5.57,2.192 -12.703,8.317 -12.443,15 0.104,2.678 2.34,5.046 2.04,7.714 -0.423,3.769 -4.612,6.354 -5.303,10.286 -1.045,5.946 3.621,12.627 5.706,18 -4.423,2.875 -3.24,6.489 -4.815,11 -2.19,6.272 -6.287,12.276 -9.609,18 -5.683,9.791 -11.558,19.698 -18.011,29 -3.054,4.402 -8.14,8.968 -9.962,14 -1.256,3.466 -0.239,7.487 0.267,11 1.896,13.149 11.543,25.305 25.13,27.671 6.75,1.176 11.675,-1.149 18,-2.678 2.643,-0.639 5.358,-0.248 8,-0.933 7.414,-1.923 14.727,-4.969 22,-7.393 22.293,-7.431 44,-16.226 66,-24.439 14.908,-5.566 30.944,-10.742 45,-18.228 0,6.505 -0.796,13.605 0.515,20 4.412,21.525 22.797,37.342 43.485,43 -3.649,6.838 -1.878,15.562 -1.17,23 0.945,9.925 0.94,20.032 1.185,30 0.097,3.958 1.394,8.051 0.833,12 -1.185,8.34 -12.082,16.715 -17.234,23 -6.98,8.516 -13.264,18.554 -21.618,25.79 -8.086,7.004 -18.771,11.349 -27.996,16.637 -5.328,3.055 -11.085,8.087 -17,9.812 -5.8,1.692 -11.456,-6.695 -15,-10.239 -12.048,-12.048 -23.051,-24.986 -36,-36.13 -16.702,-14.375 -40.14,-19.344 -61,-25.291 -35.477,-10.115 -70.509,-20.688 -107,-26.498 -12.09,-1.925 -27.329,2.569 -39,5.919 -4.164,1.195 -10.599,2.075 -12.968,6.214 -2.131,3.724 0.864,8.196 1.968,11.786 -10.293,1.52 -21.44,7.942 -28,16 -4.67,-4.064 -12.09,-10.803 -18.961,-9.589 -3.829,0.677 -6.03,4.869 -8.335,7.589 -5.002,5.903 -10.291,11.466 -15.689,17 -16.301,16.711 -31.458,34.522 -48.015,50.999 -7.358,7.323 -15.789,17.223 -25,22.001 -2.3,-8.426 -5.964,-16.418 -7.789,-25 -0.874,-4.109 -0.677,-9.638 -4.359,-12.397 -6.125,-4.588 -16.308,-0.893 -22.639,-4.631 -2.481,-1.464 -3.744,-4.474 -4.904,-6.972 -11.539,-24.866 -17.823,-52.176 -22.849,-79 -2.107,-11.246 -1.655,-24.058 -4.894,-34.945 -2.702,-9.083 -18.193,-3.847 -21.338,-13.099 -1.521,-4.476 -0.962,-9.345 -1.513,-13.956 -1.479,-12.352 -2.935,-24.596 -3.805,-37 -2.971,-42.394 -3.914,-85.888 3.01,-128 5.964,-36.277 13.604,-72.589 26.891,-107 3.196,-8.277 6.789,-16.313 11.235,-24 1.296,-2.24 4.311,-6.725 1.346,-8.954 -3.437,-2.583 -9.541,2.583 -12.392,4.237 -11.51,6.676 -22.37,14.359 -33,22.344 -44.918,33.74 -82.067,76.227 -110.799,124.373 -16.305,27.321 -28.823,56.865 -38.868,87 -5.078,15.235 -10.39,31.125 -13.048,47 -1.51,9.027 -2.968,19.885 -2.115,29 0.563,6.024 0.507,11.975 0.92,18 0.2,2.934 1.241,6.068 0.577,9 -2.323,10.272 -16.868,14.571 -22.659,22.376 -2.925,3.943 -2.985,9.932 -3.007,14.624 -0.043,8.9 -0.675,18.138 0.169,27 2.622,27.553 9.67,55.176 19.641,81 3.912,10.132 8.273,20.05 12.613,30 1.622,3.717 4.815,7.942 5.307,12 1.086,8.955 -14.242,12.307 -11.138,22 2.456,7.67 8.502,15.685 12.16,23 10.349,20.698 21.586,41.124 33.448,61 5.208,8.728 12.204,17.501 15.799,27 -12.934,4.288 -30.972,0.241 -44,-2.964 -33.789,-8.315 -65.045,-23.16 -98,-34.035 -6.3701,-2.102 -12.8454,-3.711 -19,-6.44 -3.1749,-1.408 -6.4148,-4.038 -10,-4.127 -3.031,-0.075 -6.1938,1.587 -9,2.566 -8.8331,3.083 -16.5473,7.771 -24,13.375 -3.1943,2.402 -7.967,5.284 -8.5733,9.626 -0.9314,6.67 9.3717,14.573 14.5733,16.999 -1.3621,2.479 -3.085,5.025 -2.5085,8 0.6942,3.582 3.8913,6.425 6.5124,8.7 6.1411,5.33 13.8729,10.852 21.9961,12.3 -1.3648,2.313 -3.6565,5.084 -3.0301,7.96 0.7897,3.625 5.1509,5.716 8.0301,7.436 7.653,4.57 16.0941,7.572 25,8.434 15.624,1.512 31.536,-2.934 47,-0.026 17.847,3.357 35.881,7.79 53,13.888 10.795,3.845 22.212,11.168 34,11.128 12.605,-0.04 23.747,-9.607 32.17,-17.87 3.312,-3.25 6.812,-5.711 8.83,-9.95 5.61,4.035 9.571,9.889 14.169,15 8.162,9.07 16.326,18.27 24.846,27 6.023,6.17 16.378,13.14 20.057,21 3.603,7.7 -9.445,18.37 -2.634,25.1 3.843,3.8 9.208,6.58 13.562,9.78 14.901,10.97 30.794,20.53 47,29.43 43.188,23.71 90.248,44.29 139,53.08 22.379,4.03 45.42,3.83 68,5.61 -2.471,5.29 -6.681,9.73 -9.002,15 -2.191,4.98 -1.013,9.73 -6.172,13.4 -2.803,1.99 -6.557,1.66 -9.826,1.59 -7.351,-0.18 -14.631,-2.23 -22,-1.95 -30.516,1.14 -62.015,-5.05 -92,-10.46 -9.048,-1.64 -17.98,-3.82 -27,-5.58 -3.885,-0.76 -9.055,-2.3 -13,-1.59 -3.193,0.57 -5.546,3.17 -8,5.08 -6.327,4.93 -12.24,9.86 -17.995,15.47 -2.479,2.41 -6.307,5.05 -5.513,9.02 1.712,8.53 17.362,12.54 24.508,14.02 -5.489,6.91 -2.099,11.24 5.001,15.1 8.253,4.48 18.665,6.71 27.999,6.9 -1.248,3 -3.764,6.63 -3.353,10 1.412,11.6 20.804,13 29.353,13 31.827,0 63.212,-5 95,-5 15.864,0 32.837,4.1 45.996,-7.21 2.668,-2.3 5.729,-5.21 6.461,-8.79 0.409,-2 -0.15,-4.01 0.496,-6 1.962,-6.03 5.92,-10.39 6.757,-17 0.479,-3.78 -1.419,-8.41 -0.067,-11.94 1.382,-3.61 5.532,-4.27 8.264,-6.49 2.835,-2.3 4.755,-5.57 6.76,-8.57 4.764,-7.13 8.374,-16.03 17.333,-18 0.906,3.95 1.647,11.61 5.303,13.97 4.07,2.63 14.837,1.99 19.697,2.03 18.929,0.13 38.288,-2.79 57,-5.42 32.596,-4.6 64.491,-12.41 96,-21.86 22.893,-6.87 45.842,-14.75 67,-25.98 6.357,-3.38 8.249,-10.02 14.04,-13.67 5.259,-3.31 11.474,-5.41 16.96,-8.38 11.712,-6.33 22.997,-13.55 34,-21.03 13.109,-8.92 25.808,-18.61 38,-28.74 7.81,-6.49 15.37,-14.37 24,-19.76 4.81,-3 9.05,0.44 14,-0.98 5.06,-1.45 10.22,-6.77 13.91,-10.35 14.14,-13.71 26.97,-29.35 37.75,-45.83 4.3,-6.583 6.89,-14.897 11.64,-21 10.2,-13.093 23.02,-23.705 31.89,-38 2.57,-4.153 6.38,-9.146 7.35,-14 0.7,-3.502 -0.49,-7.439 -0.54,-11 -0.19,-16.127 -3.75,-32.517 -8.14,-48 -2.86,-10.104 -5.84,-20.288 -9.87,-30 -2.25,-5.429 -5.43,-10.478 -7.45,-16 -5.03,-13.812 -8.52,-28.168 -13.59,-42 -6.44,-17.528 -13.23,-34.265 -15.66,-53 -2.27,-17.561 6.46,-35.521 11.29,-52 12.43,-42.447 30.02,-82.703 45.42,-124 2.25,5.649 4.53,11.569 11,13.427 4.2,1.207 8.73,0.185 13,1.091 6.15,1.305 12.12,3.987 18,6.163 26.31,9.737 51.34,22.435 78,31.319 13.83,4.608 29.26,9.101 44,8.852 5.11,-0.087 10,-4.46 14,-7.291 6.08,-4.297 15.79,-11.757 17.32,-19.561 0.94,-4.811 -1.33,-12.491 -3.03,-17 -6.19,-16.411 -23.55,-27.169 -36.29,-38.13 -13.13,-11.295 -26.99,-21.704 -40,-33.156 -13.58,-11.952 -26.21,-24.926 -39,-37.714 -9.46,-9.459 -18.86,-19.083 -27.83,-29 -4.29,-4.745 -8.7,-11.629 -14.34,-14.825 -4.11,-2.328 -10.26,-3 -14.83,-4.316 -12.96,-3.73 -26.72,-6.694 -40,-9.241 -7.19,-1.379 -16.71,-2.393 -23,-6.36 -3.89,-2.457 -6.69,-6.602 -9.36,-10.258 -6.87,-9.409 -13.4,-20.759 -16.64,-32 5.55,-1.031 11.36,-1.522 17,-1.911 2.54,-0.175 5.48,0.308 7.89,-0.692 5.9,-2.449 2.99,-7.975 0.11,-11.397 7.74,0 15.31,-0.007 23,-0.834 2.82,-0.303 7.15,0.058 8.95,-2.679 2.75,-4.176 -3.31,-7.123 -5.95,-8.951 -5.57,-3.856 -10.26,-8.733 -15,-13.536 -1.72,-1.745 -4.94,-4.18 -4.94,-6.911 0,-4.24 9.01,-9.39 11.94,-11.843 11.66,-9.765 22.72,-20.227 34,-30.416 3.53,-3.19 14.74,-11.557 10.95,-17.497 -2.54,-3.984 -11.31,-0.17 -14.95,0.392 -7.09,1.095 -14.83,2.461 -22,2.232 -8.42,-0.269 -16.64,-2.593 -25,-2.957 4.89,-2.651 10.69,-3.333 16,-5.029 6.19,-1.976 11.77,-5.025 17,-8.856 2.46,-1.801 10.76,-6.583 7.34,-10.512 -3.16,-3.629 -13.25,-0.373 -17.34,0.111 -10.8,1.279 -22.5,-0.313 -32,-5.714 20.08,-5.7 37.54,-17.788 40.7,-40 0.58,-4.072 -0.19,-7.975 -0.7,-12 -7.51,1.292 -14.16,5.219 -22,4.957 -26.33,-0.881 -51.34,-20.509 -73,-33.354 -5.53,-3.28 -11.1,-6.602 -17,-9.179 -3.8,-1.659 -9.3,-3.095 -11.73,-6.699 -3.41,-5.079 -5.05,-12.1266 -7.58,-17.725 -5.57,-12.361 -11.518,-24.3563 -18.49,-36 -2.707,-4.5203 -7.203,-15.3231 -13.161,-16.0787 -2.621,-0.3326 -4.119,2.2055 -5.304,4.098 -2.611,4.1656 -4.786,8.5901 -6.982,12.9807 -9.739,19.4756 -20.816,40.67 -25.753,62 m 39,-68 c 14.716,22.2394 26.59,47.4751 34.28,73 1.93,6.398 8.52,20.604 4.11,26.7 -2.67,3.696 -8.72,8.003 -13.39,8.018 -6.025,0.018 -12.153,-3.063 -18,-4.268 -15.15,-3.122 -31.505,-5.981 -46,-11.45 5.251,-22.698 15.353,-45.9536 25.22,-67 3.876,-8.2676 6.953,-18.6932 13.78,-25 m 154,114 c -0.75,16.325 -14.15,27.617 -29,31.957 -4.62,1.35 -14.26,-0.871 -17.34,3.361 -3.25,4.474 4.32,9.028 7.34,10.983 10.78,6.979 23.41,8.698 36,8.699 -6.88,5.555 -17.5,6.256 -26,7.166 -3.26,0.349 -10.16,-0.006 -12.11,3.152 -3.69,5.965 9.42,10.427 13.11,11.678 17.31,5.863 35.16,3.77 53,3.004 -7.8,10.315 -19.32,18.637 -29,27.155 -22.36,19.682 -46.78,39.091 -75,49.525 -13.25,4.9 -30.23,7.505 -44,3.32 3.49,-2.935 7.59,-5.027 10.96,-8.174 7.71,-7.196 12.93,-17.428 14.6,-27.826 0.65,-4.065 1.72,-14.06 -3.68,-15.654 -3.83,-1.132 -8.07,5.901 -10.88,7.801 -6.1,4.109 -12.99,3.853 -20,3.853 1.61,-4.417 4.26,-8.369 5.32,-13 2.67,-11.619 -0.36,-24.55 -5.59,-35 -2.064,-4.124 -7.027,-13.776 -12.712,-13.079 -8.206,1.007 -8.095,18.443 -17.848,18.443 -3.932,0.001 -7.992,-6.213 -11.17,-8.23 -7.557,-4.797 -22.12,-7.587 -29.942,-2.105 -6.043,4.235 -5.985,14.324 -7.483,20.971 -2.82,12.516 -7.401,24.358 -14.575,35 -7.641,-3.869 -12.852,-12.542 -20,-17.56 -2.215,-1.555 -4.541,-3.012 -7,-4.151 -7.906,-3.664 -13.975,0.21 -13.992,8.711 -0.024,11.617 3.349,23.221 7.417,34 1.455,3.855 5.667,9.804 4.759,14 -0.679,3.135 -3.808,5.599 -6.185,7.482 -6.488,5.14 -14.784,10.058 -22.999,11.518 4.537,-13.411 10.237,-26.302 13.989,-40 0.914,-3.335 3.717,-12.268 -2.058,-13.079 -3.966,-0.557 -9.996,7.413 -13.931,9.079 4.763,-9.053 9.197,-17.953 11.5,-28 5.183,-22.618 4.076,-46.222 9.011,-69 5.429,-25.062 19.255,-47.657 39.489,-63.335 8.771,-6.796 19.896,-13.025 31,-14.665 -0.961,6.509 -8.745,18.828 -4.254,24.721 4.072,5.343 17.974,6.558 24.254,8.045 10.989,2.6 21.976,5.21 33,7.658 4.771,1.06 10.06,3.474 15,2.852 4.7,-0.593 8.33,-3.659 12,-6.403 2.92,-2.186 7.3,-4.519 8.88,-7.963 1.27,-2.754 -0.06,-6.142 -0.67,-8.91 -1.57,-7.021 -4.16,-13.886 -5.21,-21 11.81,3.402 22.65,11.162 33,17.576 23.72,14.695 50.18,30.778 79,25.424 m -260,-1 c -1.984,6.89 -5.637,13.29 -8.186,20 -3.748,9.863 -6.463,20.537 -7.814,31 -6.783,-2.301 -11.913,-8.114 -17,-12.961 -9.568,-9.118 -18.334,-18.705 -26.6,-29.039 -4.37,-5.463 -9.768,-11.053 -11.4,-18 6.737,-0.139 13.245,-2.118 20,-1.985 17.512,0.345 34.739,4.712 51,10.985 m 117,69 c 6.881,11.253 12.82,27.759 7.867,40.995 -1.609,4.302 -9.662,6.947 -9.66,10.994 10e-4,3.747 6.016,5.374 8.793,6.265 11.47,3.681 20.83,0.097 31,-5.254 -1.34,10.355 -5.46,20.724 -14.01,27.239 -4.3,3.274 -14.637,5.512 -16.583,10.85 -1.338,3.672 2.873,5.842 5.593,7.031 7.2,3.138 15.32,2.88 23,2.88 -2.25,4.832 -6.26,8.258 -10,12 -5.9,5.897 -11.73,11.785 -18,17.285 -10.827,9.497 -21.787,20.209 -35,26.392 -20.57,9.625 -47.976,9.229 -69.999,5.894 -2.835,-0.429 -5.801,-0.826 -7.108,-3.719 -2.302,-5.099 1.53,-17.661 -7.895,-17.07 -2.344,0.147 -4.788,1.484 -6.998,2.218 2.488,-5.231 7.05,-9.572 10.754,-14 9.559,-11.427 22.398,-23.603 29.119,-36.996 1.878,-3.742 -0.864,-7.364 -4.703,-4.577 -3.767,2.733 -6.483,7.832 -9.17,11.573 -5.294,-2.588 -7.966,-7.941 -10.691,-13 -5.397,-10.022 -8.688,-20.892 -10.909,-32 -1.039,-5.194 -2.53,-10.783 -1.4,-16 7.851,2.31 14.401,8.118 19.911,14.001 3.194,3.411 6.86,9.468 12.089,9.797 5.56,0.35 9.959,-7.676 12.208,-11.798 7.261,-13.315 13.138,-30.767 13.792,-46 8.638,-1.604 18.784,-1.506 25.957,4.394 2.966,2.44 5.293,9.847 9.176,10.445 2.789,0.429 5.792,-2.063 7.867,-3.6 6.196,-4.588 9.636,-11.043 15,-16.239 m -32,30.656 c -11.746,3.466 -17.824,17.308 -19.561,28.344 -0.549,3.49 -2.328,16.927 4.522,15.248 2.459,-0.602 3.53,-2.982 3.891,-5.253 0.88,-5.54 0.37,-10.629 2.627,-15.995 1.988,-4.726 5.925,-9.311 10.521,-11.682 2.314,-1.194 6.308,-0.754 7.968,-2.921 4.49,-5.861 -5.992,-8.914 -9.968,-7.741 M 378,285 c -1.515,8.523 -6.197,16.783 -8.997,25 -6.015,17.654 -11.554,35.779 -15.579,54 -14.082,63.759 -17.613,130.201 -9.424,195 -4.676,-1.977 -8.498,-5.377 -13,-7.738 C 319.545,545.253 306.018,540.559 293,540 v -4 c 5.021,-0.41 15.589,-1.44 17.593,-7.105 2.431,-6.876 -9.956,-10.794 -14.593,-11.895 0.076,-9.224 2.482,-18.027 4.336,-27 1.387,-6.715 2.553,-13.705 5.464,-20 3.508,-7.587 13.306,-16.115 7.173,-25.808 -2.201,-3.478 -5.619,-1.278 -6.539,1.853 -1.392,4.737 1.212,16.592 -7.376,16.123 -5.983,-0.327 -4.158,-12.147 -7.045,-15.806 -3.807,-4.827 -6.029,2.661 -5.723,5.614 0.174,1.677 0.499,3.351 0.71,5.024 -5.1,0 -9.972,0.066 -15,1 -2.422,-5.863 -0.371,-8.599 2.076,-14 0.874,-1.929 1.762,-4.694 -0.422,-6.168 -4.697,-3.17 -10.691,9.853 -11.167,13.168 -0.801,5.573 3.663,10.397 3.17,16 -1.353,15.364 -7.427,30.435 -8.657,46 -6.94,1.026 -20.861,6.89 -13.427,15.787 2.823,3.378 7.404,4.843 11.427,6.213 -1.97,5.936 -12.552,5.348 -18,6.131 -16.872,2.427 -30.715,9.053 -45,17.869 2.544,-20.114 9.514,-39.976 16.308,-59 21.796,-61.033 55.853,-115.161 101.692,-161 19.925,-19.925 42.97,-40.675 68,-54 m 513,19 c 1.75,1.916 3.319,3.93 5.005,5.896 2.663,3.105 9.798,5.932 9.618,-0.915 -0.177,-6.776 -11.676,-18.127 -18.514,-13.374 -6.228,4.329 -3.115,13.672 3.891,8.393 m 235,13 c -6.65,0 -13.36,-0.268 -20,0.019 -3.02,0.131 -6.48,0.795 -7.64,4.04 -0.99,2.762 0.92,6.282 1.64,8.941 l -20,1 c -0.93,-4.048 -3.48,-9.744 -2.23,-13.895 0.86,-2.84 3.93,-4.161 6.23,-5.634 5.08,-3.248 10.06,-6.595 15,-10.046 1.96,-1.369 4.43,-3.518 7,-3.312 2.85,0.23 5.11,3.04 7,4.892 4.53,4.439 9.34,8.802 13,13.995 m -778.005,-3.098 c -4.355,1.3 -8.445,5.275 -11.995,7.982 -9.188,7.008 -17.995,14.74 -25.96,23.116 -1.762,1.853 -11.775,14.487 -3.075,14.248 4.083,-0.112 8.432,-7.609 11.039,-10.248 6.884,-6.967 14.256,-13.567 21.996,-19.575 3.853,-2.991 9.567,-5.667 12.377,-9.724 2.425,-3.502 -0.447,-6.974 -4.382,-5.799 M 1070,320 c 0.34,7.383 8.86,20.038 1,25 -0.67,-3.237 -1.06,-8.172 -3.56,-10.577 -3.63,-3.478 -10.6,1.848 -11.74,5.617 -1.88,6.185 7.44,13.795 0.3,17.96 -1.04,-4.398 -2.46,-10.114 -5.09,-13.847 -1.64,-2.331 -5.27,-3.422 -6.5,0 -1.67,4.622 4.11,13.398 5.59,17.847 -2.12,0.771 -4.57,1.991 -6.89,1.578 -6.42,-1.141 -4.84,-13.924 -5.4,-18.578 -0.43,-3.616 -2.53,-9.385 -0.64,-12.772 1.69,-3.036 5.92,-3.408 8.93,-4.239 8.05,-2.221 15.86,-6.542 24,-7.989 m -41,20 c 1.26,6.796 1.94,14.087 2,21 -9.5,4.022 -16.41,13.318 -25,19 0.91,-6.178 1.19,-15.46 4.02,-21 3.59,-7 12.62,-14.523 18.98,-19 m 51,10 c 2.3,5.526 7.97,12.925 1,17 -2.04,-6.706 -10.58,-3.71 -12.29,2.093 -1.15,3.894 2.83,7.038 2.32,10.848 -0.27,2.036 -1.61,2.84 -3.03,4.059 -0.81,-1.726 -1.64,-3.37 -2.59,-5.024 -0.73,-1.257 -1.4,-2.729 -2.36,-3.823 -1.97,-2.227 -6.53,-3.582 -6.75,0.906 -0.23,4.891 7.22,9.613 3.99,14.612 -3.53,5.477 -22.56,14.692 -25.91,5.27 -2.39,-6.737 3.31,-16.783 3.62,-23.941 10.72,-0.222 20.62,-5.195 29,-11.68 4.44,-3.435 7.87,-7.929 13,-10.32 m -785.718,15.047 c -3.864,2.056 -9.101,8.741 -10.319,12.938 -0.905,3.116 1.515,6.394 4.879,4.878 3.758,-1.693 9.095,-9.032 10.397,-12.858 1.193,-3.506 -1.196,-6.959 -4.957,-4.958 M 1091,371 c 4.78,6.657 9.43,12.992 16,18 -0.67,0.875 -1.34,2.165 -2.32,2.823 -6.89,4.622 -8.36,-5.956 -13.77,-7.481 -3.14,-0.886 -6.7,2.747 -8.89,4.543 -1.43,1.169 -3.11,2.408 -3.78,4.205 -2.22,5.928 6.03,12.315 4.76,18.91 h -2 c -1.24,-2.97 -4.92,-14.2 -9.68,-11.824 -3.03,1.512 -1.05,5.649 -0.16,7.824 2.2,5.387 4.48,9.103 -0.22,13.83 -7.92,7.962 -17.28,14.951 -25.94,22.086 -2.75,2.263 -7.05,6.849 -11,6.202 -5.06,-0.828 -9.49,-8.299 -12.25,-12.118 -2.3,-3.169 -6.5,-7.816 -6.21,-12 0.21,-3.037 2.77,-5.626 4.42,-8 3.11,-4.46 5.94,-8.982 8.04,-14 4,1.453 7.61,3.877 12,3.917 5.92,0.053 11.98,-2.922 17,-5.79 12.71,-7.258 24.26,-18.74 32,-31.127 h 2 m 85,37 c -2.36,6.236 -6.36,11.814 -8.99,17.999 -0.9,2.119 -1.75,5.48 -4.28,6.188 -3.78,1.054 -9.48,-2.86 -12.73,-4.431 -2.88,-1.391 -6.15,-2.164 -8.91,-3.725 -2.21,-1.247 -3.82,-3.289 -6.18,-4.304 -4.55,-1.96 -10.12,-2.743 -14.91,-4.151 -3.25,-0.957 -7.59,-3.662 -11,-3.338 -8.15,0.773 -6.34,10.581 -5,15.762 -2.99,-0.261 -6.02,-1.494 -8.99,-1.528 -5.92,-0.067 -9.52,6.5 -7.16,11.528 4.19,8.904 13.6,9.171 19.15,16 -11.33,0.894 -21.98,-0.433 -30.99,7.429 -4.62,4.043 -9.47,9.223 -2.99,14.057 6.91,5.147 12.85,0.203 19.98,0.168 6.16,-0.031 14.19,6.973 16.44,12.346 4.08,9.788 6.02,20.374 10.83,30 2.3,4.598 8.18,10.716 8.06,16 -0.18,7.746 -8.53,13.378 -13,18.514 -1.44,1.653 -2.24,4.207 0.01,5.659 3.52,2.278 8.3,-2.924 10.36,-5.213 3.69,-4.102 6.14,-12.02 10.69,-14.932 2.16,-1.382 5.17,-1.019 7.61,-1.028 -4.68,19.745 -15.41,38.992 -22.57,58 -11.14,29.526 -20.19,59.858 -29.45,90 -3.69,11.994 -5.01,21.516 -2.9,34 0.57,3.343 4.23,11.363 1.3,14.012 -2.42,2.189 -7.34,1.912 -10.38,2.423 -6.66,1.12 -13.53,2.681 -20,4.601 -6.77,2.007 -13.58,4.333 -20,7.273 -4.35,1.991 -9.05,5.481 -14,5.481 -3.98,0 -7.46,-2.424 -11,-3.914 -4.43,-1.863 -9.3,-3.113 -14,-4.069 -17.521,-3.561 -35.346,-5.493 -53,-8.231 -8.004,-1.242 -16.019,-2.436 -24,-3.826 -3.585,-0.624 -7.369,-2.132 -11,-2.216 -2.993,-0.07 -6.011,1.169 -9,1.466 1.03,-5.293 1.772,-12.193 4.177,-17 1.851,-3.698 5.245,-6.796 7.822,-10 5.658,-7.033 11.297,-14.07 17.081,-21 5.234,-6.27 12.921,-13.035 15.374,-21.089 1.257,-4.13 -0.336,-8.704 -0.439,-12.911 -0.237,-9.649 -0.27,-19.392 -1.185,-29 -0.771,-8.1 -2.263,-16.133 0.17,-24 25.677,2.027 52.511,-2.888 78,-6.579 5.94,-0.861 12.15,-1.26 18,-2.61 1.93,-0.447 4.79,-1.391 4.79,-3.861 0,-4.322 -6.09,-3.762 -8.79,-3.359 -10.65,1.587 -21.31,3.284 -32,4.564 -30.822,3.69 -71.766,12.604 -94.1,-16.17 -2.823,-3.636 -5.247,-7.643 -6.81,-11.985 -10.934,-30.377 13.814,-57.963 30.895,-80 4.935,-6.366 8.178,-15.884 14.405,-21.034 5.983,-4.948 14.877,-6.567 21.61,-10.394 l 21,-11.996 c 3.051,-1.724 7.21,-5.008 10.9,-4.868 3.79,0.145 5.63,5.583 7.33,8.292 4.3,6.845 9.68,13.486 15.77,18.815 2.27,1.984 5.61,5.062 8.91,3.937 2.43,-0.828 4.28,-3.472 6.18,-5.088 3.57,-3.039 7.31,-5.907 10.91,-8.911 14.53,-12.11 28.81,-24.542 43,-37.039 5.12,-4.511 12.26,-14.251 19,-15.926 4.45,-1.106 11.53,2.117 16,3.012 15.08,3.017 29.66,6.637 44,12.2 m -366,-7 c -1.055,2.208 -2.014,3.856 -4.059,5.352 -1.765,1.291 -3.783,2.107 -5.941,2.434 -1.869,0.282 -4.029,0.305 -5.826,-0.35 -5.763,-2.103 -6.457,-11.035 -0.08,-13.018 2.057,-0.639 4.091,0.512 5.906,1.332 3.309,1.494 6.615,2.937 10,4.25 m -29,0 c 0.429,4.168 2.076,7.323 4,11 l -9,3 c -2.693,-6.368 -1.495,-10.935 5,-14 m 405,9 c 25.48,25.554 49.48,52.335 76,76.911 8.6,7.967 17.85,15.368 27,22.689 5.58,4.463 11.8,8.565 16,14.4 -11.06,0 -21.97,0.744 -33,1.015 -4.28,0.105 -8.75,1.583 -13,0.566 -6.96,-1.666 -14.09,-7.685 -20,-11.584 -12.38,-8.159 -24.67,-16.441 -37,-24.664 -3.02,-2.01 -7.12,-3.936 -9.36,-6.851 -1.46,-1.898 -1.29,-4.408 -2.39,-6.483 -2.28,-4.279 -6.05,-7.601 -8.26,-11.999 -1.62,-3.229 -2.37,-8.115 -6.1,-9.688 -2.68,-1.13 -5.48,0.643 -7.89,1.688 0.31,-15.083 5.48,-36.34 18,-46 m -421,35 c 10.267,10e-4 23.293,4.194 32.999,0.005 5.884,-2.538 11.239,-10.309 8.536,-16.916 C 804.69,423.577 798.948,420.853 796,417 c 11.223,0.365 17.978,15.661 13.397,25.621 -1.16,2.522 -4.299,4.046 -6.398,5.688 -1.562,1.221 -3.069,2.774 -4.999,3.409 -2.462,0.809 -5.428,-0.256 -8,-0.088 -8.727,0.567 -20.067,2.386 -25,-6.63 M 294.333,421.046 c -3.769,2.467 0.855,7.289 4.06,4.908 3.357,-2.494 -0.708,-7.102 -4.06,-4.908 M 1126,425 c -5.89,6.041 -14.27,4.568 -16,-4 5.45,0.802 10.64,2.771 16,4 m -341,14 c -0.92,-2.06 -2.572,-4.025 -3.233,-6.171 -0.491,-1.592 -0.363,-3.223 0.427,-4.7 5.945,-11.111 23.476,3.611 13.697,9.218 -1.139,0.654 -2.617,0.935 -3.89,1.185 -2.316,0.454 -4.653,0.449 -7.001,0.468 m -11,-13 c -0.627,3.799 -0.29,7.191 0,11 h -6 c 0.064,-5.453 1.23,-8.15 6,-11 m 44,3 c 3.007,0.382 6.029,0.836 9,1.45 1.669,0.345 3.416,0.707 4.981,1.404 4.657,2.077 5.824,7.221 0.91,9.966 -3.03,1.693 -6.659,0.785 -9.886,0.33 -2.054,-0.289 -4.365,-0.352 -5.402,-2.468 -1.504,-3.073 -0.19,-7.522 0.397,-10.682 m 324,9 c -4.37,0.811 -8.56,1 -13,1 0.32,-9.858 8.85,-7.42 13,-1 m -314.682,-3.914 c -3.719,2.131 -0.419,7.682 3.248,5.626 3.729,-2.09 0.463,-7.753 -3.248,-5.626 M 1096,434 l 9,3 c -3.05,4.916 -10.22,2.988 -9,-3 m -335,3 v 2 h -2 c 0.545,-1.635 0.365,-1.455 2,-2 m 362,7 c -2.43,2.299 -5.32,3.982 -8,6 -2.65,-2.089 -3.91,-3.801 -5,-7 4.77,-1.135 8.54,-1.146 13,1 m 23,2 2,23 c -3.03,-0.802 -5.88,-1.689 -9,-2 l -4,-16 c 4.18,-2.108 6.01,-4.834 11,-5 m 13,28 -5,-2 c 1.26,-5.146 1.27,-9.744 0.58,-15 -0.38,-2.873 -1.38,-7.069 1.02,-9.377 2.91,-2.792 5.2,0.532 5.17,3.396 -0.06,7.667 -1.76,15.277 -1.77,22.981 M 763,454 c -1.333,2.92 -3.203,5.337 -5,8 -2.155,-3.375 -0.805,-5.668 1,-9 l 4,1 m 370,18 c -4.83,-0.816 -13.07,-9.599 -12.12,-14.941 1.08,-6.045 6.52,-2.69 7.82,0.96 l 1.99,5.981 c 0.94,2.683 1.83,5.199 2.31,8 M 778,460 c 0.32,2.536 1.53,6.129 0.382,8.567 -1.609,3.415 -9.097,3.755 -12.382,4.433 -3.523,-9.762 2.909,-13.635 12,-13 m 161,-1 c -5.84,15.402 -20.163,28.132 -28.947,42 -3.946,6.23 -6.768,16.58 -12.328,21.348 -3.122,2.677 -7.959,3.571 -11.725,5.052 -8.026,3.156 -16.035,6.299 -24,9.612 -28.748,11.956 -58.558,25.945 -89,32.988 4.203,-7.549 8.069,-13.063 8.406,-22 0.259,-6.872 -3.057,-19.572 2.451,-25.146 3.164,-3.201 10.92,-3.784 15.143,-4.995 10.84,-3.108 21.467,-7.046 32,-11.051 11.719,-4.456 23.667,-8.742 35,-14.128 24.285,-11.542 47.366,-25.008 73,-33.68 m -146,1 c -0.348,4.362 -1.986,5.55 -6,7 -0.83,-5.354 0.647,-6.824 6,-7 m 309,2 -1,7 -9,-2 c 1.51,-4.539 5.76,-4.21 10,-5 m 72,2 c 1.47,3.507 6.46,9.076 5.97,12.851 -0.54,4.181 -7.13,2.842 -8.94,0.446 -2.68,-3.54 -0.34,-9.695 0.97,-13.297 h 2 m -890,1 v 2 l -6,-1 c 2.052,-0.874 3.747,-0.953 6,-1 m 800,1 v 5 c -2.2,-0.094 -3.89,-0.356 -6,-1 1.9,-2.181 3.26,-3.069 6,-4 m 26.44,0.752 c 5.25,-1.568 16.89,11.787 7.54,14.242 -4.93,1.295 -8.66,-4.924 -9.3,-8.989 -0.28,-1.749 -0.41,-4.607 1.76,-5.253 M 293,468 l -1,1 1,-1 m -12,7 -2,11 h -9 c 0.37,-4.689 1.138,-9.375 2,-14 l 9,3 m 507,0 c 0.925,3.241 1.988,4.495 5,6 -1.354,4.812 -4.317,7.407 -9,9 0,-4.436 -0.189,-8.631 -1,-13 1.745,-0.89 3.125,-1.453 5,-2 m 375,39 c -5.47,4.257 -8.96,9.069 -10,16 -4.93,-0.014 -12.49,0.384 -16.91,-2.028 -3.63,-1.986 -5.54,-6.453 -7.33,-9.972 -4.53,-8.898 -8.5,-18.245 -10.76,-28 7.04,-3.919 15.05,-12.585 23,-14.088 3.88,-0.735 10.77,2.258 13.01,5.478 2.29,3.284 2.61,8.762 3.39,12.61 1.38,6.862 3.44,13.354 5.6,20 m -118,-37.517 c -13.05,1.745 -25.84,3.526 -39,4.428 -4.92,0.337 -12.46,-1.484 -16.852,1.117 -2.222,1.316 -2.877,3.55 -3.089,5.973 -0.566,6.454 -1.597,14.6 -0.946,20.994 0.301,2.964 1.601,5.607 4.931,5.647 5.611,0.068 12.106,-4.463 16.956,-6.889 13.14,-6.568 29.85,-12.772 40.89,-22.572 4.37,-3.876 3.94,-9.612 -2.89,-8.698 M 295,477 c -0.596,4.424 -1.79,8.706 -3,13 -8.095,-2.977 -4.787,-12.741 3,-13 m 481,2 v 11 c -4.08,-0.011 -7.963,-0.49 -12,-1 1.395,-7.205 5.338,-8.739 12,-10 m 396,8 c -1.16,4.245 -2.82,8.177 -5,12 -2,-4.449 -2.61,-10.135 -3,-15 2.9,0.687 5.36,1.612 8,3 m -144,0 c -3.84,3.877 -9.19,5.777 -14,8.258 -6.94,3.583 -13.4,7.662 -21,9.742 l 1,-16 c 11.18,-2.075 22.71,-0.574 34,-2 m 213,37 c -5.01,1.797 -11.72,-0.615 -17,-0.975 -18.33,-1.252 -36.33,-5.404 -54,-10.025 1.55,-6.507 4.49,-13.228 7.88,-18.999 1.37,-2.341 3.21,-5.604 6.16,-6.12 4.66,-0.816 11.28,5.806 14.96,8.169 14.13,9.071 28.08,18.559 42,27.95 m -964,-31 -1,6 c -3.449,-1.025 -5.654,-2.27 -8,-5 l 9,-1 m 504,5 c -0.658,7.536 -4.059,14.645 -5.765,22 -2.077,8.955 -2.235,17.866 -2.235,27 -16.812,0.139 -34.385,12.674 -41,28 -8.023,-3.744 -14.727,-14.824 -12.556,-24 1.538,-6.495 7.963,-12.451 11.502,-18 8.11,-12.714 16.031,-25.653 23.054,-39 9.335,1.379 17.377,4 27,4 m -492,2 h -5 v -4 c 2.782,0.812 3.627,1.453 5,4 m -15,6 v 6 h -9 l 1,-8 8,2 m 15,2 -1,6 h -6 v -6 h 7 m -17,12 c -0.026,7.255 -1.615,9.346 -9,8 0.117,-2.73 0.499,-5.314 1,-8 h 8 m -16,1 v 6 c -2.146,-0.504 -3.979,-1.119 -6,-2 v -2 c 2.022,-0.881 3.854,-1.496 6,-2 m 31,2 -1,6 h -7 l 1,-8 c 2.436,0.507 4.674,1.12 7,2 m 889,0 c -2.51,6.832 -8.39,2.909 -14,5 1.68,-8.251 7.46,-6.349 14,-5 m -875,3 c -2.311,1.393 -4.309,1.765 -7,2 v -3 l 7,1 m 991,6 c -0.77,2.911 -2.08,5.938 -1.56,9 2.29,13.551 22.11,23.418 34.56,23.959 5.13,0.223 9.19,-1.587 14,-2.959 2.9,12.226 -11.33,25.389 -23,27.44 -4.61,0.809 -10.42,-0.609 -15,-1.36 -29.05,-4.765 -56.13,-18.036 -83,-29.501 -12.58,-5.37 -25.63,-11.487 -39,-14.579 0.02,-6.384 0.57,-15.275 8,-17.262 4.41,-1.178 9.59,0.355 14,0.991 9.66,1.393 19.31,2.822 29,3.985 10.63,1.276 22.32,2.662 33,2.246 9.67,-0.377 19.3,-1.954 29,-1.96 m -130,3 c 1.24,-0.162 2.76,-0.574 4.03,-0.28 9.15,2.119 1.23,13.8 -3.43,4.281 -0.59,-1.222 -0.5,-2.698 -0.6,-4.001 m 167,22 c -2.06,-13.375 -19.11,-18.429 -30,-14 -1.38,-6.197 3.36,-8.241 9,-7.906 7.44,0.442 16.33,4.025 21.7,9.235 4.61,4.47 6.76,10.506 -0.7,12.671 M 270,537 c -2.92,1.223 -5.837,1.476 -8,-1 l 8,1 m 15,0 v 2 l -7,-1 c 2.331,-0.984 4.457,-0.981 7,-1 m -16,9 c -0.072,8.687 -1.628,17.33 -2,26 h -5 v -26 h 7 m 15,1 c -1.642,8.846 -2.293,18.041 -3,27 l -6,-1 c 0,-9.087 1.813,-17.953 2,-27 2.528,0.052 4.582,0.278 7,1 m -30,0 v 17 c 0,2.687 0.545,6.212 -0.603,8.725 -1.294,2.832 -5.08,3.789 -7.354,5.669 -8.059,6.661 -4.81,12.3 -0.043,19.606 -13.958,-0.288 -30.45,-5.547 -42,-13.36 -4.718,-3.191 -10.805,-8.191 -9.153,-14.64 1.6,-6.243 7.836,-9.582 13.153,-12.241 13.575,-6.788 30.831,-10.717 46,-10.759 m 45,50 c 0.876,-4.737 1.282,-8.812 -1.653,-12.985 -2.458,-3.496 -6.922,-5.695 -8.029,-10.03 -2.008,-7.861 1.66,-17.885 1.682,-25.985 14.213,0.039 30.36,4.804 42,13.043 4.031,2.853 10.938,8.266 10.123,13.957 -0.671,4.681 -5.513,8.203 -9.123,10.64 -10.075,6.803 -23.096,9.757 -35,11.36 m 1022,-41 c -5.93,-0.521 -12.13,-2.479 -15,-8 5.97,0.895 11.23,3.199 15,8 m -548,-1 c -5.925,13.729 -19.483,22.044 -34,24 2.429,-9.607 8.003,-8.161 14.996,-12.854 3.824,-2.566 5.516,-7.372 9.278,-9.689 2.851,-1.757 6.52,-1.448 9.726,-1.457 m -480,35 c -1.94,5.411 -6.476,7.226 -12,7.826 -9.832,1.069 -27.082,0.171 -32,-9.826 5.054,-1.501 8.211,-5.708 13,-7.393 11.193,-3.94 22.654,3.104 31,9.393 m -101,-6 c 10.134,9.671 22.706,14.893 36,18.709 30.476,8.748 67.289,6.428 97,-4.404 8.158,-2.974 14.279,-8.864 22,-12.305 0.355,8.264 1.341,16.795 2.424,25 0.537,4.065 2.533,10.037 1.803,14 -0.856,4.642 -5.667,9.269 -9.227,12 -0.768,-6.047 -2.379,-11.949 -3.049,-18 -0.313,-2.824 -0.087,-7.2 -1.859,-9.562 -1.231,-1.642 -3.168,-2.015 -5.096,-1.695 -4.798,0.798 -17.692,4.713 -19.798,9.365 -1.173,2.59 -0.192,6.213 0.226,8.892 1.053,6.734 3.037,13.167 3.576,20 l -9,2 c -1.657,-8.027 -3.407,-15.938 -4.889,-23.999 -0.461,-2.508 -1.556,-6.584 -4.982,-6.08 -4.051,0.597 -2.774,6.446 -2.4,9.079 0.79,5.562 7.564,20.879 1.123,24.146 -3.823,1.938 -8.74,2.397 -12.852,3.564 -11.115,3.155 -22.554,5.807 -34,7.42 -4.977,0.702 -11.014,3.1 -16,2.389 -6.288,-0.896 -13.174,-5.286 -19,-7.8 -5.331,-2.3 -16.742,-5.102 -19.972,-10.113 -1.976,-3.064 -0.958,-8.14 -1.043,-11.606 -0.185,-7.57 -0.556,-15.43 -1.075,-23 -0.572,-8.367 -3.237,-20.072 0.09,-28 m 174,20 c -1.523,4.779 -4.135,8.806 -8,12 -1.108,-4.655 -1,-9.239 -1,-14 3.161,0.276 5.979,1.042 9,2 m 4,11 c 6.311,33.499 11.027,67.453 24.861,99 3.919,8.936 8.031,17.703 13.204,26 2.275,3.648 6.214,7.391 4.663,12 -2.138,6.356 -7.042,12.469 -10.728,18 -2.398,3.599 -4.623,7.672 -8.093,10.362 -3.745,2.903 -8.606,4.225 -12.907,6.065 -6.131,2.625 -12.037,5.838 -18,8.82 -20.43,10.215 -41.053,20.066 -62,29.177 -9.09,3.954 -19.985,10.579 -30,11.352 -8.184,0.632 -18.008,-3.586 -26,-5.352 -7.622,-1.683 -19.281,-2.571 -25.671,-7.278 -3.451,-2.542 -5.439,-7.487 -7.468,-11.146 -5.393,-9.724 -10.02,-19.895 -14.63,-30 -14.851,-32.553 -27.59,-68.128 -31.061,-104 -1.148,-11.858 -0.203,-23.191 -0.17,-35 6.411,1.143 12.218,4.862 18,7.753 9.248,4.624 18.493,9.172 28,13.246 4.903,2.101 14.631,4.067 17.836,8.5 1.82,2.518 2.038,6.551 2.794,9.501 1.634,6.377 3.589,12.766 5.704,19 0.874,2.574 2.526,8.63 6.496,6.824 3.519,-1.6 1.694,-6.184 0.836,-8.824 -2.882,-8.872 -5.926,-17.638 -6.666,-27 8.113,-0.354 16.133,-2.828 24,-4.664 16.422,-3.834 32.638,-8.372 49,-12.463 5.337,-1.334 10.594,-3.115 16,-4.119 5.052,-0.938 11.641,-1.419 15.985,-4.343 C 355.143,638.903 359.609,623.458 370,615 m -185,10 v 18 c -4.811,-2.003 -9.5,-4.373 -14,-7 3.883,-4.489 8.417,-8.837 14,-11 m 670,124 c -3.294,3.871 -7.822,5.921 -12,8.745 -8.132,5.497 -16.509,11.612 -22.772,19.255 -2.696,3.291 -4.216,7.706 -3.929,12 0.184,2.756 1.541,5.221 0.673,8 -2.04,6.53 -7.238,10.834 -7.972,18 -8.657,1.368 -10.757,13.976 -13.86,21 -9.657,21.858 -19.991,43.4 -32.14,64 -11.232,-3.234 -22.11,-9.078 -33,-13.399 -13.75,-5.456 -30.813,-10.759 -41.985,-20.786 C 676.57,855.544 668.305,839.231 660.72,826 c -4.633,-8.081 -12.197,-17.73 -14.024,-27 -1.138,-5.772 5.8,-9.525 9.289,-13.015 7.359,-7.359 13.745,-16.248 17.551,-25.985 2.386,-6.102 3.454,-12.483 3.464,-19 0.047,-29.107 -21.937,-47.822 -50,-50.826 -6.937,-0.743 -13.201,1.271 -20,1.826 -3.094,-13.372 -9.396,-25.822 -13,-39 12.632,-5.435 30.253,-8.857 44,-7.911 17.272,1.19 35.246,6.849 52,11.038 19.511,4.877 38.665,10.939 58,16.452 15.282,4.357 32.384,8.438 46,16.889 12.821,7.956 22.926,20.622 33.089,31.532 8.957,9.615 19.41,18.01 27.911,28 M 601,696 c -5.946,4.275 -11.234,10.135 -18,13 -4.119,-5.734 -8.41,-11.338 -12.626,-17 -1.652,-2.219 -4.406,-5.03 -4.543,-7.961 -0.125,-2.677 2.3,-4.424 4.188,-5.883 4.138,-3.198 15.698,-12.207 21.279,-8.124 2.253,1.648 2.839,5.465 3.561,7.968 1.763,6.111 3.853,12.069 6.141,18 m -21,100 c -1.821,12.328 -8.177,24.025 -13.756,35 -2.17,4.269 -4.504,9.98 -8.573,12.775 -8.96,6.157 -22.481,8.291 -32.671,11.917 -5.995,2.134 -11.947,4.332 -18,6.307 -2.423,0.791 -5.313,2.074 -7.816,0.88 -4.013,-1.915 -6.996,-8.347 -9.464,-11.879 -7.631,-10.922 -14.529,-22.441 -21.141,-34 -5.579,-9.753 -10.431,-19.893 -15.321,-30 -1.634,-3.379 -5.324,-9.081 -4.442,-12.961 0.611,-2.687 3.288,-4.456 5.189,-6.209 3.69,-3.404 7.202,-6.959 10.995,-10.254 12.187,-10.587 22.828,-22.933 33.961,-34.576 11.582,-12.114 23.557,-24.276 34.46,-37 4.116,-4.804 8.538,-12.398 15.49,-7.735 9.134,6.125 15.714,18.062 22.216,26.735 2.278,3.04 6.302,6.94 6.317,11 0.01,2.932 -2.199,5.57 -3.572,8 -2.346,4.151 -4.411,8.505 -6.008,13 -6.908,19.446 -6.237,46.022 12.136,59 m 36,-97.671 c 6.876,-1.197 14.397,-0.347 21,1.697 7.701,2.383 16.105,5.102 21.816,11.067 28.248,29.512 -2.696,81.41 -37.816,87.471 -6.52,1.125 -12.457,1.344 -19,0.241 -18.814,-3.173 -31.553,-20.1 -30.957,-38.805 0.793,-24.849 18.374,-57.044 44.957,-61.671 m -4,20.203 c -12.685,3.021 -23.703,16.726 -24.826,29.468 -1.359,15.43 13.431,23.074 26.826,19.76 11.521,-2.851 21.618,-14.049 23.671,-25.76 2.866,-16.346 -9.827,-27.241 -25.671,-23.468 m 286,3.468 -2,12 c -11.818,2.734 -22.451,8.698 -34,12 l -1,-4 c 11.985,-6.379 23.931,-16.156 37,-20 m -280,4.287 c 10.378,-1.225 13.801,7.737 11.211,16.713 -2.702,9.361 -11.403,17.036 -21.211,17.811 C 597.722,761.623 592.875,751.88 596.133,743 599.588,733.586 608.33,727.428 618,726.287 M 422,733 c -0.535,3.019 -1.496,5.327 -3,8 h -2 l -5,-9 10,1 m 480,219 c 19.301,-13.877 33.318,-32.811 47,-52 8.728,-12.24 17.97,-24.828 23.316,-39 4.33,-11.481 11.963,-34.882 -4.317,-41.106 -5.093,-1.948 -10.473,0.197 -14.999,2.595 -10.536,5.583 -18.684,14.156 -26.999,22.511 -3.179,3.194 -9.338,13.368 -14.723,9.932 -3.559,-2.271 -4.21,-8.21 -5.278,-11.932 -2.712,-9.452 -4.414,-20.378 -9.414,-28.961 C 893.273,808.352 886.36,804.843 881,801.344 866.988,792.198 848.036,779.487 831,778 c 4.538,-9.313 18.164,-15.965 27,-20.769 15.649,-8.51 34.841,-17.579 53,-18.188 11.844,-0.397 25.284,3.289 37,5.203 20.99,3.43 43.877,4.266 64,11.452 9.8,3.5 18.94,9.39 28,14.442 12.32,6.875 24.73,13.601 37,20.579 10.03,5.703 20.06,11.429 30,17.27 4.94,2.903 10.76,5.478 14.36,10.104 3.96,5.086 5.64,11.897 7.64,17.907 3.87,11.622 7.21,23.026 9.66,35 2.64,12.867 7.16,27.909 4.22,41 -1.18,5.253 -4.59,9.612 -7.55,14 -6.74,10.003 -14.86,19.424 -23.33,28 -9.59,9.706 -19.71,18.765 -30,27.718 -4.72,4.105 -9.35,9.509 -15,12.333 -6.86,3.429 -16.5,3.206 -24,4.104 -20.91,2.505 -41.1,1.465 -62,-0.066 -11.714,-0.859 -23.469,-2.997 -35,-5.289 -5.208,-1.035 -11.209,-1.503 -16,-3.9 -12.568,-6.289 -24.779,-23.347 -28,-36.9 M 429,742 c 2.728,20.241 13.72,40.931 22.753,59 18.004,36.013 40.981,69.552 67.247,100 9.846,11.414 20.035,24.807 32,34 -2.013,8.78 -4.921,17.422 -7.656,26 -1.126,3.532 -1.598,7.816 -3.908,10.816 -3.264,4.238 -9.108,6.88 -13.436,9.904 -10.004,6.99 -20.06,13.905 -30,20.99 -14.204,10.12 -27.391,21.4 -41,32.29 -7.408,5.93 -15.171,13.31 -24,17.04 -4.921,2.08 -9.831,1.64 -15,2.13 -7.665,0.73 -15.288,1.79 -23,1.83 -7.483,0.04 -16.876,3.11 -24,-0.14 -7.05,-3.22 -12.631,-10.49 -18,-15.86 -11.534,-11.53 -22.979,-23.07 -34.09,-35 -35.814,-38.448 -65.454,-79.294 -91.334,-125 -6.174,-10.903 -11.928,-21.986 -17.885,-33 -3.842,-7.105 -8.442,-14.193 -10.691,-22 14.723,3.936 29.095,9.265 44,12.576 6.896,1.531 18.969,1.964 24.61,6.281 4.741,3.63 7.471,12.144 10.734,17.143 2.996,4.589 5.934,10.057 9.956,13.833 1.526,1.432 4.242,3.138 5.872,0.79 2.045,-2.946 -2.018,-7.384 -3.596,-9.623 -4.99,-7.077 -10.941,-14.676 -13.576,-23 30.937,-10.466 61.034,-25.8 90,-40.742 5.904,-3.045 11.848,-6.14 18,-8.655 5.718,-2.337 12.35,-4.404 16.907,-8.736 C 411.797,773.564 418.832,755.981 427,742 h 2 m 687,62 c -12.53,-4.587 -24.48,-13.262 -36,-19.988 -14.82,-8.656 -30.19,-16.36 -45,-25.012 10.02,-10.044 29.67,-12.395 43,-15.001 4.3,-0.841 11.58,-3.736 15.36,-0.396 4.01,3.546 5.89,11.537 7.84,16.397 5.72,14.251 11.33,29.017 14.8,44 M 846,790 c -2.143,3.729 -5.623,6.082 -8.575,9.17 -5.83,6.1 -11.152,13.02 -14.425,20.83 -10.471,-1.919 -4.999,-10.83 -0.78,-17 3.362,-4.917 9.251,-14.3 15.78,-15.046 2.6,-0.298 5.537,1.346 8,2.046 m 35,20 c -8.894,9.078 -18.802,16.955 -24,29 -7.321,-1.416 -13.644,-6.992 -19.999,-10.717 -2.189,-1.283 -5.546,-2.707 -6.173,-5.468 -0.628,-2.763 1.772,-5.678 3.177,-7.815 4.098,-6.236 11.954,-17.626 19.995,-18.791 2.838,-0.411 5.572,1.322 8,2.547 6.549,3.306 12.885,7.197 19,11.244 m -123,96 c -1.997,11.065 -11.196,22.286 -16.719,32 -5.528,9.723 -11.181,19.38 -16.884,29 -2.073,3.495 -4.43,9.764 -8.007,11.932 -4.9,2.97 -10.354,-4.099 -15.39,-3.366 -4.18,0.609 -6.66,4.833 -11,5.196 -3.87,0.325 -8.281,-1.207 -12,-2.137 -8.91,-2.227 -17.567,-5.278 -26,-8.906 -22.354,-9.617 -43.636,-21.835 -63,-36.603 -8.793,-6.707 -16.232,-15.232 -25,-21.798 -7.516,-5.629 -15.975,2.463 -24,-0.251 -5.114,-1.729 -9.044,-7.126 -12.421,-11.067 -7.731,-9.023 -17.253,-18.308 -22.579,-29 12.2,-5.434 25.332,-9.444 38,-13.667 6.613,-2.204 14.599,-3.871 19.96,-8.558 4.835,-4.226 7.474,-10.15 10.287,-15.775 5.104,-10.207 9.149,-20.614 13.753,-31 10.98,2.997 20.341,6.229 32,4.711 4.503,-0.587 8.788,-1.917 13,-3.567 1.994,-0.782 4.455,-2.142 6.582,-1.011 2.044,1.087 2.811,3.925 3.727,5.868 2.254,4.785 4.963,9.388 7.552,13.999 8.598,15.315 17.861,31.455 29.143,44.961 6.308,7.551 15.34,11.969 23.996,16.286 17.394,8.676 36.602,16.49 55,22.753 M 202,809 c 2.067,3.543 3.863,7.052 5,11 l -12,-3 c 1.151,-4.091 3.175,-6.196 7,-8 m 692,21 c -9.014,4.676 -14.48,13.819 -20,22 l -11,-7 c 2.215,-8.765 9.254,-17.822 16.039,-23.671 2.228,-1.921 6.473,-5.471 9.683,-4.087 3.794,1.634 4.752,9.2 5.278,12.758 m -289,346 c 3.124,-9.81 10.695,-19.18 16,-28 12.819,-21.32 26.622,-42 39.947,-63 33.969,-53.53 66.472,-107.935 97.903,-163 13.507,-23.665 26.918,-47.091 38.011,-72 3.801,-8.535 8.565,-16.996 11.139,-26 10.098,1.491 19.362,7.046 28,12.201 9.504,5.671 19.04,11.443 28,17.951 5.561,4.039 13.274,8.625 16.547,14.863 4.971,9.474 3.453,22.681 3.453,32.985 0,20.965 -1.978,41.246 -4.87,62 -1.44,10.337 -2.215,23.385 -6.934,32.83 -2.519,5.04 -8.175,9.29 -12.196,13.13 -12.521,11.97 -27.362,21.35 -42,30.46 -41.863,26.06 -85.387,47.53 -123,80.01 -14.838,12.81 -28.351,26.87 -40.127,42.57 -4.156,5.54 -8.031,11.24 -11.873,17 -1.713,2.57 -3.556,6.67 -6.326,8.25 -3.437,1.96 -7.106,-2.59 -9.674,-4.35 -6.424,-4.4 -14.184,-7.54 -22,-7.9 M 892,901 c 3.853,1.225 6.716,5.481 11,5.239 4.613,-0.261 8.873,-4.273 11.996,-7.279 7.739,-7.448 15.505,-17.948 16.82,-28.96 0.31,-2.604 0.325,-5.495 -0.669,-7.961 -1.077,-2.669 -4.147,-4.937 -2.975,-8.078 1.166,-3.124 4.541,-5.671 6.828,-7.961 6.658,-6.669 18.26,-19.923 28.957,-18.809 4.498,0.469 5.817,4.911 5.996,8.809 0.378,8.245 -2.337,17.576 -5.724,25 -11.635,25.508 -30.256,49.031 -48.653,69.996 -4.398,5.012 -9.879,9.931 -15.576,13.441 -2.264,1.395 -5.866,3.254 -8.397,1.369 -3.142,-2.341 -1.073,-8.653 -0.773,-11.806 1.044,-10.966 1.17,-21.978 1.17,-33 m 5,-63 c 1.742,8.417 3.176,20.497 12,24 -2.375,9.136 -11.031,17.91 -16,26 -2.992,-5.628 -2.326,-12.864 -4.058,-19 -1.32,-4.677 -6.128,-7.465 -7.205,-12 -1.628,-6.853 9.517,-17.386 15.263,-19 m 28,26 c -0.586,13.447 -10.117,30.009 -23,35 0.274,-13.254 9.307,-31.157 23,-35 m -679,94 c -7.908,5.574 -18.006,17.026 -11.297,26.995 2.903,4.314 7.455,5.886 11.297,9.005 -10.647,3.604 -17.303,-0.272 -27,-4.385 -6.49,-2.753 -13.254,-4.863 -20,-6.895 -18.133,-5.461 -37.027,-11.331 -56,-12.631 -13.263,-0.908 -26.661,2.359 -40,0.622 -8.4512,-1.101 -15.5742,-4.804 -23,-8.711 3.4169,-7.182 11.4439,-13.331 18,-17.616 2.353,-1.538 5.119,-3.358 8,-3.582 5.764,-0.446 13.426,4.028 19,5.619 5.295,1.512 10.588,3.314 16,4.364 2.148,0.416 4.769,1.01 6.663,-0.477 3.959,-3.109 -0.695,-6.099 -3.668,-6.84 -11.561,-2.882 -22.679,-6.283 -33.995,-10.024 -12.0834,-3.996 -19.1979,11.099 -29,14.524 -3.1143,1.089 -6.2101,-0.444 -9,-1.75 C 65.2932,943.08 59.4447,939 54,934 c 5.9791,-7.234 16.4782,-11.929 25,-15.573 3.9746,-1.699 7.6589,-3.38 12,-2.155 9.103,2.57 17.872,6.4 27,9.019 2.856,0.819 7.944,3.169 10.338,0.302 1.644,-1.968 0.372,-4.134 -1.491,-5.29 -4.158,-2.58 -10.207,-3.165 -14.847,-4.647 -6.068,-1.939 -12.0267,-4.132 -18,-6.337 -2.7983,-1.033 -5.9419,-2.789 -9,-2.017 -6.5905,1.663 -14.0929,6.481 -20,9.848 -2.6176,1.493 -5.8695,4.073 -9,4.129 -5.8012,0.102 -11.834,-7.635 -14,-12.279 9.2278,-6.629 19.9699,-16.205 32,-16.606 4.2556,-0.141 8.1688,2.455 12,4.002 5.5164,2.227 11.3203,3.814 17,5.579 29.486,9.161 57.088,23.24 87,31.141 7.588,2.004 15.192,4.577 23,5.595 6.173,0.804 14.168,-0.31 19.985,1.892 5.752,2.178 11.539,11.72 13.015,17.397 m 309,-40 c -0.261,3.197 -0.874,5.997 -2,9 -2.87,-2.32 -4.96,-4.923 -7,-8 3.025,-0.562 5.922,-0.936 9,-1 m 9,3 c 25.795,25.724 59.222,45.535 93,58.797 9.912,3.892 20.498,7.275 31,9.119 4.097,0.719 10.946,0.087 13.146,4.312 4.884,9.382 -3.613,19.032 -8.157,26.772 -12.938,22.03 -26.851,43.53 -40.681,65 -10.493,16.29 -20.961,32.58 -31.258,49 -3.44,5.48 -7.348,15.77 -13.154,18.97 -5.299,2.93 -13.242,0.32 -18.896,0.07 -15.68,-0.69 -31.46,-1.13 -47,-3.63 -53.116,-8.53 -104.703,-30.96 -151,-57.83 -13.732,-7.97 -26.529,-17.27 -40,-25.58 6.782,-2.85 16.684,-0.84 24,-1.01 11.582,-0.29 23.454,-1.06 35,-2.16 5.128,-0.49 11.762,-2.64 16.83,-1.51 6.32,1.4 13.26,8.37 19.17,11.42 6.57,3.39 13.2,7.04 20,9.94 2.19,0.94 6.56,2.51 7.654,-0.85 1.25,-3.84 -5.13,-6.34 -7.654,-7.57 -9.856,-4.82 -19.796,-9.19 -29,-15.26 v -2 c 12.315,-6.86 23.208,-16.76 34,-25.75 11.335,-9.45 22.96,-18.3 35,-26.83 8.938,-6.322 17.921,-12.63 27,-18.75 4.345,-2.929 10.202,-5.717 13.4,-9.97 2.16,-2.872 2.502,-7.324 3.6,-10.7 3.228,-9.926 6.121,-19.967 9,-30 1.353,-4.714 1.857,-10.164 5,-14 m -312,16 c 2.685,4.35 6.013,8.276 8,13 -8.039,3.373 -12.529,-2.55 -15,-10 2.327,-1.318 4.433,-2.261 7,-3 m 643,18 c 2.666,9.253 9.343,16.303 13,25 -5.118,-1.056 -19.051,-1.875 -21.382,-7.278 C 884.522,967.863 887.891,959.27 888,954 l 7,1 m -654,20 c 12.863,6.465 26.555,-2.024 23,-17 2.658,0.811 4.146,1.899 5.997,4.059 1.601,1.867 3.861,4.328 3.925,6.94 0.075,3.085 -2.811,5.549 -4.962,7.332 -5.237,4.342 -11.963,8.49 -18.96,8.613 -6.387,0.113 -10.695,-3.508 -9,-9.944 m 17,-12 c -1.95,5.669 -5.282,6.932 -11,7 2.695,-5.335 5.027,-6.929 11,-7 m 423,217 c 2.81,-6.03 8.421,-10.12 12.83,-15 8.049,-8.9 15.455,-21.5 25.34,-28.4 4.469,-3.11 10.778,-0.95 15.825,-1.75 2.116,-0.33 4.723,-1.35 5.084,-3.8 0.853,-5.79 -12.863,-4.05 -16.079,-4.05 0,-7.02 0.822,-14.04 0,-21 14.501,-8.95 28.232,-19 43,-27.58 26.164,-15.18 53.657,-28.97 78,-47.05 8.505,-6.32 16.417,-12.96 24,-20.36 3.009,-2.93 6.85,-5.49 9.157,-9.05 3.439,-5.304 4.798,-13.793 5.843,-19.96 5.717,1.323 11.215,3.449 17,4.54 5.232,0.987 11.001,0.975 16,2.934 4.008,1.572 7.179,4.746 11,6.705 3.485,1.787 9.404,1.918 12.142,4.681 2.271,2.29 1.732,6.22 1.947,9.14 0.436,5.94 0.559,12.1 1.335,18 0.965,7.33 1.462,14.7 2.656,22 0.916,5.6 2.628,12.35 1.695,18 -1.102,6.67 -7.129,12.83 -11.124,18 -5.617,7.27 -11.387,14.45 -16.626,22 -4.242,6.11 -8.254,13.53 -14.115,18.24 -4.775,3.83 -10.405,6.02 -15.91,8.53 -13.601,6.2 -27.836,10.85 -42,15.56 -53.087,17.68 -110.97,29.67 -167,29.67 m 412,-198 c -4.47,11.625 -15.41,23.17 -24.01,32 -3.42,3.5 -6.74,7.56 -10.99,10 0.59,-6.88 -3.45,-12.47 -5,-19 5.53,-1.07 13.02,-1.07 17.91,-3.92 8.19,-4.785 14.27,-13.591 22.09,-19.08 m -48,24 c 0.99,3.44 3.75,7.36 3.48,11 -0.25,3.48 -3.28,6.59 -5.57,8.96 -6.29,6.5 -13.97,11.85 -20.91,17.63 -19.43,16.16 -38.946,32.04 -60,46.08 -9.935,6.62 -20.739,14.23 -32,18.33 3.6,-8.52 11.006,-15.64 16.525,-23 2.699,-3.6 5.086,-8.42 8.8,-11.08 3.133,-2.24 7.276,-3.39 10.675,-5.23 2.627,-1.42 12.278,-5.89 9.11,-10.15 -1.521,-2.05 -4.298,-0.92 -6.111,-0.06 -4.435,2.11 -8.284,5.03 -12.999,6.52 -3.922,-20.82 -4.353,-42.05 -7,-63 17.221,0.14 34.746,4.73 52,5.91 14.72,1.01 29.34,-1.79 44,-1.91 m -688,51 h -14 c 0.524,-3.55 1.547,-6.72 3,-10 4.686,2.19 8.042,5.8 11,10 m 360,56 c -0.101,4.9 -0.09,11.51 -2.14,16 -3.596,7.88 -11.995,14.47 -17.589,21 -3.75,4.38 -8.008,11.33 -13.286,13.89 -5.423,2.63 -14.088,1.11 -19.985,1.11 2.159,-6.36 7.436,-11.07 11.834,-16 7.792,-8.73 16.28,-16.65 25.166,-24.27 4.993,-4.28 9.893,-9.15 16,-11.73 m -42,60 c -1.223,1.2 -1.42,1.32 -3,2 0.98,-1.78 0.908,-1.59 3,-2 m -75,32 c -2.467,5.87 -6.773,10.69 -8.39,17 -3.059,11.94 4.335,24.31 17.39,22 -8.488,8.5 -24.138,4 -35,4 -19.723,0 -39.388,1.96 -59,3.83 -8.618,0.82 -17.419,0.44 -26,1.46 -8.38,0.98 -16.779,1.05 -25,-1.22 -2.717,-0.75 -7.422,-2.09 -8.172,-5.28 -0.973,-4.15 4.548,-9.81 6.826,-12.79 4.656,-6.1 10.8,-15.54 19.346,-15.81 8.958,-0.28 19.026,2.14 28,2.98 3.295,0.31 8.227,1.59 10.079,-2.3 2.059,-4.33 -4.561,-4.74 -7.079,-4.95 -10.678,-0.94 -22.37,-4.37 -33,-4.1 -9.597,0.24 -18.871,14.26 -24,21.18 -6.288,-1.17 -12.745,-1.1 -19,-2.51 -4.934,-1.12 -9.369,-3.56 -14,-5.49 v -2 c 8.429,-6.77 17.851,-17.86 29,-20.27 5.581,-1.2 14.284,0.88 20,1.56 4.011,0.47 16.929,3.16 18.539,-2.39 0.811,-2.81 -2.377,-4.26 -4.554,-4.67 -6.288,-1.19 -13.556,-0.63 -19.985,-1.14 -4.816,-0.39 -11.349,-2.95 -16,-1.49 -9.525,3 -16.459,13.86 -26,16.25 -6.849,1.71 -16.202,-3.81 -22,-6.85 3.336,-7.15 10.642,-12.51 17,-16.96 2.672,-1.88 5.599,-4.21 9,-4.3 3.875,-0.1 8.205,1.51 12,2.26 9.006,1.77 17.97,3.75 27,5.39 24.157,4.38 48.591,7.11 73,9.44 12.329,1.18 24.638,1.23 37,2.08 8.724,0.6 15.132,0.61 23,5.09 m 28,-9 c -4.863,3.49 -7.368,2.66 -13,3.31 -2.699,0.32 -5.262,1.36 -8,0.7 -3.798,-0.91 -7.387,-3.51 -11,-5.01 1.92,-4.56 5.174,-8 8,-12 8.467,1.25 20.02,4.86 24,13 m -29,35 c 7.809,-0.41 16.598,-6.26 16.475,-15 -0.039,-2.78 -1.564,-5.43 -2.475,-8 6.745,-1.92 10.579,2.08 9.811,9 -0.783,7.05 -5.816,13.93 -11.815,17.52 -5.362,3.2 -9.862,2.55 -11.996,-3.52 m 9,-16 c -0.818,4.04 -2.291,6.17 -6,8 0.253,-4.6 1.194,-7.22 6,-8 z"
     id="path1"
     inkscape:label="Alexa Body" /></svg>
