<?xml version="1.0" standalone="yes"?>
<svg xmlns="http://www.w3.org/2000/svg" width="1389" height="1285">
<path style="fill:#0a0a0a; stroke:none;" d="M940 115C934.978 110.263 928.746 113.125 923 115.453C909.982 120.727 897.583 129.594 888.171 140.001C885.119 143.374 881.957 149.923 877.7 151.787C874.942 152.995 871.559 150.986 869 150.053C863.098 147.902 857.045 146.512 851 144.861C837.517 141.178 820.808 140.417 807 142.59C803.143 143.198 797.758 143.631 794.319 145.563C791.439 147.181 792.49 150.491 793.424 153C795.473 158.497 799.122 163.373 802.654 168C813.087 181.667 824.445 194.327 837 206.025C842.524 211.171 848.103 217.47 856 218C854.428 237.919 854.599 260.646 845.742 279C842.872 284.946 839.46 290.36 836.069 296C834.721 298.241 832.855 301.172 834.133 303.851C837.744 311.422 850.888 301.475 855 299C849.968 310.353 846.717 322.53 841.85 334C840.444 337.316 837.367 343.087 840.604 346.257C843.83 349.416 849.52 346.883 853 345.575C863.787 341.521 872.479 335.271 882 329C881.623 333.767 880.233 338.292 879.623 343C879.314 345.392 879.774 347.739 878.709 350C875.972 355.813 869.857 361.076 865.753 366C862.49 369.916 852.353 378.221 853.748 383.907C854.686 387.731 859.832 389.462 863 390.846C872.251 394.89 880.989 397.844 891 399.271C913.68 402.504 940.415 403.291 962 394.547C976.121 388.827 989.082 378.449 1000 368C999.52 373.493 994.997 379.727 995.647 384.999C996.303 390.33 1001.61 392.58 1006 390.141C1014.87 385.215 1021.71 376.774 1030 371C1029.48 382.812 1024.91 394.879 1018.99 405C1016.75 408.816 1014.41 413.485 1010.7 416.077C1004.89 420.137 997.27 422.862 991 426.306C982.073 431.208 973.305 437.554 964 441.625C943.498 450.595 921.697 456.479 901 465.337C885.22 472.091 870.468 481.158 855 488.641C841.224 495.306 826.499 500.5 812 505.333C803.158 508.281 794.278 511.751 785 513C787.299 507.814 788.5 501.778 791.815 497.093C794.166 493.771 798.588 492.112 799.682 487.96C801.288 481.864 797.468 478.441 796.776 473.004C796.296 469.227 801.715 460.792 804.147 458.015C806.961 454.803 810.813 451.654 815 450.499C825.143 447.703 841.416 454.536 843.786 439C844.079 437.077 844.082 434.887 843.566 433.001C839.564 418.357 819.173 427.265 812.466 416.941C809.11 411.775 818.655 405.796 818.639 400.04C818.632 397.499 817.026 395.876 814.941 394.674C811.862 392.898 808.218 392.178 805 390.677C800.818 388.725 796.827 385.232 792 385.279C781.789 385.377 767.843 398.549 763.344 407C760.954 411.49 759.131 418.843 764 422L764 424C758.43 426.192 751.297 432.317 751.557 439C751.661 441.678 753.897 444.046 753.597 446.714C753.174 450.483 748.985 453.068 748.294 457C747.249 462.946 751.915 469.627 754 475C749.577 477.875 750.76 481.489 749.185 486C746.995 492.272 742.898 498.276 739.576 504C733.893 513.791 728.018 523.698 721.565 533C718.511 537.402 713.425 541.968 711.603 547C710.347 550.466 711.364 554.487 711.87 558C713.766 571.149 723.413 583.305 737 585.671C743.75 586.847 748.675 584.522 755 582.993C757.643 582.354 760.358 582.745 763 582.06C770.414 580.137 777.727 577.091 785 574.667C807.293 567.236 829 558.441 851 550.228C865.908 544.662 881.944 539.486 896 532C896 538.505 895.204 545.605 896.515 552C900.927 573.525 919.312 589.342 940 595C936.351 601.838 938.122 610.562 938.83 618C939.775 627.925 939.77 638.032 940.015 648C940.112 651.958 941.409 656.051 940.848 660C939.663 668.34 928.766 676.715 923.614 683C916.634 691.516 910.35 701.554 901.996 708.79C893.91 715.794 883.225 720.139 874 725.427C868.672 728.482 862.915 733.514 857 735.239C851.2 736.931 845.544 728.544 842 725C829.952 712.952 818.949 700.014 806 688.87C789.298 674.495 765.86 669.526 745 663.579C709.523 653.464 674.491 642.891 638 637.081C625.91 635.156 610.671 639.65 599 643C594.836 644.195 588.401 645.075 586.032 649.214C583.901 652.938 586.896 657.41 588 661C577.707 662.52 566.56 668.942 560 677C555.33 672.936 547.91 666.197 541.039 667.411C537.21 668.088 535.009 672.28 532.704 675C527.702 680.903 522.413 686.466 517.015 692C500.714 708.711 485.557 726.522 469 742.999C461.642 750.322 453.211 760.222 444 765C441.7 756.574 438.036 748.582 436.211 740C435.337 735.891 435.534 730.362 431.852 727.603C425.727 723.015 415.544 726.71 409.213 722.972C406.732 721.508 405.469 718.498 404.309 716C392.77 691.134 386.486 663.824 381.46 637C379.353 625.754 379.805 612.942 376.566 602.055C373.864 592.972 358.373 598.208 355.228 588.956C353.707 584.48 354.266 579.611 353.715 575C352.236 562.648 350.78 550.404 349.91 538C346.939 495.606 345.996 452.112 352.92 410C358.884 373.723 366.524 337.411 379.811 303C383.007 294.723 386.6 286.687 391.046 279C392.342 276.76 395.357 272.275 392.392 270.046C388.955 267.463 382.851 272.629 380 274.283C368.49 280.959 357.63 288.642 347 296.627C302.082 330.367 264.933 372.854 236.201 421C219.896 448.321 207.378 477.865 197.333 508C192.255 523.235 186.943 539.125 184.285 555C182.775 564.027 181.317 574.885 182.17 584C182.733 590.024 182.677 595.975 183.09 602C183.29 604.934 184.331 608.068 183.667 611C181.344 621.272 166.799 625.571 161.008 633.376C158.083 637.319 158.023 643.308 158.001 648C157.958 656.9 157.326 666.138 158.17 675C160.792 702.553 167.84 730.176 177.811 756C181.723 766.132 186.084 776.05 190.424 786C192.046 789.717 195.239 793.942 195.731 798C196.817 806.955 181.489 810.307 184.593 820C187.049 827.67 193.095 835.685 196.753 843C207.102 863.698 218.339 884.124 230.201 904C235.409 912.728 242.405 921.501 246 931C233.066 935.288 215.028 931.241 202 928.036C168.211 919.721 136.955 904.876 104 894.001C97.6299 891.899 91.1546 890.29 85 887.561C81.8251 886.153 78.5852 883.523 75 883.434C71.969 883.359 68.8062 885.021 66 886C57.1669 889.083 49.4527 893.771 42 899.375C38.8057 901.777 34.033 904.659 33.4267 909.001C32.4953 915.671 42.7984 923.574 48 926C46.6379 928.479 44.915 931.025 45.4915 934C46.1857 937.582 49.3828 940.425 52.0039 942.7C58.145 948.03 65.8768 953.552 74 955C72.6352 957.313 70.3435 960.084 70.9699 962.96C71.7596 966.585 76.1208 968.676 79 970.396C86.653 974.966 95.0941 977.968 104 978.83C119.624 980.342 135.536 975.896 151 978.804C168.847 982.161 186.881 986.594 204 992.692C214.795 996.537 226.212 1003.86 238 1003.82C250.605 1003.78 261.747 994.213 270.17 985.95C273.482 982.7 276.982 980.239 279 976C284.61 980.035 288.571 985.889 293.169 991C301.331 1000.07 309.495 1009.27 318.015 1018C324.038 1024.17 334.393 1031.14 338.072 1039C341.675 1046.7 328.627 1057.37 335.438 1064.1C339.281 1067.9 344.646 1070.68 349 1073.88C363.901 1084.85 379.794 1094.41 396 1103.31C439.188 1127.02 486.248 1147.6 535 1156.39C557.379 1160.42 580.42 1160.22 603 1162C600.529 1167.29 596.319 1171.73 593.998 1177C591.807 1181.98 592.985 1186.73 587.826 1190.4C585.023 1192.39 581.269 1192.06 578 1191.99C570.649 1191.81 563.369 1189.76 556 1190.04C525.484 1191.18 493.985 1184.99 464 1179.58C454.952 1177.94 446.02 1175.76 437 1174C433.115 1173.24 427.945 1171.7 424 1172.41C420.807 1172.98 418.454 1175.58 416 1177.49C409.673 1182.42 403.76 1187.35 398.005 1192.96C395.526 1195.37 391.698 1198.01 392.492 1201.98C394.204 1210.51 409.854 1214.52 417 1216C411.511 1222.91 414.901 1227.24 422.001 1231.1C430.254 1235.58 440.666 1237.81 450 1238C448.752 1241 446.236 1244.63 446.647 1248C448.059 1259.6 467.451 1261 476 1261C507.827 1261 539.212 1256 571 1256C586.864 1256 603.837 1260.1 616.996 1248.79C619.664 1246.49 622.725 1243.58 623.457 1240C623.866 1238 623.307 1235.99 623.953 1234C625.915 1227.97 629.873 1223.61 630.71 1217C631.189 1213.22 629.291 1208.59 630.643 1205.06C632.025 1201.45 636.175 1200.79 638.907 1198.57C641.742 1196.27 643.662 1193 645.667 1190C650.431 1182.87 654.041 1173.97 663 1172C663.906 1175.95 664.647 1183.61 668.303 1185.97C672.373 1188.6 683.14 1187.96 688 1188C706.929 1188.13 726.288 1185.21 745 1182.58C777.596 1177.98 809.491 1170.17 841 1160.72C863.893 1153.85 886.842 1145.97 908 1134.74C914.357 1131.36 916.249 1124.72 922.04 1121.07C927.299 1117.76 933.514 1115.66 939 1112.69C950.712 1106.36 961.997 1099.14 973 1091.66C986.109 1082.74 998.808 1073.05 1011 1062.92C1018.81 1056.43 1026.37 1048.55 1035 1043.16C1039.81 1040.16 1044.05 1043.6 1049 1042.18C1054.06 1040.73 1059.22 1035.41 1062.91 1031.83C1077.05 1018.12 1089.88 1002.48 1100.66 986C1104.96 979.417 1107.55 971.103 1112.3 965C1122.5 951.907 1135.32 941.295 1144.19 927C1146.76 922.847 1150.57 917.854 1151.54 913C1152.24 909.498 1151.05 905.561 1151 902C1150.81 885.873 1147.25 869.483 1142.86 854C1140 843.896 1137.02 833.712 1132.99 824C1130.74 818.571 1127.56 813.522 1125.54 808C1120.51 794.188 1117.02 779.832 1111.95 766C1105.51 748.472 1098.72 731.735 1096.29 713C1094.02 695.439 1102.75 677.479 1107.58 661C1120.01 618.553 1137.6 578.297 1153 537C1155.25 542.649 1157.53 548.569 1164 550.427C1168.2 551.634 1172.73 550.612 1177 551.518C1183.15 552.823 1189.12 555.505 1195 557.681C1221.31 567.418 1246.34 580.116 1273 589C1286.83 593.608 1302.26 598.101 1317 597.852C1322.11 597.765 1327 593.392 1331 590.561C1337.08 586.264 1346.79 578.804 1348.32 571C1349.26 566.189 1346.99 558.509 1345.29 554C1339.1 537.589 1321.74 526.831 1309 515.87C1295.87 504.575 1282.01 494.166 1269 482.714C1255.42 470.762 1242.79 457.788 1230 445C1220.54 435.541 1211.14 425.917 1202.17 416C1197.88 411.255 1193.47 404.371 1187.83 401.175C1183.72 398.847 1177.57 398.175 1173 396.859C1160.04 393.129 1146.28 390.165 1133 387.618C1125.81 386.239 1116.29 385.225 1110 381.258C1106.11 378.801 1103.31 374.656 1100.64 371C1093.77 361.591 1087.24 350.241 1084 339C1089.55 337.969 1095.36 337.478 1101 337.089C1103.54 336.914 1106.48 337.397 1108.89 336.397C1114.79 333.948 1111.88 328.422 1109 325C1116.74 325 1124.31 324.993 1132 324.166C1134.82 323.863 1139.15 324.224 1140.95 321.487C1143.7 317.311 1137.64 314.364 1135 312.536C1129.43 308.68 1124.74 303.803 1120 299C1118.28 297.255 1115.06 294.82 1115.06 292.089C1115.06 287.849 1124.07 282.699 1127 280.246C1138.66 270.481 1149.72 260.019 1161 249.83C1164.53 246.64 1175.74 238.273 1171.95 232.333C1169.41 228.349 1160.64 232.163 1157 232.725C1149.91 233.82 1142.17 235.186 1135 234.957C1126.58 234.688 1118.36 232.364 1110 232C1114.89 229.349 1120.69 228.667 1126 226.971C1132.19 224.995 1137.77 221.946 1143 218.115C1145.46 216.314 1153.76 211.532 1150.34 207.603C1147.18 203.974 1137.09 207.23 1133 207.714C1122.2 208.993 1110.5 207.401 1101 202C1121.08 196.3 1138.54 184.212 1141.7 162C1142.28 157.928 1141.51 154.025 1141 150C1133.49 151.292 1126.84 155.219 1119 154.957C1092.67 154.076 1067.66 134.448 1046 121.603C1040.47 118.323 1034.9 115.001 1029 112.424C1025.2 110.765 1019.7 109.329 1017.27 105.725C1013.86 100.646 1012.22 93.5984 1009.69 88C1004.12 75.639 998.172 63.6437 991.2 52C988.493 47.4797 983.997 36.6769 978.039 35.9213C975.418 35.5887 973.92 38.1268 972.735 40.0193C970.124 44.1849 967.949 48.6094 965.753 53C956.014 72.4756 944.937 93.67 940 115M979 47C993.716 69.2394 1005.59 94.4751 1013.28 120C1015.21 126.398 1021.8 140.604 1017.39 146.7C1014.72 150.396 1008.67 154.703 1004 154.718C997.975 154.736 991.847 151.655 986 150.45C970.85 147.328 954.495 144.469 940 139C945.251 116.302 955.353 93.0464 965.22 72C969.096 63.7324 972.173 53.3068 979 47M1133 161C1132.25 177.325 1118.85 188.617 1104 192.957C1099.38 194.307 1089.74 192.086 1086.66 196.318C1083.41 200.792 1090.98 205.346 1094 207.301C1104.78 214.28 1117.41 215.999 1130 216C1123.12 221.555 1112.5 222.256 1104 223.166C1100.74 223.515 1093.84 223.16 1091.89 226.318C1088.2 232.283 1101.31 236.745 1105 237.996C1122.31 243.859 1140.16 241.766 1158 241C1150.2 251.315 1138.68 259.637 1129 268.155C1106.64 287.837 1082.22 307.246 1054 317.68C1040.75 322.58 1023.77 325.185 1010 321C1013.49 318.065 1017.59 315.973 1020.96 312.826C1028.67 305.63 1033.89 295.398 1035.56 285C1036.21 280.935 1037.28 270.94 1031.88 269.346C1028.05 268.214 1023.81 275.247 1021 277.147C1014.9 281.256 1008.01 281 1001 281C1002.61 276.583 1005.26 272.631 1006.32 268C1008.99 256.381 1005.96 243.45 1000.73 233C998.666 228.876 993.703 219.224 988.018 219.921C979.812 220.928 979.923 238.364 970.17 238.364C966.238 238.365 962.178 232.151 959 230.134C951.443 225.337 936.88 222.547 929.058 228.029C923.015 232.264 923.073 242.353 921.575 249C918.755 261.516 914.174 273.358 907 284C899.359 280.131 894.148 271.458 887 266.44C884.785 264.885 882.459 263.428 880 262.289C872.094 258.625 866.025 262.499 866.008 271C865.984 282.617 869.357 294.221 873.425 305C874.88 308.855 879.092 314.804 878.184 319C877.505 322.135 874.376 324.599 871.999 326.482C865.511 331.622 857.215 336.54 849 338C853.537 324.589 859.237 311.698 862.989 298C863.903 294.665 866.706 285.732 860.931 284.921C856.965 284.364 850.935 292.334 847 294C851.763 284.947 856.197 276.047 858.5 266C863.683 243.382 862.576 219.778 867.511 197C872.94 171.938 886.766 149.343 907 133.665C915.771 126.869 926.896 120.64 938 119C937.039 125.509 929.255 137.828 933.746 143.721C937.818 149.064 951.72 150.279 958 151.766C968.989 154.366 979.976 156.976 991 159.424C995.771 160.484 1001.06 162.898 1006 162.276C1010.7 161.683 1014.33 158.617 1018 155.873C1020.92 153.687 1025.3 151.354 1026.88 147.91C1028.15 145.156 1026.82 141.768 1026.21 139C1024.64 131.979 1022.05 125.114 1021 118C1032.81 121.402 1043.65 129.162 1054 135.576C1077.72 150.271 1104.18 166.354 1133 161M873 160C871.016 166.89 867.363 173.29 864.814 180C861.066 189.863 858.351 200.537 857 211C850.217 208.699 845.087 202.886 840 198.039C830.432 188.921 821.666 179.334 813.4 169C809.03 163.537 803.632 157.947 802 151C808.737 150.861 815.245 148.882 822 149.015C839.512 149.36 856.739 153.727 873 160M990 229C996.881 240.253 1002.82 256.759 997.867 269.995C996.258 274.297 988.205 276.942 988.207 280.989C988.208 284.736 994.223 286.363 997 287.254C1008.47 290.935 1017.83 287.351 1028 282C1026.66 292.355 1022.54 302.724 1013.99 309.239C1009.69 312.513 999.353 314.751 997.407 320.089C996.069 323.761 1000.28 325.931 1003 327.12C1010.2 330.258 1018.32 330 1026 330C1023.75 334.832 1019.74 338.258 1016 342C1010.1 347.897 1004.27 353.785 998 359.285C987.173 368.782 976.213 379.494 963 385.677C942.43 395.302 915.024 394.906 893.001 391.571C890.166 391.142 887.2 390.745 885.893 387.852C883.591 382.753 887.423 370.191 877.998 370.782C875.654 370.929 873.21 372.266 871 373C873.488 367.769 878.05 363.428 881.754 359C891.313 347.573 904.152 335.397 910.873 322.004C912.751 318.262 910.009 314.64 906.17 317.427C902.403 320.16 899.687 325.259 897 329C891.706 326.412 889.034 321.059 886.309 316C880.912 305.978 877.621 295.108 875.4 284C874.361 278.806 872.87 273.217 874 268C881.851 270.31 888.401 276.118 893.911 282.001C897.105 285.412 900.771 291.469 906 291.798C911.56 292.148 915.959 284.122 918.208 280C925.469 266.685 931.346 249.233 932 234C940.638 232.396 950.784 232.494 957.957 238.394C960.923 240.834 963.25 248.241 967.133 248.839C969.922 249.268 972.925 246.776 975 245.239C981.196 240.651 984.636 234.196 990 229M958 259.656C946.254 263.122 940.176 276.964 938.439 288C937.89 291.49 936.111 304.927 942.961 303.248C945.42 302.646 946.491 300.266 946.852 297.995C947.732 292.455 947.222 287.366 949.479 282C951.467 277.274 955.404 272.689 960 270.318C962.314 269.124 966.308 269.564 967.968 267.397C972.458 261.536 961.976 258.483 958 259.656M378 285C376.485 293.523 371.803 301.783 369.003 310C362.988 327.654 357.449 345.779 353.424 364C339.342 427.759 335.811 494.201 344 559C339.324 557.023 335.502 553.623 331 551.262C319.545 545.253 306.018 540.559 293 540L293 536C298.021 535.59 308.589 534.56 310.593 528.895C313.024 522.019 300.637 518.101 296 517C296.076 507.776 298.482 498.973 300.336 490C301.723 483.285 302.889 476.295 305.8 470C309.308 462.413 319.106 453.885 312.973 444.192C310.772 440.714 307.354 442.914 306.434 446.045C305.042 450.782 307.646 462.637 299.058 462.168C293.075 461.841 294.9 450.021 292.013 446.362C288.206 441.535 285.984 449.023 286.29 451.976C286.464 453.653 286.789 455.327 287 457C281.9 457 277.028 457.066 272 458C269.578 452.137 271.629 449.401 274.076 444C274.95 442.071 275.838 439.306 273.654 437.832C268.957 434.662 262.963 447.685 262.487 451C261.686 456.573 266.15 461.397 265.657 467C264.304 482.364 258.23 497.435 257 513C250.06 514.026 236.139 519.89 243.573 528.787C246.396 532.165 250.977 533.63 255 535C253.03 540.936 242.448 540.348 237 541.131C220.128 543.558 206.285 550.184 192 559C194.544 538.886 201.514 519.024 208.308 500C230.104 438.967 264.161 384.839 310 339C329.925 319.075 352.97 298.325 378 285M891 304C892.75 305.916 894.319 307.93 896.005 309.896C898.668 313.001 905.803 315.828 905.623 308.981C905.446 302.205 893.947 290.854 887.109 295.607C880.881 299.936 883.994 309.279 891 304M1126 317C1119.35 317 1112.64 316.732 1106 317.019C1102.98 317.15 1099.52 317.814 1098.36 321.059C1097.37 323.821 1099.28 327.341 1100 330L1080 331C1079.07 326.952 1076.52 321.256 1077.77 317.105C1078.63 314.265 1081.7 312.944 1084 311.471C1089.08 308.223 1094.06 304.876 1099 301.425C1100.96 300.056 1103.43 297.907 1106 298.113C1108.85 298.343 1111.11 301.153 1113 303.005C1117.53 307.444 1122.34 311.807 1126 317M347.995 313.902C343.64 315.202 339.55 319.177 336 321.884C326.812 328.892 318.005 336.624 310.04 345C308.278 346.853 298.265 359.487 306.965 359.248C311.048 359.136 315.397 351.639 318.004 349C324.888 342.033 332.26 335.433 340 329.425C343.853 326.434 349.567 323.758 352.377 319.701C354.802 316.199 351.93 312.727 347.995 313.902M1070 320C1070.34 327.383 1078.86 340.038 1071 345C1070.33 341.763 1069.94 336.828 1067.44 334.423C1063.81 330.945 1056.84 336.271 1055.7 340.04C1053.82 346.225 1063.14 353.835 1056 358C1054.96 353.602 1053.54 347.886 1050.91 344.153C1049.27 341.822 1045.64 340.731 1044.41 344.153C1042.74 348.775 1048.52 357.551 1050 362C1047.88 362.771 1045.43 363.991 1043.11 363.578C1036.69 362.437 1038.27 349.654 1037.71 345C1037.28 341.384 1035.18 335.615 1037.07 332.228C1038.76 329.192 1042.99 328.82 1046 327.989C1054.05 325.768 1061.86 321.447 1070 320M1029 340C1030.26 346.796 1030.94 354.087 1031 361C1021.5 365.022 1014.59 374.318 1006 380C1006.91 373.822 1007.19 364.54 1010.02 359C1013.61 352 1022.64 344.477 1029 340M1080 350C1082.3 355.526 1087.97 362.925 1081 367C1078.96 360.294 1070.42 363.29 1068.71 369.093C1067.56 372.987 1071.54 376.131 1071.03 379.941C1070.76 381.977 1069.42 382.781 1068 384C1067.19 382.274 1066.36 380.63 1065.41 378.976C1064.68 377.719 1064.01 376.247 1063.05 375.153C1061.08 372.926 1056.52 371.571 1056.3 376.059C1056.07 380.95 1063.52 385.672 1060.29 390.671C1056.76 396.148 1037.73 405.363 1034.38 395.941C1031.99 389.204 1037.69 379.158 1038 372C1048.72 371.778 1058.62 366.805 1067 360.32C1071.44 356.885 1074.87 352.391 1080 350M294.282 365.047C290.418 367.103 285.181 373.788 283.963 377.985C283.058 381.101 285.478 384.379 288.842 382.863C292.6 381.17 297.937 373.831 299.239 370.005C300.432 366.499 298.043 363.046 294.282 365.047M1091 371C1095.78 377.657 1100.43 383.992 1107 389C1106.33 389.875 1105.66 391.165 1104.68 391.823C1097.79 396.445 1096.32 385.867 1090.91 384.342C1087.77 383.456 1084.21 387.089 1082.02 388.885C1080.59 390.054 1078.91 391.293 1078.24 393.09C1076.02 399.018 1084.27 405.405 1083 412L1081 412C1079.76 409.03 1076.08 397.8 1071.32 400.176C1068.29 401.688 1070.27 405.825 1071.16 408C1073.36 413.387 1075.64 417.103 1070.94 421.83C1063.02 429.792 1053.66 436.781 1045 443.916C1042.25 446.179 1037.95 450.765 1034 450.118C1028.94 449.29 1024.51 441.819 1021.75 438C1019.45 434.831 1015.25 430.184 1015.54 426C1015.75 422.963 1018.31 420.374 1019.96 418C1023.07 413.54 1025.9 409.018 1028 404C1032 405.453 1035.61 407.877 1040 407.917C1045.92 407.97 1051.98 404.995 1057 402.127C1069.71 394.869 1081.26 383.387 1089 371L1091 371M1176 408C1173.64 414.236 1169.64 419.814 1167.01 425.999C1166.11 428.118 1165.26 431.479 1162.73 432.187C1158.95 433.241 1153.25 429.327 1150 427.756C1147.12 426.365 1143.85 425.592 1141.09 424.031C1138.88 422.784 1137.27 420.742 1134.91 419.727C1130.36 417.767 1124.79 416.984 1120 415.576C1116.75 414.619 1112.41 411.914 1109 412.238C1100.85 413.011 1102.66 422.819 1104 428C1101.01 427.739 1097.98 426.506 1095.01 426.472C1089.09 426.405 1085.49 432.972 1087.85 438C1092.04 446.904 1101.45 447.171 1107 454C1095.67 454.894 1085.02 453.567 1076.01 461.429C1071.39 465.472 1066.54 470.652 1073.02 475.486C1079.93 480.633 1085.87 475.689 1093 475.654C1099.16 475.623 1107.19 482.627 1109.44 488C1113.52 497.788 1115.46 508.374 1120.27 518C1122.57 522.598 1128.45 528.716 1128.33 534C1128.15 541.746 1119.8 547.378 1115.33 552.514C1113.89 554.167 1113.09 556.721 1115.34 558.173C1118.86 560.451 1123.64 555.249 1125.7 552.96C1129.39 548.858 1131.84 540.94 1136.39 538.028C1138.55 536.646 1141.56 537.009 1144 537C1139.32 556.745 1128.59 575.992 1121.43 595C1110.29 624.526 1101.24 654.858 1091.98 685C1088.29 696.994 1086.97 706.516 1089.08 719C1089.65 722.343 1093.31 730.363 1090.38 733.012C1087.96 735.201 1083.04 734.924 1080 735.435C1073.34 736.555 1066.47 738.116 1060 740.036C1053.23 742.043 1046.42 744.369 1040 747.309C1035.65 749.3 1030.95 752.79 1026 752.79C1022.02 752.79 1018.54 750.366 1015 748.876C1010.57 747.013 1005.7 745.763 1001 744.807C983.479 741.246 965.654 739.314 948 736.576C939.996 735.334 931.981 734.14 924 732.75C920.415 732.126 916.631 730.618 913 730.534C910.007 730.464 906.989 731.703 904 732C905.03 726.707 905.772 719.807 908.177 715C910.028 711.302 913.422 708.204 915.999 705C921.657 697.967 927.296 690.93 933.08 684C938.314 677.73 946.001 670.965 948.454 662.911C949.711 658.781 948.118 654.207 948.015 650C947.778 640.351 947.745 630.608 946.83 621C946.059 612.9 944.567 604.867 947 597C972.677 599.027 999.511 594.112 1025 590.421C1030.94 589.56 1037.15 589.161 1043 587.811C1044.93 587.364 1047.79 586.42 1047.79 583.95C1047.79 579.628 1041.7 580.188 1039 580.591C1028.35 582.178 1017.69 583.875 1007 585.155C976.178 588.845 935.234 597.759 912.9 568.985C910.077 565.349 907.653 561.342 906.09 557C895.156 526.623 919.904 499.037 936.985 477C941.92 470.634 945.163 461.116 951.39 455.966C957.373 451.018 966.267 449.399 973 445.572L994 433.576C997.051 431.852 1001.21 428.568 1004.9 428.708C1008.69 428.853 1010.53 434.291 1012.23 437C1016.53 443.845 1021.91 450.486 1028 455.815C1030.27 457.799 1033.61 460.877 1036.91 459.752C1039.34 458.924 1041.19 456.28 1043.09 454.664C1046.66 451.625 1050.4 448.757 1054 445.753C1068.53 433.643 1082.81 421.211 1097 408.714C1102.12 404.203 1109.26 394.463 1116 392.788C1120.45 391.682 1127.53 394.905 1132 395.8C1147.08 398.817 1161.66 402.437 1176 408M810 401C808.945 403.208 807.986 404.856 805.941 406.352C804.176 407.643 802.158 408.459 800 408.786C798.131 409.068 795.971 409.091 794.174 408.436C788.411 406.333 787.717 397.401 794.094 395.418C796.151 394.779 798.185 395.93 800 396.75C803.309 398.244 806.615 399.687 810 401M781 401C781.429 405.168 783.076 408.323 785 412L776 415C773.307 408.632 774.505 404.065 781 401M1186 410C1211.48 435.554 1235.48 462.335 1262 486.911C1270.6 494.878 1279.85 502.279 1289 509.6C1294.58 514.063 1300.8 518.165 1305 524C1293.94 524 1283.03 524.744 1272 525.015C1267.72 525.12 1263.25 526.598 1259 525.581C1252.04 523.915 1244.91 517.896 1239 513.997C1226.62 505.838 1214.33 497.556 1202 489.333C1198.98 487.323 1194.88 485.397 1192.64 482.482C1191.18 480.584 1191.35 478.074 1190.25 475.999C1187.97 471.72 1184.2 468.398 1181.99 464C1180.37 460.771 1179.62 455.885 1175.89 454.312C1173.21 453.182 1170.41 454.955 1168 456C1168.31 440.917 1173.48 419.66 1186 410M765 445C775.267 445.001 788.293 449.194 797.999 445.005C803.883 442.467 809.238 434.696 806.535 428.089C804.69 423.577 798.948 420.853 796 417C807.223 417.365 813.978 432.661 809.397 442.621C808.237 445.143 805.098 446.667 802.999 448.309C801.437 449.53 799.93 451.083 798 451.718C795.538 452.527 792.572 451.462 790 451.63C781.273 452.197 769.933 454.016 765 445M294.333 421.046C290.564 423.513 295.188 428.335 298.393 425.954C301.75 423.46 297.685 418.852 294.333 421.046M1126 425C1120.11 431.041 1111.73 429.568 1110 421C1115.45 421.802 1120.64 423.771 1126 425M785 439C784.08 436.94 782.428 434.975 781.767 432.829C781.276 431.237 781.404 429.606 782.194 428.129C788.139 417.018 805.67 431.74 795.891 437.347C794.752 438.001 793.274 438.282 792.001 438.532C789.685 438.986 787.348 438.981 785 439M774 426C773.373 429.799 773.71 433.191 774 437L768 437C768.064 431.547 769.23 428.85 774 426M818 429C821.007 429.382 824.029 429.836 827 430.45C828.669 430.795 830.416 431.157 831.981 431.854C836.638 433.931 837.805 439.075 832.891 441.82C829.861 443.513 826.232 442.605 823.005 442.15C820.951 441.861 818.64 441.798 817.603 439.682C816.099 436.609 817.413 432.16 818 429M1142 438C1137.63 438.811 1133.44 439 1129 439C1129.32 429.142 1137.85 431.58 1142 438M827.318 434.086C823.599 436.217 826.899 441.768 830.566 439.712C834.295 437.622 831.029 431.959 827.318 434.086M1096 434L1105 437C1101.95 441.916 1094.78 439.988 1096 434M761 437L761 439L759 439C759.545 437.365 759.365 437.545 761 437M1123 444C1120.57 446.299 1117.68 447.982 1115 450C1112.35 447.911 1111.09 446.199 1110 443C1114.77 441.865 1118.54 441.854 1123 444M1146 446L1148 469C1144.97 468.198 1142.12 467.311 1139 467L1135 451C1139.18 448.892 1141.01 446.166 1146 446M1159 474L1154 472C1155.26 466.854 1155.27 462.256 1154.58 457C1154.2 454.127 1153.2 449.931 1155.6 447.623C1158.51 444.831 1160.8 448.155 1160.77 451.019C1160.71 458.686 1159.01 466.296 1159 474M763 454C761.667 456.92 759.797 459.337 758 462C755.845 458.625 757.195 456.332 759 453L763 454M1133 472C1128.17 471.184 1119.93 462.401 1120.88 457.059C1121.96 451.014 1127.4 454.369 1128.7 458.019L1130.69 464C1131.63 466.683 1132.52 469.199 1133 472M778 460C778.32 462.536 779.53 466.129 778.382 468.567C776.773 471.982 769.285 472.322 766 473C762.477 463.238 768.909 459.365 778 460M939 459C933.16 474.402 918.837 487.132 910.053 501C906.107 507.23 903.285 517.58 897.725 522.348C894.603 525.025 889.766 525.919 886 527.4C877.974 530.556 869.965 533.699 862 537.012C833.252 548.968 803.442 562.957 773 570C777.203 562.451 781.069 556.937 781.406 548C781.665 541.128 778.349 528.428 783.857 522.854C787.021 519.653 794.777 519.07 799 517.859C809.84 514.751 820.467 510.813 831 506.808C842.719 502.352 854.667 498.066 866 492.68C890.285 481.138 913.366 467.672 939 459M793 460C792.652 464.362 791.014 465.55 787 467C786.17 461.646 787.647 460.176 793 460M1102 462L1101 469L1092 467C1093.51 462.461 1097.76 462.79 1102 462M1174 464C1175.47 467.507 1180.46 473.076 1179.97 476.851C1179.43 481.032 1172.84 479.693 1171.03 477.297C1168.35 473.757 1170.69 467.602 1172 464L1174 464M284 465L284 467L278 466C280.052 465.126 281.747 465.047 284 465M1084 466L1084 471C1081.8 470.906 1080.11 470.644 1078 470C1079.9 467.819 1081.26 466.931 1084 466M1110.44 466.752C1115.69 465.184 1127.33 478.539 1117.98 480.994C1113.05 482.289 1109.32 476.07 1108.68 472.005C1108.4 470.256 1108.27 467.398 1110.44 466.752M293 468L292 469L293 468M281 475L279 486L270 486C270.37 481.311 271.138 476.625 272 472L281 475M788 475C788.925 478.241 789.988 479.495 793 481C791.646 485.812 788.683 488.407 784 490C784 485.564 783.811 481.369 783 477C784.745 476.11 786.125 475.547 788 475M1163 514C1157.53 518.257 1154.04 523.069 1153 530C1148.07 529.986 1140.51 530.384 1136.09 527.972C1132.46 525.986 1130.55 521.519 1128.76 518C1124.23 509.102 1120.26 499.755 1118 490C1125.04 486.081 1133.05 477.415 1141 475.912C1144.88 475.177 1151.77 478.17 1154.01 481.39C1156.3 484.674 1156.62 490.152 1157.4 494C1158.78 500.862 1160.84 507.354 1163 514M1045 476.483C1031.95 478.228 1019.16 480.009 1006 480.911C1001.08 481.248 993.54 479.427 989.148 482.028C986.926 483.344 986.271 485.578 986.059 488.001C985.493 494.455 984.462 502.601 985.113 508.995C985.414 511.959 986.714 514.602 990.044 514.642C995.655 514.71 1002.15 510.179 1007 507.753C1020.14 501.185 1036.85 494.981 1047.89 485.181C1052.26 481.305 1051.83 475.569 1045 476.483M295 477C294.404 481.424 293.21 485.706 292 490C283.905 487.023 287.213 477.259 295 477M776 479L776 490C771.92 489.989 768.037 489.51 764 489C765.395 481.795 769.338 480.261 776 479M1172 487C1170.84 491.245 1169.18 495.177 1167 499C1165 494.551 1164.39 488.865 1164 484C1166.9 484.687 1169.36 485.612 1172 487M1028 487C1024.16 490.877 1018.81 492.777 1014 495.258C1007.06 498.841 1000.6 502.92 993 505L994 489C1005.18 486.925 1016.71 488.426 1028 487M1241 524C1235.99 525.797 1229.28 523.385 1224 523.025C1205.67 521.773 1187.67 517.621 1170 513C1171.55 506.493 1174.49 499.772 1177.88 494.001C1179.25 491.66 1181.09 488.397 1184.04 487.881C1188.7 487.065 1195.32 493.687 1199 496.05C1213.13 505.121 1227.08 514.609 1241 524M277 493L276 499C272.551 497.975 270.346 496.73 268 494L277 493M781 498C780.342 505.536 776.941 512.645 775.235 520C773.158 528.955 773 537.866 773 547C756.188 547.139 738.615 559.674 732 575C723.977 571.256 717.273 560.176 719.444 551C720.982 544.505 727.407 538.549 730.946 533C739.056 520.286 746.977 507.347 754 494C763.335 495.379 771.377 498 781 498M289 500L284 500L284 496C286.782 496.812 287.627 497.453 289 500M274 506L274 512L265 512L266 504L274 506M289 508L288 514L282 514L282 508L289 508M272 520C271.974 527.255 270.385 529.346 263 528C263.117 525.27 263.499 522.686 264 520L272 520M256 521L256 527C253.854 526.496 252.021 525.881 250 525L250 523C252.022 522.119 253.854 521.504 256 521M287 523L286 529L279 529L280 521C282.436 521.507 284.674 522.12 287 523M1176 523C1173.49 529.832 1167.61 525.909 1162 528C1163.68 519.749 1169.46 521.651 1176 523M301 526C298.689 527.393 296.691 527.765 294 528L294 525L301 526M1292 532C1291.23 534.911 1289.92 537.938 1290.44 541C1292.73 554.551 1312.55 564.418 1325 564.959C1330.13 565.182 1334.19 563.372 1339 562C1341.9 574.226 1327.67 587.389 1316 589.44C1311.39 590.249 1305.58 588.831 1301 588.08C1271.95 583.315 1244.87 570.044 1218 558.579C1205.42 553.209 1192.37 547.092 1179 544C1179.02 537.616 1179.57 528.725 1187 526.738C1191.41 525.56 1196.59 527.093 1201 527.729C1210.66 529.122 1220.31 530.551 1230 531.714C1240.63 532.99 1252.32 534.376 1263 533.96C1272.67 533.583 1282.3 532.006 1292 532M1162 535C1163.24 534.838 1164.76 534.426 1166.03 534.72C1175.18 536.839 1167.26 548.52 1162.6 539.001C1162.01 537.779 1162.1 536.303 1162 535M1329 557C1326.94 543.625 1309.89 538.571 1299 543C1297.62 536.803 1302.36 534.759 1308 535.094C1315.44 535.536 1324.33 539.119 1329.7 544.329C1334.31 548.799 1336.46 554.835 1329 557M270 537C267.08 538.223 264.163 538.476 262 536L270 537M285 537L285 539L278 538C280.331 537.016 282.457 537.019 285 537M269 546C268.928 554.687 267.372 563.33 267 572L262 572L262 546L269 546M284 547C282.358 555.846 281.707 565.041 281 574L275 573C275 563.913 276.813 555.047 277 546C279.528 546.052 281.582 546.278 284 547M254 547L254 564C254 566.687 254.545 570.212 253.397 572.725C252.103 575.557 248.317 576.514 246.043 578.394C237.984 585.055 241.233 590.694 246 598C232.042 597.712 215.55 592.453 204 584.64C199.282 581.449 193.195 576.449 194.847 570C196.447 563.757 202.683 560.418 208 557.759C221.575 550.971 238.831 547.042 254 547M299 597C299.876 592.263 300.282 588.188 297.347 584.015C294.889 580.519 290.425 578.32 289.318 573.985C287.31 566.124 290.978 556.1 291 548C305.213 548.039 321.36 552.804 333 561.043C337.031 563.896 343.938 569.309 343.123 575C342.452 579.681 337.61 583.203 334 585.64C323.925 592.443 310.904 595.397 299 597M1321 556C1315.07 555.479 1308.87 553.521 1306 548C1311.97 548.895 1317.23 551.199 1321 556M773 555C767.075 568.729 753.517 577.044 739 579C741.429 569.393 747.003 570.839 753.996 566.146C757.82 563.58 759.512 558.774 763.274 556.457C766.125 554.7 769.794 555.009 773 555M293 590C291.06 595.411 286.524 597.226 281 597.826C271.168 598.895 253.918 597.997 249 588C254.054 586.499 257.211 582.292 262 580.607C273.193 576.667 284.654 583.711 293 590M192 584C202.134 593.671 214.706 598.893 228 602.709C258.476 611.457 295.289 609.137 325 598.305C333.158 595.331 339.279 589.441 347 586C347.355 594.264 348.341 602.795 349.424 611C349.961 615.065 351.957 621.037 351.227 625C350.371 629.642 345.56 634.269 342 637C341.232 630.953 339.621 625.051 338.951 619C338.638 616.176 338.864 611.8 337.092 609.438C335.861 607.796 333.924 607.423 331.996 607.743C327.198 608.541 314.304 612.456 312.198 617.108C311.025 619.698 312.006 623.321 312.424 626C313.477 632.734 315.461 639.167 316 646L307 648C305.343 639.973 303.593 632.062 302.111 624.001C301.65 621.493 300.555 617.417 297.129 617.921C293.078 618.518 294.355 624.367 294.729 627C295.519 632.562 302.293 647.879 295.852 651.146C292.029 653.084 287.112 653.543 283 654.71C271.885 657.865 260.446 660.517 249 662.13C244.023 662.832 237.986 665.23 233 664.519C226.712 663.623 219.826 659.233 214 656.719C208.669 654.419 197.258 651.617 194.028 646.606C192.052 643.542 193.07 638.466 192.985 635C192.8 627.43 192.429 619.57 191.91 612C191.338 603.633 188.673 591.928 192 584M366 604C364.477 608.779 361.865 612.806 358 616C356.892 611.345 357 606.761 357 602C360.161 602.276 362.979 603.042 366 604M370 615C376.311 648.499 381.027 682.453 394.861 714C398.78 722.936 402.892 731.703 408.065 740C410.34 743.648 414.279 747.391 412.728 752C410.59 758.356 405.686 764.469 402 770C399.602 773.599 397.377 777.672 393.907 780.362C390.162 783.265 385.301 784.587 381 786.427C374.869 789.052 368.963 792.265 363 795.247C342.57 805.462 321.947 815.313 301 824.424C291.91 828.378 281.015 835.003 271 835.776C262.816 836.408 252.992 832.19 245 830.424C237.378 828.741 225.719 827.853 219.329 823.146C215.878 820.604 213.89 815.659 211.861 812C206.468 802.276 201.841 792.105 197.231 782C182.38 749.447 169.641 713.872 166.17 678C165.022 666.142 165.967 654.809 166 643C172.411 644.143 178.218 647.862 184 650.753C193.248 655.377 202.493 659.925 212 663.999C216.903 666.1 226.631 668.066 229.836 672.499C231.656 675.017 231.874 679.05 232.63 682C234.264 688.377 236.219 694.766 238.334 701C239.208 703.574 240.86 709.63 244.83 707.824C248.349 706.224 246.524 701.64 245.666 699C242.784 690.128 239.74 681.362 239 672C247.113 671.646 255.133 669.172 263 667.336C279.422 663.502 295.638 658.964 312 654.873C317.337 653.539 322.594 651.758 328 650.754C333.052 649.816 339.641 649.335 343.985 646.411C355.143 638.903 359.609 623.458 370 615M185 625L185 643C180.189 640.997 175.5 638.627 171 636C174.883 631.511 179.417 627.163 185 625M855 749C851.706 752.871 847.178 754.921 843 757.745C834.868 763.242 826.491 769.357 820.228 777C817.532 780.291 816.012 784.706 816.299 789C816.483 791.756 817.84 794.221 816.972 797C814.932 803.53 809.734 807.834 809 815C800.343 816.368 798.243 828.976 795.14 836C785.483 857.858 775.149 879.4 763 900C751.768 896.766 740.89 890.922 730 886.601C716.25 881.145 699.187 875.842 688.015 865.815C676.57 855.544 668.305 839.231 660.72 826C656.087 817.919 648.523 808.27 646.696 799C645.558 793.228 652.496 789.475 655.985 785.985C663.344 778.626 669.73 769.737 673.536 760C675.922 753.898 676.99 747.517 677 741C677.047 711.893 655.063 693.178 627 690.174C620.063 689.431 613.799 691.445 607 692C603.906 678.628 597.604 666.178 594 653C606.632 647.565 624.253 644.143 638 645.089C655.272 646.279 673.246 651.938 690 656.127C709.511 661.004 728.665 667.066 748 672.579C763.282 676.936 780.384 681.017 794 689.468C806.821 697.424 816.926 710.09 827.089 721C836.046 730.615 846.499 739.01 855 749M601 696C595.054 700.275 589.766 706.135 583 709C578.881 703.266 574.59 697.662 570.374 692C568.722 689.781 565.968 686.97 565.831 684.039C565.706 681.362 568.131 679.615 570.019 678.156C574.157 674.958 585.717 665.949 591.298 670.032C593.551 671.68 594.137 675.497 594.859 678C596.622 684.111 598.712 690.069 601 696M580 796C578.179 808.328 571.823 820.025 566.244 831C564.074 835.269 561.74 840.98 557.671 843.775C548.711 849.932 535.19 852.066 525 855.692C519.005 857.826 513.053 860.024 507 861.999C504.577 862.79 501.687 864.073 499.184 862.879C495.171 860.964 492.188 854.532 489.72 851C482.089 840.078 475.191 828.559 468.579 817C463 807.247 458.148 797.107 453.258 787C451.624 783.621 447.934 777.919 448.816 774.039C449.427 771.352 452.104 769.583 454.005 767.83C457.695 764.426 461.207 760.871 465 757.576C477.187 746.989 487.828 734.643 498.961 723C510.543 710.886 522.518 698.724 533.421 686C537.537 681.196 541.959 673.602 548.911 678.265C558.045 684.39 564.625 696.327 571.127 705C573.405 708.04 577.429 711.94 577.444 716C577.454 718.932 575.245 721.57 573.872 724C571.526 728.151 569.461 732.505 567.864 737C560.956 756.446 561.627 783.022 580 796M616 698.329C622.876 697.132 630.397 697.982 637 700.026C644.701 702.409 653.105 705.128 658.816 711.093C687.064 740.605 656.12 792.503 621 798.564C614.48 799.689 608.543 799.908 602 798.805C583.186 795.632 570.447 778.705 571.043 760C571.836 735.151 589.417 702.956 616 698.329M612 718.532C599.315 721.553 588.297 735.258 587.174 748C585.815 763.43 600.605 771.074 614 767.76C625.521 764.909 635.618 753.711 637.671 742C640.537 725.654 627.844 714.759 612 718.532M898 722L896 734C884.182 736.734 873.549 742.698 862 746L861 742C872.985 735.621 884.931 725.844 898 722M618 726.287C628.378 725.062 631.801 734.024 629.211 743C626.509 752.361 617.808 760.036 608 760.811C597.722 761.623 592.875 751.88 596.133 743C599.588 733.586 608.33 727.428 618 726.287M422 733C421.465 736.019 420.504 738.327 419 741L417 741L412 732L422 733M902 952C921.301 938.123 935.318 919.189 949 900C957.728 887.76 966.97 875.172 972.316 861C976.646 849.519 984.279 826.118 967.999 819.894C962.906 817.946 957.526 820.091 953 822.489C942.464 828.072 934.316 836.645 926.001 845C922.822 848.194 916.663 858.368 911.278 854.932C907.719 852.661 907.068 846.722 906 843C903.288 833.548 901.586 822.622 896.586 814.039C893.273 808.352 886.36 804.843 881 801.344C866.988 792.198 848.036 779.487 831 778C835.538 768.687 849.164 762.035 858 757.231C873.649 748.721 892.841 739.652 911 739.043C922.844 738.646 936.284 742.332 948 744.246C968.99 747.676 991.877 748.512 1012 755.698C1021.8 759.198 1030.94 765.088 1040 770.14C1052.32 777.015 1064.73 783.741 1077 790.719C1087.03 796.422 1097.06 802.148 1107 807.989C1111.94 810.892 1117.76 813.467 1121.36 818.093C1125.32 823.179 1127 829.99 1129 836C1132.87 847.622 1136.21 859.026 1138.66 871C1141.3 883.867 1145.82 898.909 1142.88 912C1141.7 917.253 1138.29 921.612 1135.33 926C1128.59 936.003 1120.47 945.424 1112 954C1102.41 963.706 1092.29 972.765 1082 981.718C1077.28 985.823 1072.65 991.227 1067 994.051C1060.14 997.48 1050.5 997.257 1043 998.155C1022.09 1000.66 1001.9 999.62 981 998.089C969.286 997.23 957.531 995.092 946 992.8C940.792 991.765 934.791 991.297 930 988.9C917.432 982.611 905.221 965.553 902 952M429 742C431.728 762.241 442.72 782.931 451.753 801C469.757 837.013 492.734 870.552 519 901C528.846 912.414 539.035 925.807 551 935C548.987 943.78 546.079 952.422 543.344 961C542.218 964.532 541.746 968.816 539.436 971.816C536.172 976.054 530.328 978.696 526 981.72C515.996 988.71 505.94 995.625 496 1002.71C481.796 1012.83 468.609 1024.11 455 1035C447.592 1040.93 439.829 1048.31 431 1052.04C426.079 1054.12 421.169 1053.68 416 1054.17C408.335 1054.9 400.712 1055.96 393 1056C385.517 1056.04 376.124 1059.11 369 1055.86C361.95 1052.64 356.369 1045.37 351 1040C339.466 1028.47 328.021 1016.93 316.91 1005C281.096 966.552 251.456 925.706 225.576 880C219.402 869.097 213.648 858.014 207.691 847C203.849 839.895 199.249 832.807 197 825C211.723 828.936 226.095 834.265 241 837.576C247.896 839.107 259.969 839.54 265.61 843.857C270.351 847.487 273.081 856.001 276.344 861C279.34 865.589 282.278 871.057 286.3 874.833C287.826 876.265 290.542 877.971 292.172 875.623C294.217 872.677 290.154 868.239 288.576 866C283.586 858.923 277.635 851.324 275 843C305.937 832.534 336.034 817.2 365 802.258C370.904 799.213 376.848 796.118 383 793.603C388.718 791.266 395.35 789.199 399.907 784.867C411.797 773.564 418.832 755.981 427 742L429 742M1116 804C1103.47 799.413 1091.52 790.738 1080 784.012C1065.18 775.356 1049.81 767.652 1035 759C1045.02 748.956 1064.67 746.605 1078 743.999C1082.3 743.158 1089.58 740.263 1093.36 743.603C1097.37 747.149 1099.25 755.14 1101.2 760C1106.92 774.251 1112.53 789.017 1116 804M846 790C843.857 793.729 840.377 796.082 837.425 799.17C831.595 805.27 826.273 812.19 823 820C812.529 818.081 818.001 809.17 822.22 803C825.582 798.083 831.471 788.7 838 787.954C840.6 787.656 843.537 789.3 846 790M881 810C872.106 819.078 862.198 826.955 857 839C849.679 837.584 843.356 832.008 837.001 828.283C834.812 827 831.455 825.576 830.828 822.815C830.2 820.052 832.6 817.137 834.005 815C838.103 808.764 845.959 797.374 854 796.209C856.838 795.798 859.572 797.531 862 798.756C868.549 802.062 874.885 805.953 881 810M758 906C756.003 917.065 746.804 928.286 741.281 938C735.753 947.723 730.1 957.38 724.397 967C722.324 970.495 719.967 976.764 716.39 978.932C711.49 981.902 706.036 974.833 701 975.566C696.82 976.175 694.34 980.399 690 980.762C686.13 981.087 681.719 979.555 678 978.625C669.09 976.398 660.433 973.347 652 969.719C629.646 960.102 608.364 947.884 589 933.116C580.207 926.409 572.768 917.884 564 911.318C556.484 905.689 548.025 913.781 540 911.067C534.886 909.338 530.956 903.941 527.579 900C519.848 890.977 510.326 881.692 505 871C517.2 865.566 530.332 861.556 543 857.333C549.613 855.129 557.599 853.462 562.96 848.775C567.795 844.549 570.434 838.625 573.247 833C578.351 822.793 582.396 812.386 587 802C597.98 804.997 607.341 808.229 619 806.711C623.503 806.124 627.788 804.794 632 803.144C633.994 802.362 636.455 801.002 638.582 802.133C640.626 803.22 641.393 806.058 642.309 808.001C644.563 812.786 647.272 817.389 649.861 822C658.459 837.315 667.722 853.455 679.004 866.961C685.312 874.512 694.344 878.93 703 883.247C720.394 891.923 739.602 899.737 758 906M202 809C204.067 812.543 205.863 816.052 207 820L195 817C196.151 812.909 198.175 810.804 202 809M894 830C884.986 834.676 879.52 843.819 874 852L863 845C865.215 836.235 872.254 827.178 879.039 821.329C881.267 819.408 885.512 815.858 888.722 817.242C892.516 818.876 893.474 826.442 894 830M605 1176C608.124 1166.19 615.695 1156.82 621 1148C633.819 1126.68 647.622 1106 660.947 1085C694.916 1031.47 727.419 977.065 758.85 922C772.357 898.335 785.768 874.909 796.861 850C800.662 841.465 805.426 833.004 808 824C818.098 825.491 827.362 831.046 836 836.201C845.504 841.872 855.04 847.644 864 854.152C869.561 858.191 877.274 862.777 880.547 869.015C885.518 878.489 884 891.696 884 902C884 922.965 882.022 943.246 879.13 964C877.69 974.337 876.915 987.385 872.196 996.83C869.677 1001.87 864.021 1006.12 860 1009.96C847.479 1021.93 832.638 1031.31 818 1040.42C776.137 1066.48 732.613 1087.95 695 1120.43C680.162 1133.24 666.649 1147.3 654.873 1163C650.717 1168.54 646.842 1174.24 643 1180C641.287 1182.57 639.444 1186.67 636.674 1188.25C633.237 1190.21 629.568 1185.66 627 1183.9C620.576 1179.5 612.816 1176.36 605 1176M892 901C895.853 902.225 898.716 906.481 903 906.239C907.613 905.978 911.873 901.966 914.996 898.96C922.735 891.512 930.501 881.012 931.816 870C932.126 867.396 932.141 864.505 931.147 862.039C930.07 859.37 927 857.102 928.172 853.961C929.338 850.837 932.713 848.29 935 846C941.658 839.331 953.26 826.077 963.957 827.191C968.455 827.66 969.774 832.102 969.953 836C970.331 844.245 967.616 853.576 964.229 861C952.594 886.508 933.973 910.031 915.576 930.996C911.178 936.008 905.697 940.927 900 944.437C897.736 945.832 894.134 947.691 891.603 945.806C888.461 943.465 890.53 937.153 890.83 934C891.874 923.034 892 912.022 892 901M897 838C898.742 846.417 900.176 858.497 909 862C906.625 871.136 897.969 879.91 893 888C890.008 882.372 890.674 875.136 888.942 869C887.622 864.323 882.814 861.535 881.737 857C880.109 850.147 891.254 839.614 897 838M925 864C924.414 877.447 914.883 894.009 902 899C902.274 885.746 911.307 867.843 925 864M246 958C238.092 963.574 227.994 975.026 234.703 984.995C237.606 989.309 242.158 990.881 246 994C235.353 997.604 228.697 993.728 219 989.615C212.51 986.862 205.746 984.752 199 982.72C180.867 977.259 161.973 971.389 143 970.089C129.737 969.181 116.339 972.448 103 970.711C94.5488 969.61 87.4258 965.907 80 962C83.4169 954.818 91.4439 948.669 98 944.384C100.353 942.846 103.119 941.026 106 940.802C111.764 940.356 119.426 944.83 125 946.421C130.295 947.933 135.588 949.735 141 950.785C143.148 951.201 145.769 951.795 147.663 950.308C151.622 947.199 146.968 944.209 143.995 943.468C132.434 940.586 121.316 937.185 110 933.444C97.9166 929.448 90.8021 944.543 81 947.968C77.8857 949.057 74.7899 947.524 72 946.218C65.2932 943.08 59.4447 939 54 934C59.9791 926.766 70.4782 922.071 79 918.427C82.9746 916.728 86.6589 915.047 91 916.272C100.103 918.842 108.872 922.672 118 925.291C120.856 926.11 125.944 928.46 128.338 925.593C129.982 923.625 128.71 921.459 126.847 920.303C122.689 917.723 116.64 917.138 112 915.656C105.932 913.717 99.9733 911.524 94 909.319C91.2017 908.286 88.0581 906.53 85 907.302C78.4095 908.965 70.9071 913.783 65 917.15C62.3824 918.643 59.1305 921.223 56 921.279C50.1988 921.381 44.166 913.644 42 909C51.2278 902.371 61.9699 892.795 74 892.394C78.2556 892.253 82.1688 894.849 86 896.396C91.5164 898.623 97.3203 900.21 103 901.975C132.486 911.136 160.088 925.215 190 933.116C197.588 935.12 205.192 937.693 213 938.711C219.173 939.515 227.168 938.401 232.985 940.603C238.737 942.781 244.524 952.323 246 958M555 918C554.739 921.197 554.126 923.997 553 927C550.13 924.68 548.04 922.077 546 919C549.025 918.438 551.922 918.064 555 918M564 921C589.795 946.724 623.222 966.535 657 979.797C666.912 983.689 677.498 987.072 688 988.916C692.097 989.635 698.946 989.003 701.146 993.228C706.03 1002.61 697.533 1012.26 692.989 1020C680.051 1042.03 666.138 1063.53 652.308 1085C641.815 1101.29 631.347 1117.58 621.05 1134C617.61 1139.48 613.702 1149.77 607.896 1152.97C602.597 1155.9 594.654 1153.29 589 1153.04C573.32 1152.35 557.54 1151.91 542 1149.41C488.884 1140.88 437.297 1118.45 391 1091.58C377.268 1083.61 364.471 1074.31 351 1066C357.782 1063.15 367.684 1065.16 375 1064.99C386.582 1064.7 398.454 1063.93 410 1062.83C415.128 1062.34 421.762 1060.19 426.83 1061.32C433.15 1062.72 440.09 1069.69 446 1072.74C452.57 1076.13 459.2 1079.78 466 1082.68C468.19 1083.62 472.56 1085.19 473.654 1081.83C474.904 1077.99 468.524 1075.49 466 1074.26C456.144 1069.44 446.204 1065.07 437 1059L437 1057C449.315 1050.14 460.208 1040.24 471 1031.25C482.335 1021.8 493.96 1012.95 506 1004.42C514.938 998.098 523.921 991.79 533 985.67C537.345 982.741 543.202 979.953 546.4 975.7C548.56 972.828 548.902 968.376 550 965C553.228 955.074 556.121 945.033 559 935C560.353 930.286 560.857 924.836 564 921M252 937C254.685 941.35 258.013 945.276 260 950C251.961 953.373 247.471 947.45 245 940C247.327 938.682 249.433 937.739 252 937M895 955C897.666 964.253 904.343 971.303 908 980C902.882 978.944 888.949 978.125 886.618 972.722C884.522 967.863 887.891 959.27 888 954L895 955M241 975C253.863 981.465 267.555 972.976 264 958C266.658 958.811 268.146 959.899 269.997 962.059C271.598 963.926 273.858 966.387 273.922 968.999C273.997 972.084 271.111 974.548 268.96 976.331C263.723 980.673 256.997 984.821 250 984.944C243.613 985.057 239.305 981.436 241 975M258 963C256.05 968.669 252.718 969.932 247 970C249.695 964.665 252.027 963.071 258 963M681 1180C683.81 1173.97 689.421 1169.88 693.83 1165C701.879 1156.1 709.285 1143.5 719.17 1136.6C723.639 1133.49 729.948 1135.65 734.995 1134.85C737.111 1134.52 739.718 1133.5 740.079 1131.05C740.932 1125.26 727.216 1127 724 1127C724 1119.98 724.822 1112.96 724 1106C738.501 1097.05 752.232 1087 767 1078.42C793.164 1063.24 820.657 1049.45 845 1031.37C853.505 1025.05 861.417 1018.41 869 1011.01C872.009 1008.08 875.85 1005.52 878.157 1001.96C881.596 996.656 882.955 988.167 884 982C889.717 983.323 895.215 985.449 901 986.54C906.232 987.527 912.001 987.515 917 989.474C921.008 991.046 924.179 994.22 928 996.179C931.485 997.966 937.404 998.097 940.142 1000.86C942.413 1003.15 941.874 1007.08 942.089 1010C942.525 1015.94 942.648 1022.1 943.424 1028C944.389 1035.33 944.886 1042.7 946.08 1050C946.996 1055.6 948.708 1062.35 947.775 1068C946.673 1074.67 940.646 1080.83 936.651 1086C931.034 1093.27 925.264 1100.45 920.025 1108C915.783 1114.11 911.771 1121.53 905.91 1126.24C901.135 1130.07 895.505 1132.26 890 1134.77C876.399 1140.97 862.164 1145.62 848 1150.33C794.913 1168.01 737.03 1180 681 1180M1093 982C1088.53 993.625 1077.59 1005.17 1068.99 1014C1065.57 1017.5 1062.25 1021.56 1058 1024C1058.59 1017.12 1054.55 1011.53 1053 1005C1058.53 1003.93 1066.02 1003.93 1070.91 1001.08C1079.1 996.295 1085.18 987.489 1093 982M1045 1006C1045.99 1009.44 1048.75 1013.36 1048.48 1017C1048.23 1020.48 1045.2 1023.59 1042.91 1025.96C1036.62 1032.46 1028.94 1037.81 1022 1043.59C1002.57 1059.75 983.054 1075.63 962 1089.67C952.065 1096.29 941.261 1103.9 930 1108C933.6 1099.48 941.006 1092.36 946.525 1085C949.224 1081.4 951.611 1076.58 955.325 1073.92C958.458 1071.68 962.601 1070.53 966 1068.69C968.627 1067.27 978.278 1062.8 975.11 1058.54C973.589 1056.49 970.812 1057.62 968.999 1058.48C964.564 1060.59 960.715 1063.51 956 1065C952.078 1044.18 951.647 1022.95 949 1002C966.221 1002.14 983.746 1006.73 1001 1007.91C1015.72 1008.92 1030.34 1006.12 1045 1006M357 1057L343 1057C343.524 1053.45 344.547 1050.28 346 1047C350.686 1049.19 354.042 1052.8 357 1057M717 1113C716.899 1117.9 716.91 1124.51 714.86 1129C711.264 1136.88 702.865 1143.47 697.271 1150C693.521 1154.38 689.263 1161.33 683.985 1163.89C678.562 1166.52 669.897 1165 664 1165C666.159 1158.64 671.436 1153.93 675.834 1149C683.626 1140.27 692.114 1132.35 701 1124.73C705.993 1120.45 710.893 1115.58 717 1113M675 1173C673.777 1174.2 673.58 1174.32 672 1175C672.98 1173.22 672.908 1173.41 675 1173M600 1205C597.533 1210.87 593.227 1215.69 591.61 1222C588.551 1233.94 595.945 1246.31 609 1244C600.512 1252.5 584.862 1248 574 1248C554.277 1248 534.612 1249.96 515 1251.83C506.382 1252.65 497.581 1252.27 489 1253.29C480.62 1254.27 472.221 1254.34 464 1252.07C461.283 1251.32 456.578 1249.98 455.828 1246.79C454.855 1242.64 460.376 1236.98 462.654 1234C467.31 1227.9 473.454 1218.46 482 1218.19C490.958 1217.91 501.026 1220.33 510 1221.17C513.295 1221.48 518.227 1222.76 520.079 1218.87C522.138 1214.54 515.518 1214.13 513 1213.92C502.322 1212.98 490.63 1209.55 480 1209.82C470.403 1210.06 461.129 1224.08 456 1231C449.712 1229.83 443.255 1229.9 437 1228.49C432.066 1227.37 427.631 1224.93 423 1223L423 1221C431.429 1214.23 440.851 1203.14 452 1200.73C457.581 1199.53 466.284 1201.61 472 1202.29C476.011 1202.76 488.929 1205.45 490.539 1199.9C491.35 1197.09 488.162 1195.64 485.985 1195.23C479.697 1194.04 472.429 1194.6 466 1194.09C461.184 1193.7 454.651 1191.14 450 1192.6C440.475 1195.6 433.541 1206.46 424 1208.85C417.151 1210.56 407.798 1205.04 402 1202C405.336 1194.85 412.642 1189.49 419 1185.04C421.672 1183.16 424.599 1180.83 428 1180.74C431.875 1180.64 436.205 1182.25 440 1183C449.006 1184.77 457.97 1186.75 467 1188.39C491.157 1192.77 515.591 1195.5 540 1197.83C552.329 1199.01 564.638 1199.06 577 1199.91C585.724 1200.51 592.132 1200.52 600 1205M628 1196C623.137 1199.49 620.632 1198.66 615 1199.31C612.301 1199.63 609.738 1200.67 607 1200.01C603.202 1199.1 599.613 1196.5 596 1195C597.92 1190.44 601.174 1187 604 1183C612.467 1184.25 624.02 1187.86 628 1196M599 1231C606.809 1230.59 615.598 1224.74 615.475 1216C615.436 1213.22 613.911 1210.57 613 1208C619.745 1206.08 623.579 1210.08 622.811 1217C622.028 1224.05 616.995 1230.93 610.996 1234.52C605.634 1237.72 601.134 1237.07 599 1231M608 1215C607.182 1219.04 605.709 1221.17 602 1223C602.253 1218.4 603.194 1215.78 608 1215z"/>
</svg>
